<svg width="222" height="73" viewBox="0 0 222 73" fill="none" xmlns="http://www.w3.org/2000/svg">
<path d="M63.6143 51.1354C63.4808 52.0124 63.1412 52.7803 63.0077 53.6573C61.6986 53.9878 57.2667 55.7021 53.9556 60.4686C51.4771 64.0403 51.0787 68.4111 51.0787 70.1316C34.4152 70.1316 17.7518 70.1316 1.08203 70.1316L1.73027 68.6254H3.21739C5.13667 68.6254 10.5831 68.2759 11.9114 67.5768C13.246 66.8777 14.1484 65.435 14.6314 64.5199C15.1144 63.6047 15.8198 61.5964 16.7477 58.4951L28.9307 18.3614C29.8903 15.2601 30.5068 13.0802 30.6529 12.2858C31.0724 10.0869 32.1655 9.20347 28.1363 9.20347H27.5135L28.1617 7.69727H45.664L45.0158 9.20347H43.3634C41.2535 9.20347 39.6138 9.47039 38.4318 9.99152C37.256 10.519 36.379 11.2562 35.807 12.2032C35.2351 13.1501 34.339 15.6223 33.1315 19.6198L21.4124 58.2218C20.51 61.1961 20.0651 63.0264 20.0651 63.7064C20.0651 65.1618 20.6498 66.9095 21.8065 67.6657C22.9695 68.4284 25.5497 68.8033 29.5471 68.8033H32.712C41.3615 69.3245 45.5159 67.1606 48.0961 64.7964C50.3204 62.7627 51.5205 60.5585 54.6657 57.2254C57.8143 54.2553 61.2755 52.0315 63.6143 51.1354Z" fill="black" stroke="black" stroke-width="0.533844" stroke-miterlimit="10"/>
<path d="M77.8191 56.9691H80.0498C76.1096 65.7458 71.0572 70.1309 64.8862 70.1309C62.3441 70.1309 60.2723 69.2412 58.6772 67.4553C57.082 65.6758 56.2812 63.2608 56.2812 60.223C56.2812 56.3781 57.3108 52.0374 59.3763 47.201C61.4353 42.3646 64.3651 38.1956 68.1655 34.6875C71.966 31.1857 75.2707 29.4316 78.0924 29.4316C79.8274 29.4316 81.1429 29.9845 82.0454 31.084C82.9415 32.1835 83.3927 33.5562 83.3927 35.2022C83.3927 38.5515 81.7213 41.7673 78.3721 44.8496C75.0228 47.9382 69.3653 51.0264 62.6669 53.8736C61.7963 56.5682 61.4062 59.1251 61.4062 61.5401C61.4062 63.523 61.8916 64.7721 62.6669 65.7699C63.5265 66.8761 65.0833 67.3791 66.6085 67.3791C70.8602 67.3854 74.597 63.9154 77.8191 56.9691ZM63.5725 51.1879C67.5699 49.3894 71.6037 47.112 74.8004 43.9471C77.9907 40.7822 79.5923 37.9159 79.5923 35.3421C79.5923 34.1663 79.3508 33.2893 78.8741 32.7173C78.3911 32.1453 77.673 31.8594 76.7133 31.8594C74.8513 31.8594 72.6587 33.6643 70.1357 37.2804C67.5936 40.8839 65.1231 45.3855 63.5725 51.1879Z" fill="black" stroke="black" stroke-width="0.533844" stroke-miterlimit="10"/>
<path d="M108.643 66.4164C115.157 66.4164 118.43 61.1225 120.159 56.9153L124.41 57.8686C122.224 63.2706 117.496 70.5982 108.44 70.5982C101.017 70.5982 95.9453 64.637 95.9453 54.9451C95.9453 41.3893 103.216 29.4668 114.344 29.4668C123.05 29.4668 125.783 37.0804 126.412 40.0674L122.364 41.4846C121.805 39.2603 120.178 33.6486 114.09 33.6486C105.376 33.6486 100.21 44.1348 100.21 54.9007C100.21 62.1775 103.597 66.4164 108.643 66.4164Z" fill="black" stroke="black" stroke-width="0.373687"/>
<path d="M148.858 63.6953C146.742 67.4513 142.948 70.5908 137.311 70.5908C131.083 70.5908 126.138 65.7608 127.473 56.6664L131.375 30.3555H135.512L131.922 54.7788C130.733 62.8183 132.583 66.3899 138.404 66.3899C143.437 66.3899 148.973 62.4624 150.46 52.3829L153.733 30.3555H157.87L152.061 69.6883H148.121L148.992 63.6889L148.858 63.6953Z" fill="black" stroke="black" stroke-width="0.373687"/>
<path d="M186.518 58.8375C184.014 64.6081 179.242 70.5884 170.363 70.5884C163.061 70.5884 158.047 64.6272 158.047 54.9481C158.047 41.5067 165.184 29.457 176.147 29.457C184.739 29.457 190.274 37.5346 187.885 51.2112H162.483C161.313 60.1086 164.459 66.4067 170.56 66.4067C176.827 66.4067 180.189 62.352 182.324 57.9668L186.518 58.8375ZM163.214 47.1438H184.097C184.955 39.8733 182.006 33.6452 175.88 33.6452C169.658 33.6388 164.593 39.975 163.214 47.1438Z" fill="black" stroke="black" stroke-width="0.373687"/>
<path d="M92.7911 36.4754C91.6277 38.835 90.6972 41.235 90.0067 43.6785C89.3161 46.122 88.8818 48.5561 88.7108 50.984C88.5335 53.413 88.6483 55.7441 89.0479 57.974C89.4476 60.2039 90.0986 62.3249 90.9993 64.3283C91.9001 66.3316 93.0339 68.0881 94.3874 69.5956L91.3938 71.0983C89.9807 69.5104 88.7427 67.6404 87.6815 65.4972C86.6202 63.354 85.8791 61.0896 85.4517 58.7051C85.0196 56.2942 84.8904 53.8107 85.0659 51.2636C85.2405 48.712 85.6886 46.1752 86.4095 43.6487C87.1303 41.1223 88.1223 38.6339 89.3723 36.1812C90.6284 33.7275 92.1224 31.3769 93.8486 29.1351L96.8916 29.7428C95.3261 31.8737 93.9546 34.1157 92.7911 36.4754Z" fill="black" stroke="black" stroke-width="0.373687"/>
<path d="M198.671 40.9325C198.985 43.4496 198.993 46.0237 198.693 48.6455C198.394 51.2719 197.822 53.8667 196.978 56.4347C196.135 59.0026 195.022 61.5152 193.653 63.9754C192.278 66.4365 190.67 68.7767 188.835 70.9908L185.824 70.1821C187.5 68.0814 188.979 65.8415 190.257 63.4722C191.535 61.1029 192.589 58.6773 193.423 56.1901C194.258 53.7029 194.817 51.2126 195.113 48.713C195.402 46.2142 195.408 43.7977 195.117 41.4696C194.827 39.1415 194.267 36.9126 193.44 34.792C192.612 32.6714 191.558 30.7897 190.279 29.1515L193.339 27.7303C194.673 29.4552 195.82 31.4704 196.778 33.762C197.729 36.0545 198.361 38.4477 198.671 40.9325Z" fill="black" stroke="black" stroke-width="0.373687"/>
<path d="M206.193 7.29518C206.294 6.39832 207.597 6.39833 207.698 7.29519L208.466 14.1275C208.533 14.7195 209.225 15.0064 209.691 14.6348L215.065 10.3466C215.77 9.78366 216.692 10.7053 216.129 11.4107L211.841 16.7849C211.469 17.2505 211.756 17.9431 212.348 18.0096L219.181 18.7775C220.077 18.8783 220.077 20.1816 219.181 20.2824L212.348 21.0503C211.756 21.1168 211.469 21.8093 211.841 22.275L216.129 27.6492C216.692 28.3546 215.77 29.2762 215.065 28.7133L209.691 24.4251C209.225 24.0535 208.533 24.3404 208.466 24.9324L207.698 31.7647C207.597 32.6616 206.294 32.6616 206.193 31.7647L205.425 24.9324C205.359 24.3404 204.666 24.0535 204.201 24.4251L198.827 28.7133C198.121 29.2762 197.2 28.3546 197.762 27.6492L202.051 22.275C202.422 21.8093 202.135 21.1168 201.543 21.0503L194.711 20.2824C193.814 20.1816 193.814 18.8783 194.711 18.7775L201.543 18.0096C202.135 17.9431 202.422 17.2505 202.051 16.7849L197.762 11.4107C197.2 10.7053 198.121 9.78366 198.827 10.3466L204.201 14.6348C204.666 15.0064 205.359 14.7195 205.425 14.1275L206.193 7.29518Z" fill="black"/>
</svg>
