<svg width="450" height="200" viewBox="0 0 450 200" fill="none" xmlns="http://www.w3.org/2000/svg">
<g clip-path="url(#clip0_5367_2380)">
<mask id="mask0_5367_2380" style="mask-type:alpha" maskUnits="userSpaceOnUse" x="0" y="0" width="450" height="207">
<rect width="450" height="207" fill="#DDDDDD"/>
</mask>
<g mask="url(#mask0_5367_2380)">
<rect x="-5" y="-5" width="461" height="260" fill="url(#paint0_linear_5367_2380)"/>
</g>
<rect x="-82" y="-23" width="592" height="393" rx="6" fill="url(#paint1_linear_5367_2380)"/>
<path opacity="0.1" d="M246.968 101.119C249.738 96.1806 257.271 99.3585 255.667 104.788L243.391 146.337C242.332 149.921 245.636 153.268 249.234 152.255L290.938 140.521C296.388 138.987 299.468 146.561 294.494 149.266L256.435 169.965C253.152 171.751 253.121 176.454 256.381 178.282L294.168 199.473C299.106 202.243 295.929 209.776 290.499 208.172L248.95 195.897C245.366 194.838 242.019 198.141 243.032 201.739L254.766 243.443C256.3 248.893 248.726 251.973 246.021 247L225.322 208.94C223.536 205.657 218.833 205.626 217.005 208.886L195.814 246.673C193.044 251.612 185.511 248.434 187.115 243.004L199.39 201.455C200.449 197.871 197.146 194.524 193.548 195.537L151.844 207.271C146.394 208.805 143.314 201.231 148.287 198.526L186.347 177.827C189.63 176.041 189.661 171.339 186.401 169.511L148.614 148.319C143.675 145.549 146.853 138.016 152.283 139.62L193.832 151.896C197.416 152.955 200.763 149.651 199.75 146.053L188.016 104.349C186.482 98.8987 194.056 95.8188 196.761 100.793L217.46 138.852C219.246 142.135 223.948 142.166 225.777 138.906L246.968 101.119Z" fill="white"/>
<path d="M176.589 23.6014C176.746 23.1393 177.435 23.2911 177.384 23.7765L177.014 27.2865C176.98 27.6069 177.312 27.8391 177.602 27.697L180.77 26.141C181.208 25.9258 181.587 26.5199 181.208 26.827L178.464 29.0474C178.214 29.2501 178.285 29.6493 178.59 29.7534L181.93 30.8931C182.392 31.0508 182.24 31.7392 181.755 31.6881L178.245 31.3182C177.924 31.2844 177.692 31.6168 177.834 31.9061L179.39 35.0739C179.605 35.5121 179.011 35.8916 178.704 35.5122L176.484 32.7687C176.281 32.5182 175.882 32.5891 175.778 32.8941L174.638 36.2344C174.481 36.6964 173.792 36.5446 173.843 36.0592L174.213 32.5492C174.247 32.2288 173.914 31.9966 173.625 32.1387L170.457 33.6947C170.019 33.9099 169.64 33.3158 170.019 33.0087L172.763 30.7883C173.013 30.5856 172.942 30.1864 172.637 30.0823L169.297 28.9426C168.835 28.7849 168.987 28.0965 169.472 28.1476L172.982 28.5175C173.303 28.5513 173.535 28.2189 173.393 27.9296L171.837 24.7618C171.621 24.3236 172.216 23.9441 172.523 24.3236L174.743 27.067C174.946 27.3175 175.345 27.2466 175.449 26.9416L176.589 23.6014Z" fill="white"/>
<path d="M38.6055 28.1602V38.9805H36.8281V28.1602H38.6055ZM23.5469 34.8594C25.9199 34.8594 29.8262 34.8105 32.7266 34.3516L32.8633 35.6211C31.7207 35.8555 30.4609 36.0117 29.2109 36.1094V38.9023H27.4141V36.2168C26.0371 36.2754 24.748 36.2852 23.7227 36.2852L23.5469 34.8594ZM24.4062 31.3633C24.3965 29.7617 25.9395 28.7754 28.2344 28.7656C30.5195 28.7754 32.0723 29.7617 32.0625 31.3633C32.0723 32.9648 30.5195 33.9707 28.2344 33.9805C25.9395 33.9707 24.3965 32.9648 24.4062 31.3633ZM26.0859 31.3633C26.0859 32.1836 26.9062 32.6523 28.2344 32.6523C29.543 32.6523 30.4023 32.1836 30.4023 31.3633C30.4023 30.5527 29.543 30.0742 28.2344 30.0938C26.9062 30.0742 26.0859 30.5527 26.0859 31.3633ZM26.5742 45.4453V39.5859H28.3906V41.0703H36.7695V39.5859H38.6055V45.4453H26.5742ZM28.3906 43.9805H36.7695V42.5156H28.3906V43.9805ZM30.6562 38.0625V36.7734H33.6055V28.4531H35.3633V38.9414H33.6055V38.0625H30.6562ZM55.5883 28.1602V45.6602H53.8109V28.1602H55.5883ZM40.725 35.7188C40.725 31.9297 42.2094 29.5566 44.4945 29.5664C46.6234 29.5566 48.059 31.5781 48.2738 34.8594H50.2563V28.4922H52.0336V44.8008H50.2563V36.3633H48.2836C48.1176 39.7812 46.6625 41.9004 44.4945 41.8906C42.2094 41.9004 40.725 39.5176 40.725 35.7188ZM42.4438 35.7188C42.4438 38.502 43.2348 40.1426 44.4945 40.1328C45.7836 40.1426 46.5844 38.502 46.5844 35.7188C46.5844 32.9258 45.7836 31.2949 44.4945 31.3047C43.2348 31.2949 42.4438 32.9258 42.4438 35.7188ZM63.7234 32.6133C63.7234 35.8164 65.5203 39.0098 68.1961 40.2109L67.0633 41.6953C65.0809 40.6992 63.577 38.7266 62.8055 36.334C62.034 38.8535 60.5105 40.9824 58.4891 42.0273L57.3172 40.5234C60.032 39.2246 61.8387 35.8555 61.8484 32.6133V29.625H63.7234V32.6133ZM66.2625 35.4844V33.9805H70.1688V28.1602H72.0047V45.6992H70.1688V35.4844H66.2625ZM30.0703 61.6133C30.0508 64.8066 31.9844 68.0293 34.6992 69.2305L33.5859 70.6953C31.5742 69.7383 29.9824 67.7754 29.1621 65.3828C28.3516 67.9512 26.7402 70.0605 24.6406 71.0859L23.5078 69.5234C26.2617 68.3027 28.1953 64.9531 28.1953 61.6133V58.625H30.0703V61.6133ZM36.2812 74.6992V57.1602H38.1367V74.6992H36.2812ZM54.2797 57.1602V62.3359H56.8188V63.8789H54.2797V69.875H52.4047V57.1602H54.2797ZM40.5102 66.4766C44.6117 65.2461 47.1508 62.9121 47.5121 60.0312H41.2523V58.4883H49.5336C49.5336 63.0781 46.4086 66.4082 41.2914 67.9609L40.5102 66.4766ZM43.1664 74.2891V68.5664H45.0414V72.7852H55.0023V74.2891H43.1664ZM76.9172 57.1602V74.6602H75.1398V57.1602H76.9172ZM61.6437 69.8359C64.1242 68.3418 65.384 65.1582 65.3937 62.043V60.6367H62.1711V59.1328H70.1789V60.6367H67.1711V62.043C67.1711 65.0312 68.382 68.0293 70.843 69.4453L69.7297 70.8125C68.0598 69.8164 66.9172 68.0293 66.302 65.9199C65.677 68.2051 64.4855 70.1582 62.7766 71.2227L61.6437 69.8359ZM68.8898 64.875V63.3516H71.6047V57.5312H73.3625V73.7812H71.6047V64.875H68.8898ZM95.0133 59.7188V61.2422H92.5328V63.4688H95.0133V65.0312H92.5328V67.5312H90.6773V57.1602H92.5328V59.7188H95.0133ZM79.0563 62.3555C79.0367 59.9043 81.0289 58.1758 83.7047 58.1758C86.3902 58.1758 88.3531 59.9043 88.3727 62.3555C88.3531 64.8262 86.3902 66.5352 83.7047 66.5352C81.0289 66.5352 79.0367 64.8262 79.0563 62.3555ZM80.8727 62.3555C80.8531 63.9277 82.0641 64.9727 83.7047 64.9531C85.3453 64.9727 86.5465 63.9277 86.5563 62.3555C86.5465 60.793 85.3453 59.7676 83.7047 59.7578C82.0641 59.7676 80.8531 60.793 80.8727 62.3555ZM80.9703 69.8164V68.3125H92.5328V74.6602H90.6773V69.8164H80.9703ZM99.3984 67.4141V69.4453H102.133V67.4141H103.852V74.4453H97.6602V67.4141H99.3984ZM95.9219 61.9453C95.9121 59.5527 97.8359 57.9023 100.512 57.9023C102.816 57.9023 104.604 59.2012 104.984 61.1641H108.402V57.1602H110.258V66.4375H108.402V62.6875H104.994C104.633 64.6895 102.836 66.0176 100.512 66.0078C97.8359 66.0176 95.9121 64.3574 95.9219 61.9453ZM97.6992 61.9453C97.6895 63.459 98.8613 64.4941 100.512 64.5039C102.133 64.4941 103.285 63.459 103.285 61.9453C103.285 60.4512 102.133 59.4355 100.512 59.4453C98.8613 59.4355 97.6895 60.4512 97.6992 61.9453ZM99.3984 73H102.133V70.8516H99.3984V73ZM103.949 73.1758C106.059 72.3066 107.094 70.4707 107.094 68.7227V67.2969H108.93V68.7227C108.92 70.5586 109.955 72.4141 112.113 73.1758L111.156 74.582C109.574 73.9766 108.549 72.834 107.992 71.4473C107.416 72.7949 106.391 73.957 104.887 74.582L103.949 73.1758ZM127.045 57.1602V74.6992H125.19V57.1602H127.045ZM113.159 64.6016C113.159 60.8613 115.043 58.4785 117.69 58.4688C120.287 58.4785 122.202 60.8613 122.202 64.6016C122.202 68.3809 120.287 70.7637 117.69 70.7539C115.043 70.7637 113.159 68.3809 113.159 64.6016ZM114.955 64.6016C114.946 67.3848 116.059 69.0938 117.69 69.0938C119.291 69.0938 120.405 67.3848 120.405 64.6016C120.405 61.8574 119.291 60.1387 117.69 60.1289C116.059 60.1387 114.946 61.8574 114.955 64.6016ZM39.6602 99.9297V101.473H23.6445V99.9297H30.6953V95.8867H25.4805V87.5664H37.7461V95.8867H32.5312V99.9297H39.6602ZM27.2773 94.4219H35.9297V89.0508H27.2773V94.4219ZM54.5531 92.6055V94.0703H42.6781V87.1562H54.3383V88.6602H44.5531V92.6055H54.5531ZM40.5102 97.7031V96.1992H56.5258V97.7031H49.3773V103.621H47.5609V97.7031H40.5102ZM71.0477 86.1602V93.1328H73.7625V94.6758H71.0477V103.641H69.1922V86.1602H71.0477ZM57.4344 98.9727C61.8191 96.7852 64.202 93.6211 64.5828 89.5391H58.3133V87.9961H66.4773C66.4578 93.0547 64.2313 97.5762 58.4695 100.418L57.4344 98.9727ZM87.65 87.7031V95.8672H79.4664V87.7031H87.65ZM81.2828 94.4023H85.8336V89.207H81.2828V94.4023ZM81.4391 103.289V97.7422H83.2945V101.785H93.275V103.289H81.4391ZM90.6773 98.9727V86.1406H92.5328V91.375H95.0719V92.9375H92.5328V98.9727H90.6773ZM112.016 93.0352V94.5586H109.301V103.641H107.445V86.1602H109.301V93.0352H112.016ZM96.332 99.2461V87.8594H98.168V97.7031C100.609 97.6934 103.158 97.4883 105.941 96.9219L106.156 98.4844C103.158 99.0801 100.404 99.2559 97.7773 99.2461H96.332ZM128.569 99.9297V101.473H112.553V99.9297H116.381V95.3594C114.946 94.5684 114.067 93.3184 114.077 91.7461C114.067 88.9922 116.772 87.1855 120.522 87.1758C124.282 87.1855 126.987 88.9922 126.987 91.7461C126.987 93.2891 126.147 94.5293 124.741 95.3203V99.9297H128.569ZM115.873 91.7461C115.873 93.6211 117.778 94.8418 120.522 94.8516C123.246 94.8418 125.18 93.6211 125.19 91.7461C125.18 89.8613 123.246 88.6602 120.522 88.6602C117.778 88.6602 115.873 89.8613 115.873 91.7461ZM118.217 99.9297H122.866V96.043C122.153 96.209 121.362 96.2969 120.522 96.2969C119.702 96.2969 118.92 96.209 118.217 96.043V99.9297Z" fill="white"/>
<mask id="mask1_5367_2380" style="mask-type:alpha" maskUnits="userSpaceOnUse" x="170" y="-32" width="292" height="220">
<rect x="-0.6" y="0.6" width="290.8" height="218.8" rx="3.20368" transform="matrix(-1 0 0 1 385.8 -32)" fill="url(#paint2_linear_5367_2380)" stroke="#191919" stroke-width="1.2"/>
</mask>
<g mask="url(#mask1_5367_2380)">
<path fill-rule="evenodd" clip-rule="evenodd" d="M334.259 34.9319C332.273 34.9375 330.665 36.5516 330.667 38.5383L330.86 156.842C330.865 158.83 332.478 160.439 334.463 160.437L456.627 160.224C458.612 160.222 460.221 158.604 460.219 156.618L460.096 80.0855L469.094 76.4146C469.432 76.275 469.653 75.9471 469.653 75.5796L469.608 48.133C469.608 47.7655 469.386 47.4353 469.046 47.2998L460.034 43.6605L460.025 38.3174C460.024 36.3307 458.408 34.7212 456.422 34.723L334.259 34.9319Z" fill="#191919" stroke="#191919" stroke-width="1.2" stroke-miterlimit="10"/>
</g>
<path d="M199.189 79.0548C199.19 78.4188 198.546 77.982 197.951 78.2239L188.639 81.9807C188.298 82.1163 188.076 82.4458 188.075 82.8122L187.994 110.177C187.993 110.543 188.214 110.87 188.552 111.008L197.841 114.769C198.433 115.007 199.08 114.574 199.084 113.937L199.189 79.0548Z" fill="#191919"/>
<path fill-rule="evenodd" clip-rule="evenodd" d="M323.763 35.0941C325.749 35.1015 327.358 36.7279 327.358 38.7279L327.27 157.826C327.266 159.827 325.655 161.445 323.669 161.442L201.494 161.119C199.509 161.116 197.899 159.485 197.898 157.485L197.954 80.4394L188.952 76.7358C188.614 76.5951 188.392 76.2648 188.392 75.8948L188.413 48.264C188.413 47.894 188.634 47.5618 188.975 47.4257L197.984 43.7699L197.988 38.3909C197.987 36.3909 199.603 34.7721 201.588 34.7756L323.763 35.0941Z" fill="#F5F5F5" stroke="#191919" stroke-width="1.2" stroke-miterlimit="10"/>
<path d="M318.848 67.5457C316.952 67.919 315.113 66.6839 314.742 64.7869C314.37 62.8899 315.607 61.0494 317.503 60.6761C319.4 60.3027 321.239 61.5378 321.61 63.4348C321.981 65.3318 320.745 67.1723 318.848 67.5457Z" fill="#191919"/>
<path d="M318.17 106.55C316.237 106.547 314.672 104.977 314.676 103.044C314.679 101.111 316.249 99.5469 318.182 99.5502C320.115 99.5535 321.679 101.123 321.676 103.056C321.672 104.989 320.103 106.554 318.17 106.55Z" fill="#191919"/>
<path d="M317.826 144.533C315.903 144.338 314.5 142.622 314.693 140.699C314.887 138.775 316.602 137.374 318.526 137.568C320.449 137.762 321.851 139.479 321.658 141.402C321.465 143.325 319.749 144.727 317.826 144.533Z" fill="#191919"/>
<path d="M336.911 67.5457C335.014 67.919 333.176 66.6839 332.804 64.7869C332.433 62.8899 333.669 61.0494 335.566 60.6761C337.463 60.3027 339.301 61.5378 339.672 63.4348C340.044 65.3318 338.807 67.1723 336.911 67.5457Z" fill="#191919"/>
<path d="M336.488 105.994C334.555 105.991 332.991 104.421 332.994 102.488C332.997 100.555 334.567 98.9907 336.5 98.994C338.433 98.9973 339.997 100.567 339.994 102.5C339.991 104.433 338.421 105.997 336.488 105.994Z" fill="#191919"/>
<path d="M335.818 144.613C333.895 144.419 332.492 142.702 332.686 140.779C332.879 138.856 334.595 137.454 336.518 137.648C338.441 137.843 339.843 139.559 339.65 141.482C339.457 143.406 337.741 144.807 335.818 144.613Z" fill="#191919"/>
<path d="M335.855 61.7672L318.112 61.7632C316.843 61.763 315.812 62.786 315.812 64.0487C315.808 65.3121 316.832 66.3362 318.1 66.3325L335.839 66.3373C337.108 66.3375 338.14 65.3145 338.14 64.0518C338.144 62.7884 337.12 61.7683 335.855 61.7672Z" fill="white" stroke="black" stroke-width="1.2" stroke-miterlimit="10"/>
<path d="M335.851 138.768L318.112 138.763C316.843 138.763 315.812 139.786 315.812 141.049C315.808 142.312 316.832 143.336 318.1 143.333L335.839 143.337C337.108 143.337 338.14 142.314 338.14 141.052C338.144 139.788 337.12 138.768 335.851 138.768Z" fill="white" stroke="black" stroke-width="1.2" stroke-miterlimit="10"/>
<path d="M335.851 100.766L318.112 100.763C316.843 100.763 315.812 101.786 315.811 103.048C315.807 104.311 316.832 105.334 318.1 105.33L335.839 105.337C337.108 105.337 338.14 104.315 338.14 103.053C338.144 101.79 337.12 100.766 335.851 100.766Z" fill="white" stroke="black" stroke-width="1.2" stroke-miterlimit="10"/>
<path d="M302.028 48.2411C301.897 46.9616 300.756 46.0315 299.476 46.1625L264.316 49.7629C263.036 49.8939 262.106 51.0362 262.236 52.3157L265.816 87.4785C265.946 88.758 267.088 89.6881 268.368 89.5571L290.53 87.2877L304.285 70.4061L302.028 48.2411Z" fill="#85CEAF" stroke="black" stroke-width="0.938241" stroke-miterlimit="10"/>
<path d="M304.33 70.2589L291.139 71.6096C289.84 71.7426 288.896 72.902 289.028 74.2006L290.371 87.3922L304.33 70.2589Z" fill="#333333" stroke="black" stroke-width="0.938241" stroke-miterlimit="10" stroke-linecap="square" stroke-linejoin="bevel"/>
<path opacity="0.6" d="M277.366 65.0706C277.48 66.265 278.202 67.4084 279.287 67.8013L278.851 68.5106C278.09 68.2189 277.497 67.5664 277.126 66.7456C276.927 67.6845 276.456 68.4944 275.731 68.9571L275.161 68.3507C276.185 67.7307 276.668 66.3892 276.546 65.1546L276.437 64.0903L277.258 64.0063L277.366 65.0706ZM279.908 69.9407L279.228 63.2594L280.048 63.1754L280.315 65.7918L281.342 65.6866L281.413 66.3887L280.386 66.4939L280.728 69.8567L279.908 69.9407ZM286.626 62.5093L286.789 64.1057L287.727 64.0096L287.797 64.6896L286.858 64.7857L287.035 66.5225L286.215 66.6065L285.806 62.5933L286.626 62.5093ZM281.716 64.08L281.65 63.4296L284.702 63.1171L284.898 65.0387L282.673 65.2665L282.745 65.9686C283.874 65.8455 284.654 65.7246 285.547 65.48L285.703 66.1287C284.727 66.4116 283.859 66.5378 282.54 66.6692L281.993 66.7252L281.789 64.7297L284.029 64.5004L283.963 63.85L281.716 64.08ZM282.737 68.389C282.653 67.6023 283.47 67.0407 284.87 66.8936C286.249 66.7562 287.161 67.1406 287.245 67.9274C287.321 68.7112 286.502 69.2506 285.124 69.3917C283.724 69.5351 282.813 69.1728 282.737 68.389ZM283.543 68.3065C283.58 68.706 284.126 68.8703 285.061 68.7709C285.981 68.6804 286.473 68.4097 286.432 68.0106C286.391 67.6078 285.855 67.4424 284.935 67.5366C284 67.6323 283.498 67.9041 283.543 68.3065ZM291.264 63.1023L291.331 63.7601L288.057 64.0953L287.99 63.4376L289.232 63.3104L289.143 62.4383L289.956 62.3551L290.045 63.2272L291.264 63.1023ZM288.444 65.9825C288.344 65.0742 288.895 64.3643 289.741 64.2814C290.591 64.1906 291.263 64.7753 291.355 65.6844C291.45 66.6119 290.91 67.3207 290.06 67.4077C289.214 67.4943 288.531 66.9108 288.444 65.9825ZM289.168 65.9084C289.219 66.4483 289.556 66.7535 289.988 66.7056C290.417 66.6654 290.686 66.298 290.631 65.7585C290.578 65.2338 290.239 64.9174 289.811 64.9613C289.378 65.0056 289.111 65.384 289.168 65.9084ZM292.086 68.3876L291.451 62.1497L292.22 62.071L292.485 64.68L293.136 64.6134L292.856 61.864L293.639 61.7838L294.319 68.4651L293.536 68.5453L293.203 65.2786L292.553 65.3452L292.855 68.3089L292.086 68.3876Z" fill="#2D473C"/>
<path d="M253.583 66.2191C253.708 64.939 252.773 63.8007 251.492 63.6752L216.317 60.2271C215.037 60.1016 213.899 61.0367 213.774 62.3167L210.345 97.4946C210.22 98.7747 211.156 99.9129 212.436 100.038L234.608 102.212L251.422 88.3936L253.583 66.2191Z" fill="#B3CBE8" stroke="black" stroke-width="0.938241" stroke-miterlimit="10"/>
<path opacity="0.6" d="M231.696 73.7366L231.525 75.4964L232.456 75.5876L232.389 76.2753L231.458 76.184L231.28 78.0029L230.46 77.9225L230.875 73.6562L231.696 73.7366ZM226.303 74.5443L226.365 73.9011L227.94 74.0554L228.011 73.3307L228.832 73.4111L228.761 74.1358L230.328 74.2893L230.266 74.9326L226.303 74.5443ZM226.5 76.0417C226.57 75.3245 227.282 74.9127 228.258 75.0047C229.223 75.1029 229.842 75.645 229.776 76.3626C229.702 77.0795 228.991 77.4875 228.026 77.3929C227.05 77.2973 226.43 76.7589 226.5 76.0417ZM226.768 78.8075C226.833 78.0636 227.73 77.7111 229.116 77.8506C230.488 77.9813 231.306 78.5019 231.234 79.245C231.162 79.9807 230.258 80.3363 228.887 80.2019C227.5 80.0661 226.689 79.5424 226.768 78.8075ZM227.299 76.1199C227.26 76.4819 227.579 76.7259 228.086 76.7718C228.592 76.8252 228.957 76.6481 228.992 76.2858C229.028 75.9161 228.706 75.6606 228.199 75.611C227.693 75.5614 227.331 75.7499 227.299 76.1199ZM227.582 78.8871C227.543 79.2417 228.034 79.4913 228.947 79.5808C229.849 79.6692 230.375 79.5191 230.413 79.1646C230.445 78.7982 229.956 78.5674 229.054 78.4791C228.141 78.3896 227.614 78.5208 227.582 78.8871ZM235.23 75.1577C235.148 75.9969 235.614 76.845 236.614 77.2714L236.108 77.8713C235.411 77.5566 234.941 77.0179 234.709 76.3682C234.351 77.0498 233.757 77.5551 232.962 77.7497L232.581 77.0629C233.693 76.7949 234.32 75.9568 234.416 75.0034L234.478 74.3675L235.299 74.4479L235.23 75.1577ZM233.277 79.3481C233.354 78.5569 234.268 78.1725 235.662 78.3128C237.045 78.4445 237.853 78.9977 237.779 79.7892C237.697 80.5985 236.798 80.977 235.415 80.8415C234.021 80.705 233.198 80.1577 233.277 79.3481ZM234.097 79.4285C234.057 79.8426 234.562 80.101 235.479 80.1908C236.392 80.2803 236.926 80.1236 236.966 79.7096C237.004 79.3177 236.512 79.0455 235.599 78.956C234.682 78.8662 234.136 79.0366 234.097 79.4285ZM237.029 78.2974L237.419 74.2973L238.239 74.3777L238.081 76.0044L239.013 76.0956L238.946 76.7759L238.015 76.6846L237.85 78.3778L237.029 78.2974ZM226.965 85.5185L226.902 86.1692L220.81 85.5723L220.873 84.9216L226.965 85.5185ZM221.669 83.2604C221.747 82.4618 222.742 82.0591 224.206 82.2026C225.673 82.3463 226.564 82.9337 226.49 83.7327C226.407 84.542 225.421 84.9343 223.954 84.7905C222.49 84.647 221.59 84.07 221.669 83.2604ZM221.359 87.2907C221.435 86.5069 222.346 86.1595 223.806 86.3063C225.244 86.4435 226.075 86.9615 226.002 87.7456C225.922 88.5253 225.007 88.8761 223.57 88.7315C222.109 88.5921 221.283 88.0708 221.359 87.2907ZM222.527 83.3444C222.478 83.7725 223.04 84.0553 224.016 84.1472C224.992 84.2465 225.598 84.0782 225.64 83.6494C225.681 83.2242 225.119 82.9415 224.143 82.8458C223.167 82.7502 222.561 82.9185 222.527 83.3444ZM222.194 87.3726C222.153 87.753 222.659 88.0041 223.632 88.0956C224.589 88.1931 225.137 88.0453 225.181 87.6652C225.212 87.2726 224.703 87.0212 223.745 86.9274C222.773 86.8321 222.229 86.9803 222.194 87.3726ZM233.329 82.9471L232.836 88.0047L232.008 87.9235L232.065 87.3394L230.757 87.2112L230.813 86.6344L232.121 86.7627L232.501 82.866L233.329 82.9471ZM227.403 85.3971C228.634 85.5103 230.295 85.6619 231.733 85.6198L231.719 86.2157C231.16 86.2541 230.584 86.2575 230.015 86.2428L229.89 87.5293L229.069 87.4489L229.19 86.2067C228.563 86.1714 227.967 86.1168 227.442 86.0653L227.403 85.3971ZM228.066 83.8722C228.135 83.166 228.862 82.7521 229.852 82.8528C230.825 82.9444 231.462 83.492 231.401 84.1989C231.324 84.9154 230.595 85.3031 229.623 85.2115C228.632 85.1108 227.996 84.5894 228.066 83.8722ZM227.945 89.0258L228.137 87.0516L228.958 87.132L228.83 88.4408L232.912 88.8406L232.847 89.5061L227.945 89.0258ZM228.843 83.9482C228.807 84.3105 229.145 84.5564 229.681 84.6126C230.192 84.6589 230.578 84.484 230.617 84.1221C230.649 83.7594 230.304 83.5054 229.793 83.4592C229.258 83.4029 228.878 83.5859 228.843 83.9482ZM237.426 84.4159L237.362 85.074L234.086 84.7531L234.15 84.095L235.392 84.2167L235.477 83.3442L236.291 83.4239L236.206 84.2964L237.426 84.4159ZM234.093 86.6796C234.174 85.7694 234.854 85.1829 235.7 85.2696C236.551 85.3492 237.094 86.0555 237.006 86.965C236.915 87.893 236.246 88.4805 235.396 88.3972C234.549 88.3143 233.995 87.6068 234.093 86.6796ZM234.817 86.7506C234.761 87.29 235.031 87.6561 235.464 87.6948C235.893 87.7405 236.228 87.4338 236.281 86.894C236.332 86.369 236.063 85.9918 235.634 85.9498C235.202 85.9074 234.865 86.2253 234.817 86.7506ZM237.189 89.7598L237.797 83.5192L238.566 83.5945L238.311 86.2046L238.962 86.2684L239.23 83.5178L240.014 83.5946L239.362 90.2788L238.579 90.202L238.897 86.9339L238.246 86.8701L237.958 89.8351L237.189 89.7598ZM242.122 84.4804L241.672 88.2508L240.837 88.169L241.116 84.3819L242.122 84.4804ZM240.579 89.2111C240.605 88.9002 240.893 88.6708 241.211 88.6983C241.517 88.732 241.755 89.0128 241.725 89.3234C241.694 89.6413 241.406 89.8744 241.099 89.8443C240.781 89.8132 240.544 89.5287 240.579 89.2111Z" fill="#416084"/>
<path d="M251.503 88.3005L238.316 87.0078C237.018 86.8806 235.864 87.8289 235.738 89.1271L234.452 102.315L251.503 88.3005Z" fill="#333333" stroke="black" stroke-width="0.938241" stroke-miterlimit="10" stroke-linecap="square" stroke-linejoin="bevel"/>
<path d="M278.798 108.381C278.577 107.114 277.372 106.268 276.105 106.49L241.293 112.598C240.026 112.82 239.179 114.026 239.4 115.293L245.474 150.112C245.695 151.379 246.9 152.225 248.167 152.003L270.11 148.153L282.627 130.329L278.798 108.381Z" fill="#929DD9" stroke="black" stroke-width="0.938241" stroke-miterlimit="10"/>
<path d="M282.551 130.109L269.506 132.398C268.222 132.623 267.363 133.846 267.587 135.13L269.863 148.177L282.551 130.109Z" fill="#333333" stroke="black" stroke-width="0.938241" stroke-miterlimit="10" stroke-linecap="square" stroke-linejoin="bevel"/>
<path opacity="0.6" d="M258.273 128.172L258.387 128.823L255.767 129.283L255.877 129.912L257.757 129.582L258.113 131.624L257.301 131.767L257.059 130.376L253.246 131.045L253.133 130.393L255.072 130.053L254.962 129.424L252.357 129.881L252.244 129.229L258.273 128.172ZM252.373 128.286C253.741 127.937 254.441 127.343 254.434 126.764L252.484 127.106L252.373 126.469L254.385 126.116L254.276 125.486L255.08 125.345L255.19 125.975L257.217 125.619L257.328 126.256L255.36 126.601C255.546 127.149 256.405 127.47 257.817 127.332L257.668 127.991C256.47 128.103 255.532 127.891 255.021 127.385C254.705 128.036 253.894 128.555 252.737 128.856L252.373 128.286ZM263.328 123.906L263.788 126.541L264.805 126.363L264.922 127.036L263.905 127.214L264.482 130.522L263.677 130.664L262.523 124.047L263.328 123.906ZM258.402 126.49L258.288 125.839L259.854 125.564L259.694 124.642L260.506 124.499L260.667 125.422L262.189 125.155L262.302 125.806L258.402 126.49ZM259.057 128.427C258.89 127.513 259.487 126.741 260.453 126.575C261.404 126.405 262.223 126.929 262.386 127.843C262.541 128.755 261.947 129.519 260.996 129.686C260.03 129.855 259.208 129.339 259.057 128.427ZM259.832 128.291C259.922 128.829 260.359 129.107 260.878 129.012C261.387 128.927 261.697 128.518 261.61 127.979C261.509 127.442 261.078 127.152 260.569 127.241C260.05 127.332 259.735 127.753 259.832 128.291ZM268.034 124.167L268.148 124.818L264.906 125.387L264.793 124.736L266.022 124.52L265.871 123.656L266.676 123.515L266.827 124.379L268.034 124.167ZM265.426 127.242C265.262 126.343 265.761 125.595 266.599 125.452C267.44 125.301 268.152 125.836 268.309 126.736C268.469 127.655 267.981 128.4 267.139 128.548C266.301 128.695 265.579 128.162 265.426 127.242ZM266.143 127.116C266.232 127.651 266.591 127.931 267.018 127.853C267.443 127.782 267.685 127.396 267.592 126.862C267.501 126.342 267.141 126.051 266.717 126.125C266.289 126.2 266.049 126.597 266.143 127.116ZM269.23 129.38L268.153 123.203L268.914 123.07L269.364 125.653L270.008 125.541L269.534 122.818L270.309 122.682L271.463 129.298L270.687 129.434L270.123 126.199L269.479 126.312L269.991 129.247L269.23 129.38ZM272.577 122.971L273.148 126.725L272.321 126.87L271.581 123.145L272.577 122.971ZM272.35 127.943C272.293 127.636 272.509 127.338 272.823 127.28C273.127 127.23 273.431 127.437 273.484 127.744C273.539 128.059 273.324 128.361 273.021 128.414C272.706 128.469 272.402 128.258 272.35 127.943Z" fill="#434866"/>
</g>
<defs>
<linearGradient id="paint0_linear_5367_2380" x1="188" y1="-38.6573" x2="188" y2="367.586" gradientUnits="userSpaceOnUse">
<stop stop-color="#FA6030"/>
<stop offset="1" stop-color="white"/>
</linearGradient>
<linearGradient id="paint1_linear_5367_2380" x1="176.5" y1="-32.3382" x2="176.5" y2="540.178" gradientUnits="userSpaceOnUse">
<stop stop-color="#5268DC"/>
<stop offset="1" stop-color="white"/>
</linearGradient>
<linearGradient id="paint2_linear_5367_2380" x1="108.5" y1="-5.0849" x2="108.5" y2="306.667" gradientUnits="userSpaceOnUse">
<stop stop-color="#F28A8A"/>
<stop offset="1" stop-color="white"/>
</linearGradient>
<clipPath id="clip0_5367_2380">
<rect width="450" height="200" fill="white"/>
</clipPath>
</defs>
</svg>
