<svg width="95" height="88" viewBox="0 0 95 88" fill="none" xmlns="http://www.w3.org/2000/svg">
<mask id="path-1-outside-1_5360_4177" maskUnits="userSpaceOnUse" x="-0.0337804" y="-0.133091" width="96.2983" height="89.5285" fill="black">
<rect fill="white" x="-0.0337804" y="-0.133091" width="96.2983" height="89.5285"/>
<path fill-rule="evenodd" clip-rule="evenodd" d="M14.6459 1.38347C13.1846 1.17168 11.8283 2.18461 11.6165 3.64591L1.48278 73.5683C1.27099 75.0296 2.28392 76.3859 3.74522 76.5977L74.6572 86.8748C76.1185 87.0866 77.4748 86.0737 77.6866 84.6124L84.3545 38.6044C84.4312 38.6237 84.5141 38.6261 84.5987 38.6076L90.7874 37.2539C91.0051 37.2063 91.1704 37.0287 91.2024 36.8082L93.4974 20.9723C93.5294 20.7518 93.4213 20.5346 93.2261 20.4272L87.6763 17.3723C87.6004 17.3305 87.5203 17.3093 87.4413 17.306L87.8204 14.69C88.0322 13.2287 87.0192 11.8724 85.5579 11.6607L14.6459 1.38347Z"/>
</mask>
<path fill-rule="evenodd" clip-rule="evenodd" d="M14.6459 1.38347C13.1846 1.17168 11.8283 2.18461 11.6165 3.64591L1.48278 73.5683C1.27099 75.0296 2.28392 76.3859 3.74522 76.5977L74.6572 86.8748C76.1185 87.0866 77.4748 86.0737 77.6866 84.6124L84.3545 38.6044C84.4312 38.6237 84.5141 38.6261 84.5987 38.6076L90.7874 37.2539C91.0051 37.2063 91.1704 37.0287 91.2024 36.8082L93.4974 20.9723C93.5294 20.7518 93.4213 20.5346 93.2261 20.4272L87.6763 17.3723C87.6004 17.3305 87.5203 17.3093 87.4413 17.306L87.8204 14.69C88.0322 13.2287 87.0192 11.8724 85.5579 11.6607L14.6459 1.38347Z" fill="#191919"/>
<path d="M14.6459 1.38347L14.7652 0.560392L14.6459 1.38347ZM84.3545 38.6044L84.557 37.7978L83.6636 37.5735L83.5314 38.4851L84.3545 38.6044ZM84.5987 38.6076L84.421 37.7951L84.421 37.7951L84.5987 38.6076ZM90.7874 37.2539L90.9651 38.0664L90.9651 38.0664L90.7874 37.2539ZM91.2024 36.8082L92.0254 36.9275L91.2024 36.8082ZM93.4974 20.9723L92.6744 20.853L93.4974 20.9723ZM93.2261 20.4272L92.825 21.1558L92.825 21.1558L93.2261 20.4272ZM87.6763 17.3723L87.2752 18.1009L87.2753 18.1009L87.6763 17.3723ZM87.4413 17.306L86.6182 17.1867L86.4861 18.0983L87.4064 18.1369L87.4413 17.306ZM85.5579 11.6607L85.4387 12.4837L85.5579 11.6607ZM12.4396 3.7652C12.5855 2.75848 13.5199 2.06064 14.5266 2.20655L14.7652 0.560392C12.8493 0.282727 11.0711 1.61075 10.7935 3.52662L12.4396 3.7652ZM2.30586 73.6876L12.4396 3.7652L10.7935 3.52662L0.659702 73.449L2.30586 73.6876ZM3.86451 75.7746C2.85779 75.6287 2.15995 74.6943 2.30586 73.6876L0.659702 73.449C0.382037 75.3649 1.71006 77.1431 3.62593 77.4207L3.86451 75.7746ZM74.7765 86.0518L3.86451 75.7746L3.62593 77.4207L74.538 87.6979L74.7765 86.0518ZM76.8636 84.4931C76.7177 85.4998 75.7833 86.1977 74.7765 86.0518L74.538 87.6979C76.4538 87.9756 78.232 86.6476 78.5097 84.7317L76.8636 84.4931ZM83.5314 38.4851L76.8636 84.4931L78.5097 84.7317L85.1776 38.7237L83.5314 38.4851ZM84.421 37.7951C84.4638 37.7857 84.5111 37.7862 84.557 37.7978L84.152 39.4111C84.3513 39.4611 84.5643 39.4664 84.7764 39.42L84.421 37.7951ZM90.6097 36.4414L84.421 37.7951L84.7764 39.42L90.9651 38.0664L90.6097 36.4414ZM90.3793 36.689C90.397 36.5665 90.4888 36.4679 90.6097 36.4414L90.9651 38.0664C91.5213 37.9447 91.9438 37.491 92.0254 36.9275L90.3793 36.689ZM92.6744 20.853L90.3793 36.689L92.0254 36.9275L94.3205 21.0916L92.6744 20.853ZM92.825 21.1558C92.7167 21.0961 92.6566 20.9755 92.6744 20.853L94.3205 21.0916C94.4022 20.5282 94.1259 19.9731 93.6271 19.6986L92.825 21.1558ZM87.2753 18.1009L92.825 21.1558L93.6271 19.6986L88.0774 16.6437L87.2753 18.1009ZM87.4064 18.1369C87.3591 18.135 87.3137 18.122 87.2752 18.1009L88.0774 16.6437C87.8872 16.539 87.6814 16.4837 87.4761 16.475L87.4064 18.1369ZM86.9973 14.5707L86.6182 17.1867L88.2643 17.4253L88.6435 14.8093L86.9973 14.5707ZM85.4387 12.4837C86.4454 12.6296 87.1432 13.564 86.9973 14.5707L88.6435 14.8093C88.9211 12.8935 87.5931 11.1152 85.6772 10.8376L85.4387 12.4837ZM14.5266 2.20655L85.4387 12.4837L85.6772 10.8376L14.7652 0.560392L14.5266 2.20655Z" fill="black" mask="url(#path-1-outside-1_5360_4177)"/>
<rect x="51" y="18" width="29" height="23" rx="1.9" transform="rotate(8.24638 51 18)" fill="white"/>
<rect x="18" y="35" width="25" height="23" rx="1.9" transform="rotate(8.24638 18 35)" fill="white"/>
<g filter="url(#filter0_d_5360_4177)">
<path d="M35.1437 35.4347C35.1724 36.011 35.0288 36.5478 34.7876 37.0623C34.5347 37.6018 34.1902 38.079 33.8119 38.5313C33.2243 39.2336 32.603 39.9047 31.9475 40.5419C31.5059 40.971 31.0279 41.3556 30.5282 41.7132C30.474 41.752 30.4377 41.7324 30.3924 41.7069C29.5682 41.2412 28.8097 40.681 28.0976 40.0543C27.5943 39.6117 27.0825 39.1786 26.6182 38.6924C26.446 38.5123 26.2829 38.3231 26.122 38.1325C25.8075 37.76 25.554 37.349 25.3684 36.8951C24.863 35.6589 25.27 34.194 26.3385 33.417C26.9813 32.949 27.6986 32.7716 28.4826 32.8882C29.045 32.9717 29.5405 33.2134 29.9692 33.5944C30.0413 33.6585 30.0414 33.6591 30.1033 33.5909C30.5244 33.1294 31.0398 32.8352 31.6453 32.7015C32.8654 32.4318 34.1855 33.0491 34.782 34.1684C34.9995 34.5763 35.1227 35.0067 35.1437 35.4347Z" fill="#FF3C48"/>
<path d="M34.1999 38.8558L34.1998 38.8559C33.6014 39.5711 32.9684 40.255 32.3002 40.9045L32.3001 40.9045C31.8363 41.3552 31.3378 41.7558 30.823 42.1242L30.8228 42.1243C30.7091 42.2056 30.5568 42.2597 30.3831 42.2336C30.2596 42.215 30.1609 42.1561 30.1465 42.1474C30.1457 42.147 30.1452 42.1466 30.1449 42.1465L30.1448 42.1464C29.2848 41.6605 28.4979 41.0786 27.7643 40.433M34.1999 38.8558L27.7643 40.433M34.1999 38.8558C34.5921 38.3868 34.9666 37.872 35.2452 37.2777M34.1999 38.8558L35.2452 37.2777M27.7643 40.433C27.6903 40.3679 27.6153 40.3024 27.5397 40.2363C27.1122 39.8626 26.6646 39.4713 26.2535 39.0409M27.7643 40.433L26.2535 39.0409M26.2535 39.0409C26.07 38.8491 25.8986 38.6499 25.7363 38.4576M26.2535 39.0409L25.7363 38.4576M25.7363 38.4576L25.7363 38.4576C25.3893 38.0467 25.1075 37.5904 24.9008 37.0851L24.9008 37.0851C24.3089 35.6373 24.7813 33.9242 26.0404 33.0085L25.7363 38.4576ZM30.0056 32.9783C29.5772 32.6709 29.0926 32.4684 28.5556 32.3886L30.0056 32.9783ZM30.0056 32.9783C30.443 32.5925 30.9561 32.3362 31.535 32.2083L30.0056 32.9783ZM35.6483 35.4113C35.6821 36.0909 35.5111 36.7104 35.2452 37.2777C35.2452 37.2777 35.2452 37.2777 35.2452 37.2777M35.6483 35.4113L35.2452 37.2777M35.6483 35.4113C35.6233 34.9029 35.4775 34.4001 35.2276 33.9317M35.6483 35.4113L35.2276 33.9317M35.2276 33.9317C34.5262 32.6158 32.9809 31.8887 31.535 32.2083L35.2276 33.9317ZM30.3032 33.2186C30.304 33.2192 30.3047 33.2198 30.3053 33.2202C30.3057 33.2204 30.306 33.2206 30.3062 33.2208C30.3145 33.2268 30.3211 33.2323 30.3212 33.2323C30.3212 33.2322 30.3166 33.2283 30.3043 33.2174C30.3042 33.2173 30.3041 33.2173 30.3041 33.2172L30.3029 33.2185C30.2816 33.2032 30.1796 33.134 30.0275 33.1373C29.8572 33.1411 29.7526 33.2318 29.7348 33.2473L29.7347 33.2473C29.7333 33.2485 29.732 33.2497 29.7307 33.2509C29.7304 33.2512 29.7301 33.2514 29.7298 33.2517C29.7214 33.2593 29.7154 33.2655 29.7154 33.2655C29.7154 33.2655 29.7192 33.2614 29.7288 33.2508L30.3032 33.2186ZM28.5555 32.3886C27.6395 32.2524 26.7893 32.4633 26.0406 33.0083L28.5555 32.3886Z" stroke="white" stroke-width="1.01025"/>
</g>
<g filter="url(#filter1_d_5360_4177)">
<path d="M68.346 15.2378C69.0413 14.9646 69.7735 15.5383 69.6687 16.2742L69.286 18.9599C69.2475 19.2294 69.3248 19.5025 69.4989 19.7123L71.2336 21.8027C71.7089 22.3755 71.3855 23.246 70.6494 23.3751L67.9629 23.8466C67.6933 23.8939 67.4559 24.0517 67.3088 24.2815L65.8433 26.5706C65.4417 27.1978 64.5096 27.1621 64.1596 26.5061L62.882 24.1118C62.7537 23.8714 62.5298 23.6959 62.2647 23.6281L59.6243 22.9525C58.9009 22.7674 58.6482 21.8748 59.1679 21.3401L61.0648 19.3889C61.2552 19.1931 61.3541 18.9268 61.3374 18.6551L61.1711 15.9484C61.1255 15.2068 61.9015 14.6909 62.5727 15.0165L65.0227 16.2049C65.2686 16.3242 65.5537 16.3351 65.8084 16.235L68.346 15.2378Z" fill="#FFD568"/>
<path d="M60.7291 18.6929L61.3374 18.6551L60.7291 18.6929C60.7354 18.7948 60.6983 18.8946 60.6269 18.9681L58.7301 20.9193C57.8855 21.788 58.2961 23.2385 59.4717 23.5393L62.1121 24.215C62.2115 24.2404 62.2955 24.3062 62.3436 24.3963L63.6212 26.7906C64.19 27.8567 65.7047 27.9148 66.3572 26.8955L67.8228 24.6064C67.8779 24.5202 67.9669 24.4611 68.0681 24.4433L70.7545 23.9719C71.9506 23.762 72.4762 22.3474 71.7038 21.4167L69.9692 19.3262C69.9039 19.2476 69.8749 19.1452 69.8893 19.0441L70.272 16.3584C70.4424 15.1626 69.2526 14.2303 68.1227 14.6743L65.5851 15.6715C65.4896 15.709 65.3827 15.7049 65.2904 15.6602L62.8405 14.4718C61.7497 13.9427 60.4888 14.7811 60.5628 15.9862L60.7291 18.6929Z" stroke="white" stroke-width="1.21536"/>
</g>
<g filter="url(#filter2_d_5360_4177)">
<path d="M66.8489 69.3364L68.6331 66.9797C68.8447 66.7 68.5946 66.272 68.2241 66.279L65.4808 66.332C64.9993 65.7635 64.4061 65.2622 63.709 64.8689C62.952 64.4417 62.1512 64.1844 61.3534 64.0821L59.9061 61.5853C59.7198 61.2642 59.2251 61.272 59.0966 61.5984L57.9133 64.6059L58.0363 64.6044C57.114 65.0534 56.3293 65.7582 55.805 66.6923C54.3256 69.3281 55.4658 72.7843 58.352 74.413C61.2383 76.0416 64.7765 75.2254 66.256 72.5895C66.8246 71.5765 67.005 70.4417 66.8489 69.3364Z" fill="black"/>
<path d="M58.5317 61.3748L57.3987 64.2546C56.5323 64.7546 55.792 65.4739 55.2758 66.3937C53.6069 69.367 54.923 73.1758 58.0546 74.9429C61.1862 76.71 65.1163 75.8615 66.7852 72.8882C67.3792 71.8299 67.5935 70.6562 67.4808 69.5088L69.1169 67.3476L69.117 67.3475C69.4008 66.9725 69.3502 66.5225 69.1708 66.2152C68.9918 65.9087 68.6444 65.6627 68.212 65.6708L68.2117 65.6708L65.7489 65.7184C65.2595 65.187 64.6766 64.7171 64.0064 64.3389C63.2753 63.9264 62.5052 63.6582 61.7317 63.5242L60.431 61.2803L60.4309 61.2801C60.2134 60.9053 59.8234 60.7352 59.4693 60.7408C59.1141 60.7465 58.7043 60.9367 58.5318 61.3746L58.5317 61.3748Z" stroke="white" stroke-width="1.21536"/>
</g>
<circle cx="59.2693" cy="67.6996" r="1.5" transform="rotate(8.24638 59.2693 67.6996)" fill="white"/>
<circle cx="59.2693" cy="67.6996" r="1" transform="rotate(8.24638 59.2693 67.6996)" fill="black"/>
<circle cx="63.7493" cy="69.786" r="1.5" transform="rotate(8.24638 63.7493 69.786)" fill="white"/>
<path d="M64.739 69.9294C64.6598 70.476 64.1525 70.8549 63.6059 70.7757C63.0593 70.6964 62.6804 70.1891 62.7596 69.6426C62.8389 69.096 63.3462 68.7171 63.8927 68.7963C64.4393 68.8756 64.8182 69.3829 64.739 69.9294Z" fill="black"/>
<defs>
<filter id="filter0_d_5360_4177" x="20.1016" y="27.5873" width="20.0971" height="19.1991" filterUnits="userSpaceOnUse" color-interpolation-filters="sRGB">
<feFlood flood-opacity="0" result="BackgroundImageFix"/>
<feColorMatrix in="SourceAlpha" type="matrix" values="0 0 0 0 0 0 0 0 0 0 0 0 0 0 0 0 0 0 127 0" result="hardAlpha"/>
<feOffset/>
<feGaussianBlur stdDeviation="2.02049"/>
<feComposite in2="hardAlpha" operator="out"/>
<feColorMatrix type="matrix" values="0 0 0 0 0 0 0 0 0 0 0 0 0 0 0 0 0 0 0.16 0"/>
<feBlend mode="normal" in2="BackgroundImageFix" result="effect1_dropShadow_5360_4177"/>
<feBlend mode="normal" in="SourceGraphic" in2="effect1_dropShadow_5360_4177" result="shape"/>
</filter>
<filter id="filter1_d_5360_4177" x="52.8119" y="8.84182" width="24.7268" height="24.2518" filterUnits="userSpaceOnUse" color-interpolation-filters="sRGB">
<feFlood flood-opacity="0" result="BackgroundImageFix"/>
<feColorMatrix in="SourceAlpha" type="matrix" values="0 0 0 0 0 0 0 0 0 0 0 0 0 0 0 0 0 0 127 0" result="hardAlpha"/>
<feOffset/>
<feGaussianBlur stdDeviation="2.43071"/>
<feComposite in2="hardAlpha" operator="out"/>
<feColorMatrix type="matrix" values="0 0 0 0 0 0 0 0 0 0 0 0 0 0 0 0 0 0 0.16 0"/>
<feBlend mode="normal" in2="BackgroundImageFix" result="effect1_dropShadow_5360_4177"/>
<feBlend mode="normal" in="SourceGraphic" in2="effect1_dropShadow_5360_4177" result="shape"/>
</filter>
<filter id="filter2_d_5360_4177" x="49.0775" y="55.271" width="25.7084" height="26.0554" filterUnits="userSpaceOnUse" color-interpolation-filters="sRGB">
<feFlood flood-opacity="0" result="BackgroundImageFix"/>
<feColorMatrix in="SourceAlpha" type="matrix" values="0 0 0 0 0 0 0 0 0 0 0 0 0 0 0 0 0 0 127 0" result="hardAlpha"/>
<feOffset/>
<feGaussianBlur stdDeviation="2.43071"/>
<feComposite in2="hardAlpha" operator="out"/>
<feColorMatrix type="matrix" values="0 0 0 0 0 0 0 0 0 0 0 0 0 0 0 0 0 0 0.16 0"/>
<feBlend mode="normal" in2="BackgroundImageFix" result="effect1_dropShadow_5360_4177"/>
<feBlend mode="normal" in="SourceGraphic" in2="effect1_dropShadow_5360_4177" result="shape"/>
</filter>
</defs>
</svg>
