<svg width="105" height="23" viewBox="0 0 105 23" fill="none" xmlns="http://www.w3.org/2000/svg">
<path d="M2.49641 17V5.8H4.09641V15.608H10.1604V17H2.49641ZM15.439 17.096C14.5324 17.096 13.7324 16.9093 13.039 16.536C12.3564 16.1627 11.823 15.6507 11.439 15C11.0657 14.3493 10.879 13.6027 10.879 12.76C10.879 11.9173 11.0604 11.1707 11.423 10.52C11.7964 9.86933 12.303 9.36267 12.943 9C13.5937 8.62667 14.3244 8.44 15.135 8.44C15.9564 8.44 16.6817 8.62133 17.311 8.984C17.9404 9.34667 18.431 9.85867 18.783 10.52C19.1457 11.1707 19.327 11.9333 19.327 12.808C19.327 12.872 19.3217 12.9467 19.311 13.032C19.311 13.1173 19.3057 13.1973 19.295 13.272H12.079V12.168H18.495L17.871 12.552C17.8817 12.008 17.7697 11.5227 17.535 11.096C17.3004 10.6693 16.975 10.3387 16.559 10.104C16.1537 9.85867 15.679 9.736 15.135 9.736C14.6017 9.736 14.127 9.85867 13.711 10.104C13.295 10.3387 12.9697 10.6747 12.735 11.112C12.5004 11.5387 12.383 12.0293 12.383 12.584V12.84C12.383 13.4053 12.511 13.912 12.767 14.36C13.0337 14.7973 13.4017 15.1387 13.871 15.384C14.3404 15.6293 14.879 15.752 15.487 15.752C15.9884 15.752 16.4417 15.6667 16.847 15.496C17.263 15.3253 17.6257 15.0693 17.935 14.728L18.783 15.72C18.399 16.168 17.919 16.5093 17.343 16.744C16.7777 16.9787 16.143 17.096 15.439 17.096ZM25.1559 17.096C24.2919 17.096 23.5186 16.9093 22.8359 16.536C22.1639 16.1627 21.6359 15.6507 21.2519 15C20.8679 14.3493 20.6759 13.6027 20.6759 12.76C20.6759 11.9173 20.8679 11.1707 21.2519 10.52C21.6359 9.86933 22.1639 9.36267 22.8359 9C23.5186 8.62667 24.2919 8.44 25.1559 8.44C25.9239 8.44 26.6066 8.59467 27.2039 8.904C27.8119 9.20267 28.2812 9.65067 28.6119 10.248L27.4439 11C27.1666 10.584 26.8252 10.28 26.4199 10.088C26.0252 9.88533 25.5986 9.784 25.1399 9.784C24.5852 9.784 24.0892 9.90667 23.6519 10.152C23.2146 10.3973 22.8679 10.744 22.6119 11.192C22.3559 11.6293 22.2279 12.152 22.2279 12.76C22.2279 13.368 22.3559 13.896 22.6119 14.344C22.8679 14.792 23.2146 15.1387 23.6519 15.384C24.0892 15.6293 24.5852 15.752 25.1399 15.752C25.5986 15.752 26.0252 15.656 26.4199 15.464C26.8252 15.2613 27.1666 14.952 27.4439 14.536L28.6119 15.272C28.2812 15.8587 27.8119 16.312 27.2039 16.632C26.6066 16.9413 25.9239 17.096 25.1559 17.096ZM34.1685 17.096C33.4432 17.096 32.8032 16.9627 32.2485 16.696C31.7045 16.4293 31.2779 16.024 30.9685 15.48C30.6699 14.9253 30.5205 14.232 30.5205 13.4V8.52H32.0565V13.224C32.0565 14.056 32.2539 14.68 32.6485 15.096C33.0539 15.512 33.6192 15.72 34.3445 15.72C34.8779 15.72 35.3419 15.6133 35.7365 15.4C36.1312 15.176 36.4352 14.856 36.6485 14.44C36.8619 14.0133 36.9685 13.5013 36.9685 12.904V8.52H38.5045V17H37.0485V14.712L37.2885 15.32C37.0112 15.8853 36.5952 16.3227 36.0405 16.632C35.4859 16.9413 34.8619 17.096 34.1685 17.096ZM45.2047 17.096C44.298 17.096 43.498 16.9093 42.8047 16.536C42.122 16.1627 41.5887 15.6507 41.2047 15C40.8313 14.3493 40.6447 13.6027 40.6447 12.76C40.6447 11.9173 40.826 11.1707 41.1887 10.52C41.562 9.86933 42.0687 9.36267 42.7087 9C43.3593 8.62667 44.09 8.44 44.9007 8.44C45.722 8.44 46.4473 8.62133 47.0767 8.984C47.706 9.34667 48.1967 9.85867 48.5487 10.52C48.9113 11.1707 49.0927 11.9333 49.0927 12.808C49.0927 12.872 49.0873 12.9467 49.0767 13.032C49.0767 13.1173 49.0713 13.1973 49.0607 13.272H41.8447V12.168H48.2607L47.6367 12.552C47.6473 12.008 47.5353 11.5227 47.3007 11.096C47.066 10.6693 46.7407 10.3387 46.3247 10.104C45.9193 9.85867 45.4447 9.736 44.9007 9.736C44.3673 9.736 43.8927 9.85867 43.4767 10.104C43.0607 10.3387 42.7353 10.6747 42.5007 11.112C42.266 11.5387 42.1487 12.0293 42.1487 12.584V12.84C42.1487 13.4053 42.2767 13.912 42.5327 14.36C42.7993 14.7973 43.1673 15.1387 43.6367 15.384C44.106 15.6293 44.6447 15.752 45.2527 15.752C45.754 15.752 46.2073 15.6667 46.6127 15.496C47.0287 15.3253 47.3913 15.0693 47.7007 14.728L48.5487 15.72C48.1647 16.168 47.6847 16.5093 47.1087 16.744C46.5433 16.9787 45.9087 17.096 45.2047 17.096ZM55.7464 17V5.8H60.7704C62.0611 5.8 63.0531 6.06133 63.7464 6.584C64.4397 7.096 64.7864 7.8 64.7864 8.696C64.7864 9.304 64.6477 9.816 64.3704 10.232C64.1037 10.648 63.7411 10.968 63.2824 11.192C62.8237 11.416 62.3277 11.528 61.7944 11.528L62.0824 11.048C62.7224 11.048 63.2877 11.16 63.7784 11.384C64.2691 11.608 64.6584 11.9387 64.9464 12.376C65.2344 12.8027 65.3784 13.336 65.3784 13.976C65.3784 14.936 65.0157 15.6827 64.2904 16.216C63.5757 16.7387 62.5091 17 61.0904 17H55.7464ZM57.3464 15.704H61.0264C61.9117 15.704 62.5891 15.5547 63.0584 15.256C63.5277 14.9573 63.7624 14.488 63.7624 13.848C63.7624 13.1973 63.5277 12.7227 63.0584 12.424C62.5891 12.1253 61.9117 11.976 61.0264 11.976H57.2024V10.68H60.6264C61.4371 10.68 62.0664 10.5307 62.5144 10.232C62.9624 9.93333 63.1864 9.48533 63.1864 8.888C63.1864 8.29067 62.9624 7.84267 62.5144 7.544C62.0664 7.24533 61.4371 7.096 60.6264 7.096H57.3464V15.704ZM72.9118 17.128C72.0584 17.128 71.2638 16.984 70.5278 16.696C69.8024 16.408 69.1731 16.008 68.6398 15.496C68.1064 14.9733 67.6904 14.3653 67.3918 13.672C67.0931 12.9787 66.9438 12.2213 66.9438 11.4C66.9438 10.5787 67.0931 9.82133 67.3918 9.128C67.6904 8.43467 68.1064 7.832 68.6398 7.32C69.1731 6.79733 69.8024 6.392 70.5278 6.104C71.2531 5.816 72.0478 5.672 72.9118 5.672C73.7651 5.672 74.5491 5.816 75.2638 6.104C75.9891 6.38133 76.6184 6.78133 77.1518 7.304C77.6958 7.816 78.1118 8.41867 78.3998 9.112C78.6984 9.80533 78.8478 10.568 78.8478 11.4C78.8478 12.232 78.6984 12.9947 78.3998 13.688C78.1118 14.3813 77.6958 14.9893 77.1518 15.512C76.6184 16.024 75.9891 16.424 75.2638 16.712C74.5491 16.9893 73.7651 17.128 72.9118 17.128ZM72.9118 15.704C73.5304 15.704 74.1011 15.5973 74.6238 15.384C75.1571 15.1707 75.6158 14.872 75.9998 14.488C76.3944 14.0933 76.6984 13.6347 76.9118 13.112C77.1358 12.5893 77.2478 12.0187 77.2478 11.4C77.2478 10.7813 77.1358 10.2107 76.9118 9.688C76.6984 9.16533 76.3944 8.712 75.9998 8.328C75.6158 7.93333 75.1571 7.62933 74.6238 7.416C74.1011 7.20267 73.5304 7.096 72.9118 7.096C72.2824 7.096 71.7011 7.20267 71.1678 7.416C70.6451 7.62933 70.1864 7.93333 69.7918 8.328C69.3971 8.712 69.0878 9.16533 68.8638 9.688C68.6504 10.2107 68.5438 10.7813 68.5438 11.4C68.5438 12.0187 68.6504 12.5893 68.8638 13.112C69.0878 13.6347 69.3971 14.0933 69.7918 14.488C70.1864 14.872 70.6451 15.1707 71.1678 15.384C71.7011 15.5973 72.2824 15.704 72.9118 15.704ZM86.3493 17.128C85.4959 17.128 84.7013 16.984 83.9653 16.696C83.2399 16.408 82.6106 16.008 82.0773 15.496C81.5439 14.9733 81.1279 14.3653 80.8293 13.672C80.5306 12.9787 80.3813 12.2213 80.3813 11.4C80.3813 10.5787 80.5306 9.82133 80.8293 9.128C81.1279 8.43467 81.5439 7.832 82.0773 7.32C82.6106 6.79733 83.2399 6.392 83.9653 6.104C84.6906 5.816 85.4853 5.672 86.3493 5.672C87.2026 5.672 87.9866 5.816 88.7013 6.104C89.4266 6.38133 90.0559 6.78133 90.5893 7.304C91.1333 7.816 91.5493 8.41867 91.8373 9.112C92.1359 9.80533 92.2853 10.568 92.2853 11.4C92.2853 12.232 92.1359 12.9947 91.8373 13.688C91.5493 14.3813 91.1333 14.9893 90.5893 15.512C90.0559 16.024 89.4266 16.424 88.7013 16.712C87.9866 16.9893 87.2026 17.128 86.3493 17.128ZM86.3493 15.704C86.9679 15.704 87.5386 15.5973 88.0613 15.384C88.5946 15.1707 89.0533 14.872 89.4373 14.488C89.8319 14.0933 90.1359 13.6347 90.3493 13.112C90.5733 12.5893 90.6853 12.0187 90.6853 11.4C90.6853 10.7813 90.5733 10.2107 90.3493 9.688C90.1359 9.16533 89.8319 8.712 89.4373 8.328C89.0533 7.93333 88.5946 7.62933 88.0613 7.416C87.5386 7.20267 86.9679 7.096 86.3493 7.096C85.7199 7.096 85.1386 7.20267 84.6053 7.416C84.0826 7.62933 83.6239 7.93333 83.2293 8.328C82.8346 8.712 82.5253 9.16533 82.3013 9.688C82.0879 10.2107 81.9813 10.7813 81.9813 11.4C81.9813 12.0187 82.0879 12.5893 82.3013 13.112C82.5253 13.6347 82.8346 14.0933 83.2293 14.488C83.6239 14.872 84.0826 15.1707 84.6053 15.384C85.1386 15.5973 85.7199 15.704 86.3493 15.704ZM96.1388 14.296L96.0588 12.344L102.411 5.8H104.235L99.3228 10.984L98.4268 11.976L96.1388 14.296ZM94.7308 17V5.8H96.3308V17H94.7308ZM102.667 17L98.0748 11.656L99.1468 10.472L104.539 17H102.667Z" fill="white"/>
</svg>
