<svg width="22" height="23" viewBox="0 0 22 23" fill="none" xmlns="http://www.w3.org/2000/svg">
<path d="M10.4831 3.91324C10.5523 3.29715 11.4477 3.29715 11.5169 3.91324L12.012 8.31826C12.0577 8.72495 12.5334 8.922 12.8533 8.66675L16.3182 5.90199C16.8028 5.51531 17.4359 6.1484 17.0492 6.633L14.2844 10.0979C14.0292 10.4178 14.2262 10.8935 14.6329 10.9392L19.0379 11.4343C19.654 11.5035 19.654 12.3988 19.0379 12.4681L14.6329 12.9631C14.2262 13.0088 14.0292 13.4846 14.2844 13.8045L17.0492 17.2693C17.4359 17.7539 16.8028 18.387 16.3182 18.0004L12.8533 15.2356C12.5334 14.9803 12.0577 15.1774 12.012 15.5841L11.5169 19.9891C11.4477 20.6052 10.5523 20.6052 10.4831 19.9891L9.98804 15.5841C9.94234 15.1774 9.4666 14.9803 9.14671 15.2356L5.68183 18.0004C5.19723 18.387 4.56414 17.7539 4.95082 17.2693L7.71558 13.8045C7.97083 13.4846 7.77377 13.0088 7.36709 12.9631L2.96206 12.4681C2.34598 12.3988 2.34598 11.5035 2.96207 11.4343L7.36709 10.9392C7.77378 10.8935 7.97083 10.4178 7.71558 10.0979L4.95082 6.633C4.56414 6.1484 5.19723 5.51531 5.68183 5.90199L9.14671 8.66675C9.4666 8.92201 9.94234 8.72495 9.98804 8.31826L10.4831 3.91324Z" fill="black"/>
</svg>
