<svg width="266" height="136" viewBox="0 0 266 136" fill="none" xmlns="http://www.w3.org/2000/svg">
<g clip-path="url(#clip0_3500_7914)">
<mask id="path-1-outside-1_3500_7914" maskUnits="userSpaceOnUse" x="96.0439" y="32.1924" width="83" height="76" fill="black">
<rect fill="white" x="96.0439" y="32.1924" width="83" height="76"/>
<path fill-rule="evenodd" clip-rule="evenodd" d="M99.6572 33.1924C98.214 33.1924 97.0439 34.3624 97.0439 35.8057V104.583C97.0439 106.026 98.214 107.196 99.6572 107.196H169.613C171.056 107.196 172.226 106.026 172.226 104.583V59.5398L177.46 57.4173C177.657 57.3373 177.786 57.1458 177.786 56.933V40.9947C177.786 40.7819 177.657 40.5903 177.46 40.5103L172.226 38.3878V35.8057C172.226 34.3624 171.056 33.1924 169.613 33.1924H99.6572Z"/>
</mask>
<path fill-rule="evenodd" clip-rule="evenodd" d="M99.6572 33.1924C98.214 33.1924 97.0439 34.3624 97.0439 35.8057V104.583C97.0439 106.026 98.214 107.196 99.6572 107.196H169.613C171.056 107.196 172.226 106.026 172.226 104.583V59.5398L177.46 57.4173C177.657 57.3373 177.786 57.1458 177.786 56.933V40.9947C177.786 40.7819 177.657 40.5903 177.46 40.5103L172.226 38.3878V35.8057C172.226 34.3624 171.056 33.1924 169.613 33.1924H99.6572Z" fill="#BCBCBC"/>
<path d="M172.226 59.5398L171.921 58.7865L171.414 58.9923V59.5398H172.226ZM177.46 57.4173L177.766 58.1706V58.1706L177.46 57.4173ZM177.46 40.5103L177.766 39.757V39.757L177.46 40.5103ZM172.226 38.3878H171.414V38.9354L171.921 39.1412L172.226 38.3878ZM97.8569 35.8057C97.8569 34.8114 98.6629 34.0053 99.6572 34.0053V32.3795C97.765 32.3795 96.231 33.9134 96.231 35.8057H97.8569ZM97.8569 104.583V35.8057H96.231V104.583H97.8569ZM99.6572 106.384C98.6629 106.384 97.8569 105.577 97.8569 104.583H96.231C96.231 106.475 97.765 108.009 99.6572 108.009V106.384ZM169.613 106.384H99.6572V108.009H169.613V106.384ZM171.414 104.583C171.414 105.577 170.608 106.384 169.613 106.384V108.009C171.505 108.009 173.039 106.475 173.039 104.583H171.414ZM171.414 59.5398V104.583H173.039V59.5398H171.414ZM177.155 56.664L171.921 58.7865L172.532 60.2932L177.766 58.1706L177.155 56.664ZM176.974 56.933C176.974 56.8148 177.045 56.7084 177.155 56.664L177.766 58.1706C178.27 57.9663 178.599 57.4768 178.599 56.933H176.974ZM176.974 40.9947V56.933H178.599V40.9947H176.974ZM177.155 41.2637C177.045 41.2193 176.974 41.1129 176.974 40.9947H178.599C178.599 40.4509 178.27 39.9614 177.766 39.757L177.155 41.2637ZM171.921 39.1412L177.155 41.2637L177.766 39.757L172.532 37.6345L171.921 39.1412ZM171.414 35.8057V38.3878H173.039V35.8057H171.414ZM169.613 34.0053C170.608 34.0053 171.414 34.8114 171.414 35.8057H173.039C173.039 33.9134 171.505 32.3795 169.613 32.3795V34.0053ZM99.6572 34.0053H169.613V32.3795H99.6572V34.0053Z" fill="black" mask="url(#path-1-outside-1_3500_7914)"/>
<rect x="88.6277" y="47.1277" width="15.3076" height="3.17459" rx="1.58729" fill="white" stroke="#191919" stroke-width="0.812928"/>
<rect x="88.6277" y="90.0857" width="15.3076" height="3.17459" rx="1.58729" fill="white" stroke="#191919" stroke-width="0.812928"/>
<rect x="88.6277" y="68.6072" width="15.3076" height="3.17459" rx="1.58729" fill="white" stroke="#191919" stroke-width="0.812928"/>
<rect x="161.452" y="33.0479" width="5.82491" height="74.1511" fill="url(#paint0_linear_3500_7914)"/>
<path d="M130.149 63.3666C129.884 62.8087 130.642 62.3386 131.024 62.8239L133.935 66.5205C134.187 66.8408 134.693 66.7579 134.83 66.3739L136.409 61.9417C136.616 61.3599 137.485 61.5636 137.412 62.1768L136.856 66.8489C136.808 67.2537 137.224 67.5531 137.593 67.3782L141.843 65.3608C142.401 65.0959 142.871 65.854 142.386 66.236L138.689 69.1466C138.369 69.3988 138.452 69.9051 138.836 70.0419L143.268 71.6209C143.85 71.8282 143.646 72.6965 143.033 72.6236L138.361 72.0678C137.956 72.0196 137.657 72.4362 137.831 72.8045L139.849 77.055C140.114 77.613 139.356 78.083 138.974 77.5978L136.063 73.9011C135.811 73.5808 135.305 73.6637 135.168 74.0477L133.589 78.4799C133.381 79.0617 132.513 78.858 132.586 78.2448L133.142 73.5727C133.19 73.1679 132.773 72.8686 132.405 73.0434L128.155 75.0608C127.597 75.3257 127.127 74.5677 127.612 74.1856L131.309 71.275C131.629 71.0228 131.546 70.5165 131.162 70.3797L126.73 68.8007C126.148 68.5935 126.352 67.7251 126.965 67.798L131.637 68.3539C132.042 68.402 132.341 67.9854 132.166 67.6171L130.149 63.3666Z" fill="#191919"/>
</g>
<defs>
<linearGradient id="paint0_linear_3500_7914" x1="164.365" y1="58.8511" x2="164.365" y2="137.049" gradientUnits="userSpaceOnUse">
<stop stop-color="#191919"/>
<stop offset="1" stop-color="#717171"/>
</linearGradient>
<clipPath id="clip0_3500_7914">
<rect width="91.2471" height="91.2471" fill="white" transform="translate(87.376 24.752)"/>
</clipPath>
</defs>
</svg>
