<svg width="98" height="106" viewBox="0 0 98 106" fill="none" xmlns="http://www.w3.org/2000/svg">
<rect x="28.557" y="6.55701" width="67.886" height="67.886" fill="black" stroke="black" stroke-width="1.11402"/>
<rect x="22.557" y="0.55701" width="67.886" height="67.886" fill="white" stroke="#191919" stroke-width="1.11402"/>
<path d="M28.0299 14.8651L29.8323 21.6291C30.4011 23.7638 32.5914 25.0283 34.7244 24.4536C36.8575 23.8789 38.1256 21.6825 37.5568 19.5478L35.7544 12.7838C35.1856 10.6492 32.9953 9.3846 30.8623 9.95934C28.7292 10.5341 27.4611 12.7305 28.0299 14.8651Z" fill="#929DD9" stroke="#191919" stroke-width="1.12083" stroke-linecap="round" stroke-linejoin="round"/>
<rect x="0.685409" y="0.395718" width="57.8792" height="6.87918" rx="1.85959" transform="matrix(0.965564 -0.260165 0.257479 0.966284 4.92171 25.1917)" fill="#929DD9" stroke="#191919" stroke-width="1.12083"/>
<path d="M67.5958 53.9311L54.7888 101.994C54.3523 103.632 52.6715 104.603 51.0346 104.162L3.973 91.4811C2.33609 91.04 1.36297 89.3545 1.79947 87.7164L14.6065 39.6534C15.043 38.0153 16.7238 37.0449 18.3607 37.4859L65.4223 50.1664C67.0592 50.6074 68.0323 52.2929 67.5958 53.9311Z" fill="#929DD9" stroke="#191919" stroke-width="1.12083" stroke-linecap="round"/>
<rect x="0.428392" y="0.742002" width="54.79" height="9.79" transform="matrix(0.965564 0.260165 -0.257479 0.966284 12.2058 45.9136)" fill="#F8E99A" stroke="#191919" stroke-width="1.21"/>
<path d="M18 58L8.73076 92.7862" stroke="#191919" stroke-width="1.1253"/>
<path d="M28 61L18.7308 95.7862" stroke="#191919" stroke-width="1.1253"/>
<path d="M36 63L26.7308 97.7862" stroke="#191919" stroke-width="1.1253"/>
<path d="M45 66L35.7308 100.786" stroke="#191919" stroke-width="1.1253"/>
<path d="M55 68L45.7308 102.786" stroke="#191919" stroke-width="1.1253"/>
<path d="M7 30L63.0027 14.9104" stroke="#191919" stroke-width="1.1253"/>
<path d="M15 41L67.1547 54.9959" stroke="#191919" stroke-width="1.1253"/>
<mask id="path-14-outside-1_5360_4316" maskUnits="userSpaceOnUse" x="55.6623" y="22.2749" width="28.13" height="28.2083" fill="black">
<rect fill="white" x="55.6623" y="22.2749" width="28.13" height="28.2083"/>
<path fill-rule="evenodd" clip-rule="evenodd" d="M62.7986 26.5372C62.3576 26.7928 62.2061 27.3582 62.4602 27.8001L67.3438 36.2923L59.9056 40.6037C59.4646 40.8593 59.3131 41.4248 59.5672 41.8666L60.6411 43.734C60.8952 44.1759 61.4587 44.3269 61.8997 44.0712L69.3379 39.7598L73.006 46.1382C73.2601 46.58 73.8235 46.731 74.2645 46.4754L76.1282 45.3951C76.5692 45.1395 76.7207 44.5741 76.4666 44.1322L72.7986 37.7539L80.2016 33.4628C80.6426 33.2072 80.7941 32.6418 80.54 32.2L79.4661 30.3326C79.212 29.8907 78.6485 29.7397 78.2075 29.9953L70.8045 34.2864L65.9208 25.7941C65.6667 25.3523 65.1033 25.2013 64.6623 25.4569L62.7986 26.5372Z"/>
</mask>
<path fill-rule="evenodd" clip-rule="evenodd" d="M62.7986 26.5372C62.3576 26.7928 62.2061 27.3582 62.4602 27.8001L67.3438 36.2923L59.9056 40.6037C59.4646 40.8593 59.3131 41.4248 59.5672 41.8666L60.6411 43.734C60.8952 44.1759 61.4587 44.3269 61.8997 44.0712L69.3379 39.7598L73.006 46.1382C73.2601 46.58 73.8235 46.731 74.2645 46.4754L76.1282 45.3951C76.5692 45.1395 76.7207 44.5741 76.4666 44.1322L72.7986 37.7539L80.2016 33.4628C80.6426 33.2072 80.7941 32.6418 80.54 32.2L79.4661 30.3326C79.212 29.8907 78.6485 29.7397 78.2075 29.9953L70.8045 34.2864L65.9208 25.7941C65.6667 25.3523 65.1033 25.2013 64.6623 25.4569L62.7986 26.5372Z" fill="#FA6030"/>
<path d="M62.4602 27.8001L61.486 28.3603L61.486 28.3603L62.4602 27.8001ZM62.7986 26.5372L62.2335 25.5623L62.2335 25.5623L62.7986 26.5372ZM67.3438 36.2923L67.9089 37.2672L68.8778 36.7056L68.318 35.7321L67.3438 36.2923ZM59.9056 40.6037L59.3405 39.6288L59.3405 39.6288L59.9056 40.6037ZM59.5672 41.8666L58.5931 42.4268L58.5931 42.4268L59.5672 41.8666ZM60.6411 43.734L59.667 44.2942L59.667 44.2942L60.6411 43.734ZM61.8997 44.0712L61.3346 43.0963L61.8997 44.0712ZM69.3379 39.7598L70.3121 39.1996L69.7484 38.2194L68.7728 38.7849L69.3379 39.7598ZM73.006 46.1382L72.0318 46.6983L72.0318 46.6984L73.006 46.1382ZM74.2645 46.4754L74.8296 47.4503L74.8296 47.4503L74.2645 46.4754ZM76.1282 45.3951L75.5632 44.4202L75.5632 44.4202L76.1282 45.3951ZM76.4666 44.1322L77.4408 43.572L76.4666 44.1322ZM72.7986 37.7539L72.2335 36.7789L71.2646 37.3405L71.8244 38.3141L72.7986 37.7539ZM80.2016 33.4628L80.7667 34.4378L80.7667 34.4378L80.2016 33.4628ZM80.54 32.2L81.5141 31.6398L81.5141 31.6398L80.54 32.2ZM79.4661 30.3326L80.4402 29.7724L80.4402 29.7724L79.4661 30.3326ZM78.2075 29.9953L78.7726 30.9703L78.7726 30.9703L78.2075 29.9953ZM70.8045 34.2864L69.8304 34.8466L70.3941 35.8268L71.3696 35.2613L70.8045 34.2864ZM65.9208 25.7941L66.895 25.234L66.895 25.234L65.9208 25.7941ZM64.6623 25.4569L65.2274 26.4319L65.2274 26.4319L64.6623 25.4569ZM63.4343 27.2399C63.4912 27.3388 63.4558 27.4587 63.3636 27.5121L62.2335 25.5623C61.2594 26.1269 60.921 27.3777 61.486 28.3603L63.4343 27.2399ZM68.318 35.7321L63.4343 27.2399L61.486 28.3603L66.3697 36.8525L68.318 35.7321ZM66.7787 35.3173L59.3405 39.6288L60.4707 41.5787L67.9089 37.2672L66.7787 35.3173ZM59.3405 39.6288C58.3664 40.1934 58.028 41.4442 58.5931 42.4268L60.5414 41.3064C60.5982 41.4053 60.5628 41.5253 60.4707 41.5787L59.3405 39.6288ZM58.5931 42.4268L59.667 44.2942L61.6152 43.1738L60.5414 41.3064L58.5931 42.4268ZM59.667 44.2942C60.2335 45.2794 61.4881 45.6123 62.4648 45.0462L61.3346 43.0963C61.4293 43.0414 61.5569 43.0723 61.6152 43.1738L59.667 44.2942ZM62.4648 45.0462L69.903 40.7347L68.7728 38.7849L61.3346 43.0963L62.4648 45.0462ZM73.9801 45.578L70.3121 39.1996L68.3638 40.32L72.0318 46.6983L73.9801 45.578ZM73.6994 45.5005C73.7941 45.4456 73.9217 45.4764 73.9801 45.578L72.0318 46.6984C72.5984 47.6836 73.853 48.0164 74.8296 47.4503L73.6994 45.5005ZM75.5632 44.4202L73.6994 45.5005L74.8296 47.4503L76.6933 46.37L75.5632 44.4202ZM75.4925 44.6924C75.4356 44.5935 75.471 44.4736 75.5632 44.4202L76.6933 46.37C77.6674 45.8054 78.0058 44.5546 77.4408 43.572L75.4925 44.6924ZM71.8244 38.3141L75.4925 44.6924L77.4408 43.572L73.7727 37.1937L71.8244 38.3141ZM73.3637 38.7288L80.7667 34.4378L79.6365 32.4879L72.2335 36.7789L73.3637 38.7288ZM80.7667 34.4378C81.7408 33.8732 82.0792 32.6224 81.5141 31.6398L79.5658 32.7602C79.509 32.6613 79.5444 32.5413 79.6365 32.4879L80.7667 34.4378ZM81.5141 31.6398L80.4402 29.7724L78.4919 30.8928L79.5658 32.7602L81.5141 31.6398ZM80.4402 29.7724C79.8736 28.7871 78.6191 28.4543 77.6424 29.0204L78.7726 30.9703C78.6779 31.0251 78.5503 30.9943 78.4919 30.8928L80.4402 29.7724ZM77.6424 29.0204L70.2394 33.3114L71.3696 35.2613L78.7726 30.9703L77.6424 29.0204ZM64.9467 26.3543L69.8304 34.8466L71.7787 33.7262L66.895 25.234L64.9467 26.3543ZM65.2274 26.4319C65.1327 26.4867 65.0051 26.4559 64.9467 26.3543L66.895 25.234C66.3284 24.2487 65.0738 23.9159 64.0972 24.482L65.2274 26.4319ZM63.3636 27.5121L65.2274 26.4319L64.0972 24.482L62.2335 25.5623L63.3636 27.5121Z" fill="#191919" mask="url(#path-14-outside-1_5360_4316)"/>
</svg>
