<svg width="134" height="43" viewBox="0 0 134 43" fill="none" xmlns="http://www.w3.org/2000/svg">
<rect x="11.0352" y="4.07031" width="122.356" height="38" rx="18.7601" fill="white"/>
<rect x="11.0352" y="4.07031" width="122.356" height="38" rx="18.7601" stroke="black"/>
<path d="M32.2383 18.8203C32.2383 20.6328 33.582 22.3359 35.7383 23.0234L34.9727 24.1797C33.3633 23.6484 32.1445 22.5469 31.5195 21.1484C30.8867 22.6719 29.6445 23.875 27.9727 24.4609L27.207 23.2891C29.3789 22.5547 30.7227 20.7422 30.7383 18.8203V18.2109H27.5977V17.0078H35.3164V18.2109H32.2383V18.8203ZM38.6602 15.9141V26.1328H37.1758V15.9141H38.6602ZM39.082 28.3984V29.6016H29.5039V25.1641H31.0039V28.3984H39.082ZM52.0883 15.9141V23.8359H50.6039V15.9141H52.0883ZM52.0883 24.5859V29.7266H42.8852V24.5859H52.0883ZM44.3539 25.7734V28.5234H50.6352V25.7734H44.3539ZM45.5727 17.8047C45.557 19.6953 46.9164 21.3984 49.0414 22.1172L48.307 23.2578C46.682 22.7188 45.4633 21.6094 44.8227 20.1641C44.1977 21.7031 42.9555 22.9297 41.2758 23.5234L40.5414 22.3516C42.7289 21.6172 44.057 19.7578 44.057 17.8047V16.4453H45.5727V17.8047ZM65.5008 15.8984V29.9297H64.0164V15.8984H65.5008ZM58.0164 16.9453C60.0945 16.9453 61.6258 18.8516 61.6258 21.8516C61.6258 24.8672 60.0945 26.7734 58.0164 26.7734C55.907 26.7734 54.3914 24.8672 54.3914 21.8516C54.3914 18.8516 55.907 16.9453 58.0164 16.9453ZM58.0164 18.2734C56.7195 18.2734 55.8289 19.6484 55.8289 21.8516C55.8289 24.0703 56.7195 25.4453 58.0164 25.4453C59.2977 25.4453 60.1883 24.0703 60.1883 21.8516C60.1883 19.6484 59.2977 18.2734 58.0164 18.2734ZM81.8414 15.8984V19.2266H83.8727V20.4609H81.8414V23.8047H80.357V15.8984H81.8414ZM77.6852 16.8203V18.0234H72.9352V21.8828C75.6617 21.875 77.2008 21.7734 78.9508 21.4297L79.1227 22.6172C77.232 23.0234 75.5758 23.0859 72.5758 23.0859H71.4664V16.8203H77.6852ZM81.8414 24.4922V29.7109H72.9039V24.4922H81.8414ZM74.357 25.6797V28.5234H80.3727V25.6797H74.357ZM95.8633 15.9141V26.0703H94.3789V15.9141H95.8633ZM91.7852 16.9609C91.7852 20.6328 89.2383 23.3203 85.082 24.5703L84.4883 23.3828C87.8164 22.3828 89.8789 20.5156 90.1758 18.1797H85.2539V16.9609H91.7852ZM96.207 28.3984V29.6016H86.6602V25.2266H88.1602V28.3984H96.207Z" fill="#191919"/>
<path d="M117.892 18.3921L108.535 27.7485" stroke="black" stroke-width="1.1"/>
<path d="M117.892 27.7485L108.535 18.3921" stroke="black" stroke-width="1.1"/>
<rect x="0.5" y="0.5" width="22.0703" height="22.0703" rx="11.0352" fill="white" stroke="#191919"/>
<path d="M9.93525 8.46804C10.3906 8.46804 10.8096 8.58351 11.1923 8.81446C11.575 9.04541 11.8851 9.42813 12.1227 9.96262C12.3668 10.4971 12.4889 11.1999 12.4889 12.0709C12.4889 12.9419 12.3668 13.6447 12.1227 14.1791C11.8851 14.7136 11.575 15.0963 11.1923 15.3273C10.8096 15.5517 10.3906 15.6638 9.93525 15.6638C9.47994 15.6638 9.06093 15.5517 8.67821 15.3273C8.29549 15.0963 7.98206 14.7136 7.73791 14.1791C7.50036 13.6447 7.38158 12.9419 7.38158 12.0709C7.38158 11.1999 7.50036 10.4971 7.73791 9.96262C7.98206 9.42813 8.29549 9.04541 8.67821 8.81446C9.06093 8.58351 9.47994 8.46804 9.93525 8.46804ZM9.93525 15.0897C10.4697 15.0897 10.9118 14.8654 11.2616 14.4167C11.6179 13.968 11.7961 13.186 11.7961 12.0709C11.7961 10.9491 11.6179 10.1639 11.2616 9.71517C10.9118 9.26647 10.4697 9.04212 9.93525 9.04212C9.40076 9.04212 8.95865 9.26647 8.60893 9.71517C8.2592 10.1639 8.08434 10.9491 8.08434 12.0709C8.08434 13.1926 8.2592 13.9779 8.60893 14.4266C8.95865 14.8687 9.40076 15.0897 9.93525 15.0897ZM14.9727 15.5352H14.3095V9.91313H13.0327V9.43803H13.1713C13.5804 9.43803 13.874 9.36545 14.0522 9.22028C14.2369 9.06851 14.3491 8.86065 14.3887 8.59671H14.9727V15.5352Z" fill="black"/>
</svg>
