<svg width="344" height="294" viewBox="0 0 344 294" fill="none" xmlns="http://www.w3.org/2000/svg">
<path d="M302.021 96.858C301.91 95.4996 303.21 94.4611 304.51 94.8689L324.939 101.275C325.686 101.509 326.215 102.172 326.279 102.952L331.043 161.334C331.106 162.113 330.691 162.853 329.992 163.205L310.872 172.838C309.655 173.452 308.204 172.637 308.093 171.279L302.021 96.858Z" fill="url(#paint0_linear_1729_2016)"/>
<path fill-rule="evenodd" clip-rule="evenodd" d="M31.033 24.1076C26.8036 24.4527 23.6548 28.161 23.9998 32.3904L44.5324 284.034C44.8775 288.264 48.5859 291.412 52.8152 291.067L312.893 269.847C317.122 269.501 320.271 265.793 319.926 261.564L306.643 98.7687L325.179 89.4298C325.878 89.0779 326.293 88.3377 326.229 87.5582L321.466 29.1763C321.402 28.3968 320.872 27.7337 320.126 27.4997L300.321 21.2892L299.393 9.91998C299.048 5.6906 295.34 2.54176 291.11 2.88685L31.033 24.1076Z" fill="#191919"/>
<rect x="261.625" y="5.29297" width="21.4075" height="267.749" transform="rotate(-4.66465 261.625 5.29297)" fill="#FA6030"/>
<path d="M99.4186 58.4631C99.3907 58.8641 99.2656 59.2233 99.2377 59.6243C98.6586 59.8218 96.7203 60.7594 95.4007 63.0339C94.413 64.7382 94.3941 66.7268 94.4575 67.5038C86.9322 68.1178 79.4069 68.7318 71.8787 69.3461L72.116 68.642L72.7876 68.5872C73.6543 68.5165 76.1011 68.1579 76.6752 67.7933C77.2521 67.4284 77.6065 66.7436 77.7909 66.3125C77.9753 65.8814 78.2199 64.9485 78.5246 63.5137L82.5477 44.9402C82.8668 43.5043 83.0649 42.4971 83.1016 42.133C83.21 41.1244 83.6711 40.6852 81.8515 40.8337L81.5702 40.8566L81.8075 40.1526L89.7116 39.5076L89.4743 40.2117L88.7281 40.2726C87.7753 40.3504 87.0446 40.5313 86.53 40.8102C86.0185 41.0918 85.6496 41.457 85.4262 41.9057C85.2028 42.3544 84.8892 43.5039 84.4912 45.3537L80.6212 63.2184C80.3232 64.5949 80.1898 65.4378 80.2148 65.7449C80.2685 66.4022 80.5969 67.1699 81.1471 67.4688C81.7004 67.7704 82.8795 67.8446 84.6848 67.6973L86.1141 67.5807C90.0394 67.4974 91.8358 66.367 92.9139 65.2043C93.8435 64.2039 94.3043 63.1642 95.6018 61.5431C96.9143 60.0858 98.3955 58.954 99.4186 58.4631Z" fill="white" stroke="white" stroke-width="0.241888" stroke-miterlimit="10"/>
<path d="M106.05 60.5741L107.057 60.4919C105.601 64.6007 103.481 66.7672 100.694 66.9946C99.5463 67.0882 98.5779 66.7628 97.7917 66.0151C97.0058 65.2702 96.5551 64.2091 96.4432 62.8372C96.3015 61.1008 96.6065 59.1026 97.3611 56.8423C98.1128 54.5823 99.2822 52.5916 100.869 50.8673C102.457 49.1458 103.884 48.2319 105.159 48.1279C105.942 48.064 106.557 48.2652 107.005 48.7285C107.45 49.192 107.704 49.7953 107.765 50.5387C107.888 52.0512 107.252 53.5651 105.853 55.0805C104.454 56.5987 102.013 58.2018 99.093 59.7344C98.7991 60.9834 98.7172 62.1525 98.8062 63.2432C98.8793 64.1386 99.1445 64.6849 99.5314 65.1069C99.9604 65.5748 100.682 65.7446 101.371 65.6884C103.291 65.5346 104.851 63.8298 106.05 60.5741ZM99.403 58.4882C101.142 57.5287 102.88 56.3516 104.207 54.8045C105.531 53.2577 106.149 51.9042 106.054 50.7418C106.01 50.2109 105.869 49.8237 105.633 49.583C105.394 49.3425 105.059 49.2398 104.625 49.2751C103.784 49.3437 102.861 50.2396 101.855 51.9657C100.839 53.6867 99.8895 55.8107 99.403 58.4882Z" fill="white" stroke="white" stroke-width="0.241888" stroke-miterlimit="10"/>
<path d="M120.319 63.7071C123.26 63.467 124.543 60.9556 125.169 58.9919L127.124 59.2658C126.336 61.7859 124.471 65.2694 120.381 65.6031C117.029 65.8766 114.519 63.3713 114.161 58.9944C113.662 52.8726 116.506 47.2204 121.531 46.8103C125.463 46.4895 126.978 49.8272 127.372 51.1529L125.596 51.9421C125.262 50.9582 124.32 48.4839 121.571 48.7082C117.636 49.0293 115.689 53.9553 116.086 58.8172C116.354 62.1035 118.04 63.893 120.319 63.7071Z" fill="white" stroke="white" stroke-width="0.16932"/>
<path d="M138.38 60.9967C137.562 62.7709 135.965 64.3285 133.419 64.5362C130.606 64.7657 128.195 62.7667 128.463 58.6104L129.256 46.5845L131.124 46.432L130.403 57.5941C130.162 61.2685 131.129 62.8133 133.758 62.5988C136.031 62.4134 138.386 60.4357 138.686 55.8289L139.353 45.7606L141.221 45.6082L140.047 63.5852L138.268 63.7303L138.44 60.9889L138.38 60.9967Z" fill="white" stroke="white" stroke-width="0.16932"/>
<path d="M155.21 57.4126C154.292 60.1109 152.357 62.9875 148.347 63.3147C145.05 63.5838 142.565 61.0764 142.209 56.7053C141.714 50.635 144.493 44.9304 149.443 44.5264C153.324 44.2098 156.121 47.6537 155.546 53.9182L144.074 54.8542C143.874 58.9154 145.527 61.6437 148.282 61.4189C151.112 61.188 152.481 59.233 153.284 57.174L155.21 57.4126ZM144.255 52.9904L153.686 52.2209C153.805 48.9059 152.244 46.2019 149.477 46.4276C146.667 46.654 144.613 49.7021 144.255 52.9904Z" fill="white" stroke="white" stroke-width="0.16932"/>
<path d="M112.054 50.7692C111.615 51.8777 111.284 52.9958 111.062 54.1248C110.84 55.2537 110.733 56.369 110.746 57.4717C110.755 58.5752 110.893 59.6237 111.155 60.616C111.418 61.6083 111.79 62.5422 112.271 63.4138C112.752 64.2853 113.328 65.0368 113.995 65.6677L112.699 66.4566C112.002 65.7916 111.374 64.9927 110.816 64.0639C110.257 63.1351 109.839 62.1398 109.558 61.0787C109.274 60.0059 109.125 58.8891 109.11 57.7323C109.095 56.5736 109.204 55.4114 109.436 54.2439C109.669 53.0764 110.025 51.916 110.499 50.7624C110.976 49.6079 111.564 48.4914 112.261 47.4154L113.657 47.5776C113.029 48.5977 112.492 49.6607 112.054 50.7692Z" fill="white" stroke="white" stroke-width="0.16932"/>
<path d="M160.038 48.877C160.272 50.0021 160.371 51.1643 160.332 52.3593C160.294 53.5565 160.131 54.7494 159.845 55.9402C159.558 57.131 159.148 58.3067 158.621 59.4682C158.09 60.6303 157.451 61.7464 156.704 62.8138L155.314 62.5596C155.993 61.5492 156.579 60.4831 157.069 59.366C157.559 58.2489 157.945 57.1147 158.23 55.9607C158.516 54.8067 158.676 53.6615 158.718 52.5218C158.756 51.3826 158.67 50.2911 158.453 49.2504C158.236 48.2098 157.901 47.2238 157.449 46.2966C156.997 45.3694 156.452 44.5585 155.814 43.8658L157.143 43.1112C157.81 43.841 158.402 44.7088 158.919 45.7085C159.433 46.7087 159.806 47.7662 160.038 48.877Z" fill="white" stroke="white" stroke-width="0.16932"/>
<path d="M162.194 33.4145C162.207 33.0057 162.795 32.9577 162.874 33.359L163.472 36.4162C163.524 36.6812 163.848 36.7852 164.044 36.6002L166.313 34.4656C166.611 34.1854 167.061 34.5676 166.833 34.907L165.094 37.492C164.944 37.716 165.099 38.0182 165.369 38.0264L168.482 38.1214C168.891 38.1339 168.939 38.7225 168.538 38.801L165.481 39.3996C165.216 39.4514 165.112 39.7748 165.297 39.9714L167.431 42.2403C167.711 42.5382 167.329 42.9883 166.99 42.7601L164.405 41.0216C164.181 40.8709 163.879 41.026 163.87 41.2958L163.775 44.4096C163.763 44.8183 163.174 44.8664 163.096 44.4651L162.497 41.4078C162.445 41.1429 162.122 41.0389 161.925 41.2239L159.657 43.3585C159.359 43.6387 158.909 43.2564 159.137 42.9171L160.875 40.3321C161.026 40.1081 160.871 39.8059 160.601 39.7977L157.487 39.7027C157.079 39.6902 157.031 39.1016 157.432 39.0231L160.489 38.4245C160.754 38.3727 160.858 38.0493 160.673 37.8527L158.538 35.5837C158.258 35.2859 158.64 34.8357 158.98 35.064L161.565 36.8025C161.789 36.9532 162.091 36.7981 162.099 36.5283L162.194 33.4145Z" fill="white"/>
<path d="M178.939 40.504L188.498 39.7536C192.661 39.4139 195.161 41.4822 195.441 44.912C195.594 46.7882 194.861 48.294 193.132 49.1728L193.142 49.29C195.349 49.9363 196.685 51.4798 196.89 54.0009C197.192 57.6946 194.982 60.2652 190.584 60.624L180.647 61.4349L178.939 40.504ZM183.35 48.9971L188.627 48.5666C190.825 48.3872 191.883 47.2385 191.732 45.3917C191.584 43.5742 190.354 42.6121 188.156 42.7915L182.879 43.2221L183.35 48.9971ZM184.092 58.0848L189.72 57.6255C192.124 57.4294 193.289 56.1539 193.126 54.1605C192.963 52.1671 191.61 51.1266 189.206 51.3228L183.577 51.782L184.092 58.0848ZM205.852 43.4428C210.542 43.0601 213.793 46.0115 214.193 50.9071C214.595 55.832 211.865 59.2713 207.175 59.654C202.484 60.0367 199.234 57.0853 198.832 52.1604C198.432 47.2648 201.162 43.8255 205.852 43.4428ZM206.955 56.957C209.505 56.7489 210.955 54.6239 210.675 51.1941C210.395 47.7642 208.623 45.9317 206.072 46.1398C203.522 46.3479 202.07 48.4435 202.35 51.8734C202.629 55.3032 204.404 57.1651 206.955 56.957ZM223.172 42.0296C227.862 41.6469 231.113 44.5983 231.513 49.4939C231.914 54.4188 229.185 57.8581 224.495 58.2408C219.804 58.6235 216.553 55.6721 216.152 50.7472C215.752 45.8516 218.482 42.4123 223.172 42.0296ZM224.275 55.5438C226.825 55.3357 228.275 53.2107 227.995 49.7809C227.715 46.351 225.942 44.5185 223.392 44.7266C220.842 44.9347 219.39 47.0303 219.669 50.4602C219.949 53.8901 221.724 55.7519 224.275 55.5438ZM237.789 51.254L238.236 56.7359L234.807 57.0158L233.075 35.7917L236.505 35.5119L237.476 47.4138L242.983 40.7673L247.146 40.4276L241.678 46.8348L249.083 55.8509L245.008 56.1834L239.49 49.3151L237.789 51.254Z" fill="white"/>
<path d="M95.8645 88.2608L95.7546 88.7871L93.7106 88.9539L92.4577 95.9344C91.8846 99.093 91.1506 101.242 90.2559 102.381C89.3612 103.52 88.326 104.137 87.1502 104.233C86.4961 104.287 85.8959 104.183 85.3494 103.922C84.7951 103.661 84.4995 103.305 84.4627 102.854C84.4417 102.597 84.5063 102.38 84.6565 102.203C84.8067 102.026 84.9908 101.929 85.2088 101.911C85.4658 101.89 85.6794 101.963 85.8498 102.129C86.0207 102.303 86.1148 102.495 86.132 102.706C86.1364 102.76 86.1327 102.858 86.1208 103L86.1136 103.201C86.1257 103.349 86.2302 103.478 86.4273 103.587C86.6243 103.696 86.8552 103.74 87.12 103.718C88.0543 103.642 88.8001 103.08 89.3573 102.031C89.9145 100.982 90.4757 98.9258 91.0409 95.8618L92.2857 89.0702L89.9847 89.2579L90.0946 88.7316L92.4072 88.5429C92.423 88.4475 92.4668 88.2167 92.5388 87.8502C93.2736 83.8867 94.8168 81.809 97.1684 81.6171C97.838 81.5625 98.3601 81.6688 98.7347 81.9361C99.117 82.2028 99.3199 82.4802 99.3434 82.7683C99.3771 83.181 99.1993 83.4032 98.8099 83.435C98.4985 83.4604 98.1456 83.2187 97.7514 82.7101C97.4704 82.3411 97.1548 82.1709 96.8044 82.1994C96.2749 82.2427 95.7888 82.5292 95.346 83.0592C94.9026 83.5813 94.4769 84.9447 94.0689 87.1492L93.8322 88.4266L95.8645 88.2608ZM95.7403 94.8082C95.6641 93.8738 95.7992 92.8399 96.1456 91.7064C96.4915 90.5651 97.0413 89.6188 97.7952 88.8675C98.5491 88.1162 99.3076 87.7094 100.071 87.6472C100.764 87.5906 101.356 87.8401 101.848 88.3957C102.348 88.9429 102.638 89.7187 102.72 90.7231C102.819 91.9379 102.664 93.1106 102.255 94.2414C101.845 95.3722 101.287 96.2604 100.579 96.906C99.8788 97.5432 99.1664 97.8914 98.4423 97.9504C97.796 98.0032 97.2072 97.8004 96.676 97.3421C96.1526 96.8831 95.8407 96.0385 95.7403 94.8082ZM97.0996 96.0494C97.134 96.4699 97.2722 96.8192 97.5144 97.0973C97.7565 97.3754 98.0684 97.4989 98.4499 97.4678C99.4933 97.3826 100.269 96.3238 100.777 94.2914C101.294 92.2583 101.509 90.7201 101.424 89.6767C101.38 89.1394 101.242 88.747 101.01 88.4994C100.786 88.2434 100.467 88.1322 100.054 88.1659C99.0809 88.2453 98.3149 89.2327 97.7563 91.1282C97.2048 93.0152 96.9859 94.6556 97.0996 96.0494ZM104.481 90.4031L103.967 90.445C104.223 89.5462 104.571 88.7693 105.012 88.1141C105.46 87.4583 105.925 87.1107 106.408 87.0713C106.743 87.044 107.003 87.1599 107.189 87.4191C107.374 87.6705 107.489 88.0687 107.533 88.6138C107.589 89.2912 107.492 90.2711 107.244 91.5533C107.285 91.4716 107.39 91.1808 107.561 90.6809C108.031 89.3335 108.461 88.3539 108.85 87.7421C109.239 87.1304 109.651 86.8067 110.087 86.7711C110.36 86.7489 110.585 86.8167 110.762 86.9747C110.94 87.1326 111.038 87.3323 111.058 87.5737C111.077 87.8073 111.023 88.0038 110.895 88.1632C110.774 88.3219 110.621 88.4089 110.434 88.4242C110.224 88.4413 109.999 88.3303 109.76 88.0911C109.666 87.9969 109.576 87.9533 109.491 87.9603C109.101 87.992 108.578 88.9792 107.922 90.9219C107.264 92.8568 106.754 94.6699 106.39 96.3613L106.202 97.2233L104.8 97.3376L106.152 90.9957C106.406 89.7836 106.516 88.9672 106.482 88.5468C106.463 88.321 106.418 88.1561 106.347 88.0522C106.284 87.9476 106.194 87.9001 106.077 87.9096C105.82 87.9306 105.519 88.2334 105.175 88.818C104.839 89.402 104.607 89.9303 104.481 90.4031Z" fill="white" fill-opacity="0.8"/>
<path d="M89.7525 101.399L111.209 99.6483L111.306 100.84L89.8498 102.59L89.7525 101.399Z" fill="white" fill-opacity="0.8"/>
<circle cx="45.9357" cy="84.6166" r="7.85787" transform="rotate(-4.66465 45.9357 84.6166)" fill="#F5F5F5"/>
<circle cx="52.6154" cy="166.482" r="7.85787" transform="rotate(-4.66465 52.6154 166.482)" fill="#F5F5F5"/>
<circle cx="59.2795" cy="248.158" r="7.85787" transform="rotate(-4.66465 59.2795 248.158)" fill="#F5F5F5"/>
<rect x="3.99219" y="83.4141" width="46.7203" height="9.60428" rx="4.80214" transform="rotate(-4.66465 3.99219 83.4141)" fill="url(#paint1_linear_1729_2016)"/>
<rect x="17.3203" y="246.766" width="46.7203" height="9.60428" rx="4.80214" transform="rotate(-4.66465 17.3203 246.766)" fill="url(#paint2_linear_1729_2016)"/>
<rect x="10.6562" y="165.092" width="46.7203" height="9.60428" rx="4.80214" transform="rotate(-4.66465 10.6562 165.092)" fill="url(#paint3_linear_1729_2016)"/>
<defs>
<linearGradient id="paint0_linear_1729_2016" x1="313.591" y1="93.0527" x2="320.702" y2="180.205" gradientUnits="userSpaceOnUse">
<stop stop-color="#333333"/>
<stop offset="1" stop-color="#C1C1C1"/>
</linearGradient>
<linearGradient id="paint1_linear_1729_2016" x1="27.3523" y1="83.4141" x2="27.3523" y2="93.0183" gradientUnits="userSpaceOnUse">
<stop stop-color="#DDDDDD"/>
<stop offset="1" stop-color="#B7B7B7"/>
</linearGradient>
<linearGradient id="paint2_linear_1729_2016" x1="40.6804" y1="246.766" x2="40.6804" y2="256.37" gradientUnits="userSpaceOnUse">
<stop stop-color="#DDDDDD"/>
<stop offset="1" stop-color="#B7B7B7"/>
</linearGradient>
<linearGradient id="paint3_linear_1729_2016" x1="34.0164" y1="165.092" x2="34.0164" y2="174.696" gradientUnits="userSpaceOnUse">
<stop stop-color="#DDDDDD"/>
<stop offset="1" stop-color="#B7B7B7"/>
</linearGradient>
</defs>
</svg>
