<svg width="110" height="110" viewBox="0 0 110 110" fill="none" xmlns="http://www.w3.org/2000/svg">
<path fill-rule="evenodd" clip-rule="evenodd" d="M14.8059 10.1738C13.066 10.1738 11.6555 11.5843 11.6555 13.3242V96.2367C11.6555 97.9766 13.066 99.3871 14.8059 99.3871H99.1391C100.879 99.3871 102.289 97.9766 102.289 96.2367V41.9366L108.599 39.3779C108.836 39.2815 108.992 39.0505 108.992 38.794V19.5801C108.992 19.3235 108.836 19.0926 108.599 18.9962L102.289 16.4375V13.3242C102.289 11.5843 100.879 10.1738 99.1391 10.1738H14.8059Z" fill="#FA6030"/>
<rect x="2.15752" y="21.431" width="17.1586" height="2.53199" rx="1.26599" fill="white" stroke="#191919" stroke-width="0.315037"/>
<rect x="2.15752" y="73.2181" width="17.1586" height="2.53199" rx="1.26599" fill="white" stroke="#191919" stroke-width="0.315037"/>
<rect x="2.15752" y="47.3245" width="17.1586" height="2.53199" rx="1.26599" fill="white" stroke="#191919" stroke-width="0.315037"/>
<rect x="89.3005" y="10" width="7.02203" height="89.3905" fill="url(#paint0_linear_1887_4324)"/>
<path d="M48.5637 46.55C48.2444 45.8774 49.1582 45.3108 49.6188 45.8957L53.1276 50.3521C53.4316 50.7383 54.0419 50.6383 54.2068 50.1753L56.1103 44.8323C56.3602 44.131 57.4071 44.3764 57.3191 45.1158L56.649 50.748C56.591 51.236 57.0932 51.5969 57.5372 51.3861L62.6613 48.954C63.3339 48.6348 63.9005 49.5486 63.3156 50.0092L58.8592 53.518C58.473 53.822 58.573 54.4323 59.036 54.5972L64.379 56.5007C65.0803 56.7506 64.8349 57.7974 64.0955 57.7095L58.4633 57.0394C57.9753 56.9814 57.6144 57.4836 57.8252 57.9276L60.2573 63.0516C60.5765 63.7243 59.6627 64.2909 59.2021 63.7059L55.6933 59.2496C55.3893 58.8634 54.779 58.9634 54.6141 59.4264L52.7106 64.7694C52.4607 65.4707 51.4139 65.2253 51.5018 64.4859L52.1719 58.8537C52.2299 58.3657 51.7277 58.0048 51.2837 58.2156L46.1597 60.6477C45.487 60.9669 44.9204 60.0531 45.5054 59.5925L49.9618 56.0837C50.3479 55.7797 50.2479 55.1694 49.785 55.0045L44.4419 53.101C43.7406 52.8511 43.9861 51.8043 44.7254 51.8922L50.3576 52.5623C50.8457 52.6203 51.2065 52.1181 50.9958 51.6741L48.5637 46.55Z" fill="#191919"/>
<defs>
<linearGradient id="paint0_linear_1887_4324" x1="92.8116" y1="41.1063" x2="92.8116" y2="135.375" gradientUnits="userSpaceOnUse">
<stop stop-color="#191919"/>
<stop offset="1" stop-color="#FA6030"/>
</linearGradient>
</defs>
</svg>
