<svg width="266" height="136" viewBox="0 0 266 136" fill="none" xmlns="http://www.w3.org/2000/svg">
<rect x="116.46" y="33.4603" width="56.0793" height="56.0793" fill="black" stroke="black" stroke-width="0.920677"/>
<rect x="111.46" y="28.4603" width="56.0793" height="56.0793" fill="white" stroke="#191919" stroke-width="0.920677"/>
<path d="M115.903 40.3815L117.194 45.2121C117.692 47.0796 119.61 48.1868 121.477 47.685C123.343 47.1833 124.452 45.2626 123.954 43.395L122.663 38.5644C122.164 36.6969 120.247 35.5897 118.38 36.0915C116.513 36.5932 115.404 38.5139 115.903 40.3815Z" fill="#929DD9" stroke="#191919" stroke-width="0.926302" stroke-linecap="round" stroke-linejoin="round"/>
<rect x="0.566796" y="0.327239" width="48.0737" height="6.0737" rx="1.53685" transform="matrix(0.965722 -0.25958 0.25806 0.966129 96.935 49.1582)" fill="#929DD9" stroke="#191919" stroke-width="0.926302"/>
<path d="M148.202 72.7188L137.621 112.33C137.26 113.684 135.87 114.486 134.517 114.123L95.8879 103.739C94.5348 103.376 93.7311 101.983 94.0926 100.63L104.673 61.0186C105.035 59.665 106.425 58.8625 107.778 59.2262L146.407 69.6094C147.76 69.9731 148.563 71.3652 148.202 72.7188Z" fill="#929DD9" stroke="#191919" stroke-width="0.926302" stroke-linecap="round"/>
<rect x="0.353831" y="0.612854" width="45" height="8" transform="matrix(0.965722 0.25958 -0.25806 0.966129 103.17 65.9289)" fill="#F8E99A" stroke="#191919"/>
<path d="M108 76L100.258 104.984" stroke="#191919" stroke-width="0.93"/>
<path d="M116 78L108.258 106.984" stroke="#191919" stroke-width="0.93"/>
<path d="M123 80L115.258 108.984" stroke="#191919" stroke-width="0.93"/>
<path d="M130 82L122.258 110.984" stroke="#191919" stroke-width="0.93"/>
<path d="M138 84L130.258 112.984" stroke="#191919" stroke-width="0.93"/>
<path d="M99 53L145.355 40.5402" stroke="#191919" stroke-width="0.93"/>
<path d="M105 62L148.469 73.637" stroke="#191919" stroke-width="0.93"/>
<mask id="path-14-outside-1_3500_8251" maskUnits="userSpaceOnUse" x="140.645" y="47.0731" width="20.8043" height="20.837" fill="black">
<rect fill="white" x="140.645" y="47.0731" width="20.8043" height="20.837"/>
<path fill-rule="evenodd" clip-rule="evenodd" d="M159.619 53.3393C159.83 53.7041 159.705 54.1706 159.34 54.3812L153.08 57.9951L156.717 64.2935C156.927 64.6584 156.802 65.1248 156.438 65.3355L155.161 66.0727C154.796 66.2834 154.329 66.1584 154.119 65.7936L150.482 59.4951L144.206 63.1186C143.842 63.3292 143.375 63.2042 143.165 62.8394L142.427 61.5624C142.217 61.1976 142.342 60.7311 142.706 60.5205L148.982 56.897L145.382 50.6601C145.171 50.2953 145.296 49.8288 145.661 49.6182L146.938 48.8809C147.303 48.6703 147.769 48.7953 147.98 49.1601L151.581 55.397L157.84 51.7831C158.205 51.5725 158.671 51.6975 158.882 52.0623L159.619 53.3393Z"/>
</mask>
<path fill-rule="evenodd" clip-rule="evenodd" d="M159.619 53.3393C159.83 53.7041 159.705 54.1706 159.34 54.3812L153.08 57.9951L156.717 64.2935C156.927 64.6584 156.802 65.1248 156.438 65.3355L155.161 66.0727C154.796 66.2834 154.329 66.1584 154.119 65.7936L150.482 59.4951L144.206 63.1186C143.842 63.3292 143.375 63.2042 143.165 62.8394L142.427 61.5624C142.217 61.1976 142.342 60.7311 142.706 60.5205L148.982 56.897L145.382 50.6601C145.171 50.2953 145.296 49.8288 145.661 49.6182L146.938 48.8809C147.303 48.6703 147.769 48.7953 147.98 49.1601L151.581 55.397L157.84 51.7831C158.205 51.5725 158.671 51.6975 158.882 52.0623L159.619 53.3393Z" fill="#FA6030"/>
<path d="M159.34 54.3812L158.874 53.5752L158.874 53.5752L159.34 54.3812ZM159.619 53.3393L158.814 53.8039L158.814 53.8039L159.619 53.3393ZM153.08 57.9951L152.615 57.189L151.81 57.6537L152.276 58.4597L153.08 57.9951ZM156.717 64.2935L157.522 63.8289L157.522 63.8289L156.717 64.2935ZM156.438 65.3355L156.903 66.1415L156.438 65.3355ZM155.161 66.0727L154.695 65.2667L155.161 66.0727ZM154.119 65.7936L154.924 65.3289L154.924 65.3289L154.119 65.7936ZM150.482 59.4951L151.287 59.0304L150.822 58.2244L150.017 58.689L150.482 59.4951ZM144.206 63.1186L143.741 62.3125L143.741 62.3125L144.206 63.1186ZM143.165 62.8394L142.36 63.304L142.36 63.304L143.165 62.8394ZM142.427 61.5624L141.622 62.027L141.622 62.027L142.427 61.5624ZM142.706 60.5205L143.172 61.3265L143.172 61.3265L142.706 60.5205ZM148.982 56.897L149.448 57.703L150.253 57.2384L149.787 56.4324L148.982 56.897ZM145.382 50.6601L146.186 50.1955L146.186 50.1955L145.382 50.6601ZM145.661 49.6182L146.126 50.4242L146.126 50.4242L145.661 49.6182ZM146.938 48.8809L146.472 48.0749L146.472 48.0749L146.938 48.8809ZM147.98 49.1601L148.784 48.6955L148.784 48.6955L147.98 49.1601ZM151.581 55.397L150.776 55.8616L151.241 56.6676L152.046 56.203L151.581 55.397ZM157.84 51.7831L157.374 50.9771L157.84 51.7831ZM158.882 52.0623L158.077 52.527L158.077 52.527L158.882 52.0623ZM159.805 55.1873C160.613 54.7207 160.892 53.6858 160.424 52.8747L158.814 53.8039C158.767 53.7224 158.796 53.6205 158.874 53.5752L159.805 55.1873ZM153.546 58.8011L159.805 55.1873L158.874 53.5752L152.615 57.189L153.546 58.8011ZM152.276 58.4597L155.912 64.7582L157.522 63.8289L153.885 57.5304L152.276 58.4597ZM155.912 64.7582C155.865 64.6766 155.894 64.5747 155.972 64.5294L156.903 66.1415C157.711 65.675 157.99 64.6401 157.522 63.8289L155.912 64.7582ZM155.972 64.5294L154.695 65.2667L155.626 66.8788L156.903 66.1415L155.972 64.5294ZM154.695 65.2667C154.774 65.2214 154.876 65.2474 154.924 65.3289L153.314 66.2582C153.782 67.0694 154.818 67.3453 155.626 66.8788L154.695 65.2667ZM154.924 65.3289L151.287 59.0304L149.678 59.9597L153.314 66.2582L154.924 65.3289ZM144.672 63.9246L150.948 60.3011L150.017 58.689L143.741 62.3125L144.672 63.9246ZM142.36 63.304C142.828 64.1152 143.864 64.3911 144.672 63.9246L143.741 62.3125C143.82 62.2672 143.922 62.2932 143.969 62.3748L142.36 63.304ZM141.622 62.027L142.36 63.304L143.969 62.3748L143.232 61.0978L141.622 62.027ZM142.241 59.7144C141.433 60.181 141.154 61.2159 141.622 62.027L143.232 61.0978C143.279 61.1793 143.25 61.2812 143.172 61.3265L142.241 59.7144ZM148.517 56.0909L142.241 59.7144L143.172 61.3265L149.448 57.703L148.517 56.0909ZM149.787 56.4324L146.186 50.1955L144.577 51.1247L148.178 57.3616L149.787 56.4324ZM146.186 50.1955C146.233 50.277 146.205 50.3789 146.126 50.4242L145.195 48.8122C144.387 49.2787 144.109 50.3136 144.577 51.1247L146.186 50.1955ZM146.126 50.4242L147.403 49.687L146.472 48.0749L145.195 48.8122L146.126 50.4242ZM147.403 49.687C147.325 49.7323 147.222 49.7063 147.175 49.6247L148.784 48.6955C148.316 47.8843 147.281 47.6083 146.472 48.0749L147.403 49.687ZM147.175 49.6247L150.776 55.8616L152.385 54.9323L148.784 48.6955L147.175 49.6247ZM157.374 50.9771L151.115 54.5909L152.046 56.203L158.305 52.5892L157.374 50.9771ZM159.686 51.5977C159.218 50.7865 158.182 50.5106 157.374 50.9771L158.305 52.5892C158.227 52.6345 158.124 52.6085 158.077 52.527L159.686 51.5977ZM160.424 52.8747L159.686 51.5977L158.077 52.527L158.814 53.8039L160.424 52.8747Z" fill="#191919" mask="url(#path-14-outside-1_3500_8251)"/>
</svg>
