<svg width="70" height="70" viewBox="0 0 70 70" fill="none" xmlns="http://www.w3.org/2000/svg">
<path d="M11 22H63C64.1046 22 65 22.8954 65 24V45C65 46.1046 64.1046 47 63 47H13C11.8954 47 11 46.1046 11 45V22Z" fill="#FA6030"/>
<path d="M22.366 33.662H27.462V35.062H22.366V38.016H27.686V39.5H20.602V29.504H27.686V30.96H22.366V33.662ZM32.6998 39.5H30.7958L28.0657 32.108H29.8578L31.7478 37.666H31.8038L33.7078 32.108H35.4578L32.6998 39.5ZM40.7651 37.162L42.4311 37.33C42.1231 38.394 41.1851 39.682 38.9451 39.682C36.7891 39.682 35.3751 38.142 35.3751 35.818C35.3751 33.48 36.7331 31.94 38.9311 31.94C41.1431 31.94 42.6831 33.494 42.4871 36.182H37.0411C37.0691 37.47 37.7971 38.422 38.9451 38.422C40.1491 38.422 40.6111 37.666 40.7651 37.162ZM38.9311 33.186C37.7691 33.186 37.1671 34.04 37.0691 35.02H40.8211C40.7231 34.04 40.1211 33.186 38.9311 33.186ZM44.9597 33.074L45.0157 33.088C45.5617 32.29 46.3737 31.94 47.3257 31.94C48.6837 31.94 49.9437 32.738 49.9437 34.614V39.5H48.3057V35.076C48.3057 33.76 47.7597 33.284 46.7657 33.284C45.8837 33.284 45.0297 34.026 45.0297 35.454V39.5H43.3917V32.108H44.9597V33.074ZM54.1863 38.17C54.3683 38.17 54.6623 38.17 54.8723 38.156V39.514C54.7043 39.528 54.1303 39.542 53.7243 39.542C52.3383 39.542 51.7083 39.22 51.7083 37.848V33.284H50.5043V32.108H51.7083V30.022H53.3463V32.108H54.9423V33.284H53.3463V37.414C53.3463 38.1 53.6123 38.17 54.1863 38.17Z" fill="#191919"/>
<path opacity="0.3" d="M2 35L11 22V35H2Z" fill="#FA6030"/>
</svg>
