<svg width="95" height="90" viewBox="0 0 95 90" fill="none" xmlns="http://www.w3.org/2000/svg">
<mask id="path-1-outside-1_5360_4192" maskUnits="userSpaceOnUse" x="-1.20089" y="0.862248" width="96.6567" height="89.9372" fill="black">
<rect fill="white" x="-1.20089" y="0.862248" width="96.6567" height="89.9372"/>
<path fill-rule="evenodd" clip-rule="evenodd" d="M80.3565 2.39816C81.8166 2.17827 83.1785 3.18366 83.3984 4.64376L93.9199 74.5088C94.1398 75.9689 93.1344 77.3308 91.6743 77.5507L20.8203 88.2211C19.3603 88.441 17.9983 87.4356 17.7785 85.9755L10.7917 39.582C10.708 39.6081 10.6158 39.614 10.5214 39.5939L4.32525 38.2746C4.10733 38.2282 3.94103 38.0516 3.90785 37.8313L1.52496 22.0083C1.49178 21.788 1.59868 21.5702 1.79326 21.4617L7.32602 18.376C7.41037 18.329 7.50016 18.3075 7.58789 18.3079L7.25697 16.1105C7.03708 14.6504 8.04247 13.2885 9.50258 13.0686L80.3565 2.39816Z"/>
</mask>
<path fill-rule="evenodd" clip-rule="evenodd" d="M80.3565 2.39816C81.8166 2.17827 83.1785 3.18366 83.3984 4.64376L93.9199 74.5088C94.1398 75.9689 93.1344 77.3308 91.6743 77.5507L20.8203 88.2211C19.3603 88.441 17.9983 87.4356 17.7785 85.9755L10.7917 39.582C10.708 39.6081 10.6158 39.614 10.5214 39.5939L4.32525 38.2746C4.10733 38.2282 3.94103 38.0516 3.90785 37.8313L1.52496 22.0083C1.49178 21.788 1.59868 21.5702 1.79326 21.4617L7.32602 18.376C7.41037 18.329 7.50016 18.3075 7.58789 18.3079L7.25697 16.1105C7.03708 14.6504 8.04247 13.2885 9.50258 13.0686L80.3565 2.39816Z" fill="#FA6030"/>
<path d="M80.3565 2.39816L80.4804 3.22056L80.3565 2.39816ZM91.6743 77.5507L91.7981 78.3731L91.6743 77.5507ZM20.8203 88.2211L20.6965 87.3987L20.8203 88.2211ZM17.7785 85.9755L18.6009 85.8517L17.7785 85.9755ZM10.7917 39.582L10.5435 38.7882L11.4696 38.4986L11.6141 39.4581L10.7917 39.582ZM10.5214 39.5939L10.6946 38.7805L10.6946 38.7805L10.5214 39.5939ZM4.32525 38.2746L4.49845 37.4612L4.49845 37.4612L4.32525 38.2746ZM3.90785 37.8313L4.73025 37.7074L3.90785 37.8313ZM1.52496 22.0083L0.702556 22.1322L1.52496 22.0083ZM1.79326 21.4617L2.19835 22.188L2.19835 22.188L1.79326 21.4617ZM7.32602 18.376L7.73112 19.1024L7.73111 19.1024L7.32602 18.376ZM7.58789 18.3079L8.41029 18.184L8.55479 19.1436L7.58444 19.1395L7.58789 18.3079ZM7.25697 16.1105L6.43457 16.2343L7.25697 16.1105ZM9.50258 13.0686L9.37872 12.2462L9.50258 13.0686ZM82.576 4.76761C82.4245 3.76171 81.4863 3.06907 80.4804 3.22056L80.2327 1.57575C82.147 1.28746 83.9325 2.60561 84.2208 4.51991L82.576 4.76761ZM93.0975 74.6327L82.576 4.76761L84.2208 4.51991L94.7423 74.385L93.0975 74.6327ZM91.5504 76.7283C92.5563 76.5768 93.249 75.6386 93.0975 74.6327L94.7423 74.385C95.0306 76.2993 93.7124 78.0848 91.7981 78.3731L91.5504 76.7283ZM20.6965 87.3987L91.5504 76.7283L91.7981 78.3731L20.9442 89.0435L20.6965 87.3987ZM18.6009 85.8517C18.7523 86.8576 19.6906 87.5502 20.6965 87.3987L20.9442 89.0435C19.0299 89.3318 17.2443 88.0137 16.9561 86.0994L18.6009 85.8517ZM11.6141 39.4581L18.6009 85.8517L16.9561 86.0994L9.96931 39.7058L11.6141 39.4581ZM10.6946 38.7805C10.6463 38.7702 10.5933 38.7726 10.5435 38.7882L11.0399 40.3757C10.8226 40.4437 10.5854 40.4579 10.3482 40.4074L10.6946 38.7805ZM4.49845 37.4612L10.6946 38.7805L10.3482 40.4074L4.15205 39.0881L4.49845 37.4612ZM4.73025 37.7074C4.71182 37.5851 4.61946 37.4869 4.49845 37.4612L4.15205 39.0881C3.59521 38.9695 3.17023 38.5181 3.08545 37.9551L4.73025 37.7074ZM2.34735 21.8845L4.73025 37.7074L3.08545 37.9551L0.702556 22.1322L2.34735 21.8845ZM2.19835 22.188C2.30641 22.1278 2.36578 22.0068 2.34735 21.8845L0.702556 22.1322C0.617773 21.5692 0.890951 21.0126 1.38817 20.7353L2.19835 22.188ZM7.73111 19.1024L2.19835 22.188L1.38817 20.7353L6.92093 17.6497L7.73111 19.1024ZM7.58444 19.1395C7.63669 19.1397 7.68801 19.1264 7.73112 19.1024L6.92092 17.6497C7.13273 17.5316 7.36363 17.4752 7.59134 17.4762L7.58444 19.1395ZM8.07937 15.9866L8.41029 18.184L6.76549 18.4317L6.43457 16.2343L8.07937 15.9866ZM9.62643 13.891C8.62052 14.0425 7.92788 14.9807 8.07937 15.9866L6.43457 16.2343C6.14628 14.32 7.46442 12.5345 9.37872 12.2462L9.62643 13.891ZM80.4804 3.22056L9.62643 13.891L9.37872 12.2462L80.2327 1.57575L80.4804 3.22056Z" fill="black" mask="url(#path-1-outside-1_5360_4192)"/>
<rect x="16.688" y="11.8301" width="6" height="76" transform="rotate(-8.56423 16.688 11.8301)" fill="url(#paint0_linear_5360_4192)"/>
<path d="M48.9696 39.197C48.6149 38.6747 49.3126 38.0866 49.7752 38.5178L53.4422 41.9363C53.7476 42.221 54.249 42.0609 54.3289 41.6533L55.2891 36.7578C55.4102 36.1403 56.3234 36.2143 56.3436 36.8433L56.5031 41.8294C56.5164 42.2446 56.9855 42.4833 57.3327 42.2515L61.5022 39.4679C62.0282 39.1168 62.6221 39.8096 62.1879 40.2679L58.7465 43.9009C58.4599 44.2034 58.6219 44.701 59.033 44.7808L63.9695 45.7397C64.5922 45.8607 64.5188 46.7665 63.8847 46.7856L58.8583 46.9373C58.4397 46.9499 58.1997 47.4149 58.4339 47.7596L61.2456 51.8992C61.6003 52.4214 60.9026 53.0096 60.44 52.5784L56.773 49.1599C56.4676 48.8752 55.9662 49.0352 55.8863 49.4429L54.9261 54.3383C54.805 54.9559 53.8918 54.8819 53.8716 54.2529L53.7121 49.2668C53.6988 48.8515 53.2297 48.6129 52.8825 48.8447L48.713 51.6282C48.187 51.9794 47.5931 51.2866 48.0273 50.8283L51.4687 47.1953C51.7552 46.8928 51.5932 46.3952 51.1822 46.3153L46.2457 45.3565C45.623 45.2355 45.6964 44.3297 46.3305 44.3106L51.3569 44.1589C51.7754 44.1463 52.0154 43.6813 51.7813 43.3366L48.9696 39.197Z" fill="#191919"/>
<defs>
<linearGradient id="paint0_linear_5360_4192" x1="19.688" y1="38.2768" x2="19.688" y2="118.425" gradientUnits="userSpaceOnUse">
<stop stop-color="#191919"/>
<stop offset="1" stop-color="#FA6030"/>
</linearGradient>
</defs>
</svg>
