<svg width="166" height="40" viewBox="0 0 166 40" fill="none" xmlns="http://www.w3.org/2000/svg">
<rect x="46.5" y="0.871094" width="118.356" height="38" rx="18.7601" fill="white"/>
<rect x="46.5" y="0.871094" width="118.356" height="38" rx="18.7601" stroke="black"/>
<path d="M75.3125 19.2148V20.3242H62.5V19.2148H68.1719V18.1836H64.1406V15.0898H72.2188V14.0898H64.1094V13.0586H73.7031V16.0742H65.6094V17.1367H73.9375V18.1836H69.6406V19.2148H75.3125ZM64.0156 22.3242V21.2617H73.7344V24.3398H65.5156V25.5117H74.1719V26.5586H64.0312V23.3555H72.2656V22.3242H64.0156ZM87.5531 12.7148V21.293H86.0688V12.7148H87.5531ZM76.6469 14.793V13.5742H83.0844V17.543H78.1313V19.293C80.5844 19.2773 82.3734 19.1992 84.5063 18.8711L84.6938 20.0742C82.4047 20.4492 80.4984 20.5117 77.85 20.5117H76.6781V16.4023H81.6156V14.793H76.6469ZM78.1156 24.1211C78.1156 22.4883 79.9125 21.5508 82.8813 21.5586C85.8422 21.5508 87.6469 22.4883 87.6469 24.1211C87.6469 25.7383 85.8422 26.6758 82.8813 26.668C79.9125 26.6758 78.1156 25.7383 78.1156 24.1211ZM79.5844 24.1211C79.5922 25.0039 80.8031 25.5039 82.8813 25.4961C84.9516 25.5039 86.1625 25.0039 86.1625 24.1211C86.1625 23.2305 84.9516 22.7227 82.8813 22.7305C80.8031 22.7227 79.5922 23.2305 79.5844 24.1211ZM101.481 12.6992V26.6992H100.059V12.6992H101.481ZM89.2156 22.0742C89.6219 22.0742 90.0906 22.0742 90.5906 22.0664V15.6367H89.5125V14.418H95.9344V15.6367H94.8563V21.8945C95.3328 21.8555 95.7938 21.8008 96.2156 21.7461L96.325 22.8242C94.1063 23.2617 91.2 23.3242 89.3875 23.3242L89.2156 22.0742ZM91.9344 22.043C92.4422 22.0352 92.9656 22.0117 93.4813 21.9883V15.6367H91.9344V22.043ZM95.5594 19.2773V17.9492H97.3094V13.0117H98.7156V25.9805H97.3094V19.2773H95.5594ZM114.394 12.6992V26.7305H112.909V12.6992H114.394ZM103.284 18.6523C103.284 15.6602 104.792 13.7539 106.909 13.7461C108.987 13.7539 110.519 15.6602 110.519 18.6523C110.519 21.6758 108.987 23.582 106.909 23.5742C104.792 23.582 103.284 21.6758 103.284 18.6523ZM104.722 18.6523C104.714 20.8789 105.605 22.2461 106.909 22.2461C108.191 22.2461 109.081 20.8789 109.081 18.6523C109.081 16.457 108.191 15.082 106.909 15.0742C105.605 15.082 104.714 16.457 104.722 18.6523ZM124.353 14.0898V15.3086H122.822V21.8945C123.486 21.8477 124.134 21.7852 124.759 21.7148L124.853 22.8086C122.002 23.2617 118.72 23.3242 116.291 23.3242L116.134 22.0898L117.916 22.0664V15.3086H116.556V14.0898H124.353ZM119.369 22.043C120.033 22.0273 120.72 22.0039 121.4 21.9727V15.3086H119.369V22.043ZM123.9 19.1367V17.918H126.431V12.6992H127.9V26.6992H126.431V19.1367H123.9Z" fill="#191919"/>
<path d="M149.356 15.1934L140 24.5498" stroke="black" stroke-width="1.1"/>
<path d="M149.355 24.5498L139.999 15.1934" stroke="black" stroke-width="1.1"/>
<circle cx="18.5" cy="19.8711" r="17.9991" fill="white" stroke="#191919" stroke-width="1.00175"/>
<path d="M9 19.8711H26.5385" stroke="#191919" stroke-width="1.5" stroke-linecap="square"/>
<path d="M21 13.3711L27 19.8711L21 26.3711" stroke="#191919" stroke-width="1.5" stroke-linecap="square"/>
</svg>
