<svg width="266" height="136" viewBox="0 0 266 136" fill="none" xmlns="http://www.w3.org/2000/svg">
<rect x="105.5" y="36.5" width="63" height="78" rx="1.5" fill="url(#paint0_linear_3502_5443)" stroke="#191919"/>
<path fill-rule="evenodd" clip-rule="evenodd" d="M130.832 71.5756C132.03 71.2577 133.258 71.9704 133.576 73.1675L139.098 93.9615C139.415 95.1586 138.703 96.3867 137.506 96.7046L127.851 99.2685L112.103 89.7116L109.413 79.5841C109.095 78.387 109.808 77.1588 111.005 76.8409L130.832 71.5756Z" fill="#FA6030"/>
<path d="M133.576 73.1675L133.167 73.2761L133.576 73.1675ZM139.098 93.9615L139.506 93.8529L139.098 93.9615ZM127.851 99.2685L127.96 99.6774L127.785 99.7236L127.632 99.6302L127.851 99.2685ZM112.103 89.7116L111.883 90.0733L111.737 89.9849L111.694 89.8202L112.103 89.7116ZM109.413 79.5841L109.822 79.4755L109.413 79.5841ZM133.167 73.2761C132.909 72.3048 131.912 71.7265 130.941 71.9845L130.724 71.1667C132.147 70.7889 133.607 71.636 133.984 73.0589L133.167 73.2761ZM138.689 94.0701L133.167 73.2761L133.984 73.0589L139.506 93.8529L138.689 94.0701ZM137.397 96.2958C138.368 96.0378 138.947 95.0414 138.689 94.0701L139.506 93.8529C139.884 95.2758 139.037 96.7356 137.614 97.1135L137.397 96.2958ZM127.742 98.8596L137.397 96.2958L137.614 97.1135L127.96 99.6774L127.742 98.8596ZM127.632 99.6302L111.883 90.0733L112.322 89.35L128.07 98.9069L127.632 99.6302ZM109.822 79.4755L112.511 89.603L111.694 89.8202L109.004 79.6926L109.822 79.4755ZM111.114 77.2498C110.142 77.5077 109.564 78.5042 109.822 79.4755L109.004 79.6926C108.626 78.2697 109.474 76.8099 110.896 76.4321L111.114 77.2498ZM130.941 71.9845L111.114 77.2498L110.896 76.4321L130.724 71.1667L130.941 71.9845Z" fill="black"/>
<path d="M131 77L124.221 78.7437" stroke="black" stroke-width="0.846065"/>
<path d="M132 79L114.603 83.6199" stroke="black" stroke-width="0.846065"/>
<path fill-rule="evenodd" clip-rule="evenodd" d="M127.939 100.312L125.032 89.3646C124.714 88.1675 123.486 87.4548 122.289 87.7727L111.341 90.6799L127.939 100.312Z" fill="#E5E2CE"/>
<path d="M111.435 90.3356L121.832 87.5746C123.03 87.2567 124.258 87.9695 124.576 89.1666L127.337 99.5635" stroke="black" stroke-width="0.846065"/>
<path fill-rule="evenodd" clip-rule="evenodd" d="M90.5092 45.6723C89.1234 45.301 87.699 46.1234 87.3277 47.5092L80.9078 71.4686C80.5364 72.8544 81.3588 74.2788 82.7446 74.6501L94.153 77.707L112.154 66.9032L115.34 55.0149C115.711 53.6291 114.888 52.2047 113.503 51.8334L90.5092 45.6723Z" fill="#85CEAF"/>
<path d="M94.153 77.707L94.0262 78.1803L94.2269 78.2341L94.4051 78.1271L94.153 77.707ZM112.154 66.9032L112.406 67.3234L112.576 67.2214L112.627 67.0301L112.154 66.9032ZM87.801 47.636C88.1023 46.5116 89.258 45.8444 90.3823 46.1456L90.636 45.199C88.9888 44.7577 87.2957 45.7352 86.8544 47.3823L87.801 47.636ZM81.3811 71.5954L87.801 47.636L86.8544 47.3823L80.4345 71.3418L81.3811 71.5954ZM82.8714 74.1768C81.747 73.8755 81.0798 72.7198 81.3811 71.5954L80.4345 71.3418C79.9931 72.989 80.9706 74.682 82.6178 75.1234L82.8714 74.1768ZM94.2798 77.2337L82.8714 74.1768L82.6178 75.1234L94.0262 78.1803L94.2798 77.2337ZM94.4051 78.1271L112.406 67.3234L111.902 66.4831L93.9008 77.2868L94.4051 78.1271ZM114.866 54.8881L111.681 66.7764L112.627 67.0301L115.813 55.1417L114.866 54.8881ZM113.376 52.3067C114.5 52.608 115.167 53.7637 114.866 54.8881L115.813 55.1417C116.254 53.4946 115.277 51.8015 113.63 51.3601L113.376 52.3067ZM90.3823 46.1456L113.376 52.3067L113.63 51.3601L90.636 45.199L90.3823 46.1456Z" fill="black"/>
<path d="M90.001 52L97.7488 53.9929" stroke="black" stroke-width="0.98"/>
<path d="M89 55L109.284 60.4352" stroke="black" stroke-width="0.98"/>
<path fill-rule="evenodd" clip-rule="evenodd" d="M95.303 76.2594L98.1145 65.7668C98.4858 64.3811 99.9102 63.5587 101.296 63.93L111.788 66.7415L95.303 76.2594Z" fill="#E5E2CE"/>
<path d="M112.489 66.8823L100.509 63.6723C99.1234 63.301 97.699 64.1234 97.3277 65.5092L94.1177 77.4889" stroke="black" stroke-width="0.98"/>
<path d="M121.49 46.9156C121.49 46.192 122.003 45.5701 122.714 45.433L166.714 36.9403C167.645 36.7605 168.51 37.4742 168.51 38.4229V114.658C168.51 115.377 168.004 115.996 167.299 116.138L123.299 125.035C122.364 125.224 121.49 124.509 121.49 123.555V46.9156Z" fill="#FA6030" stroke="black" stroke-width="0.98"/>
<path d="M133.278 77.9395C133.467 77.456 134.192 77.6501 134.114 78.1637L133.747 80.5931C133.696 80.9321 134.038 81.1948 134.353 81.0576L136.604 80.0744C137.08 79.8666 137.455 80.5162 137.037 80.8245L135.06 82.283C134.784 82.4865 134.841 82.9142 135.16 83.0394L137.447 83.9364C137.931 84.126 137.737 84.8506 137.223 84.773L134.794 84.4061C134.455 84.3549 134.192 84.6972 134.329 85.0115L135.312 87.2631C135.52 87.7391 134.87 88.1142 134.562 87.6962L133.104 85.7189C132.9 85.443 132.472 85.4993 132.347 85.8185L131.45 88.1059C131.261 88.5895 130.536 88.3953 130.614 87.8817L130.981 85.4523C131.032 85.1133 130.689 84.8506 130.375 84.9878L128.124 85.971C127.648 86.1788 127.272 85.5292 127.69 85.2209L129.668 83.7624C129.944 83.5589 129.887 83.1312 129.568 83.006L127.281 82.109C126.797 81.9194 126.991 81.1948 127.505 81.2724L129.934 81.6393C130.273 81.6905 130.536 81.3482 130.399 81.034L129.416 78.7823C129.208 78.3063 129.857 77.9312 130.166 78.3492L131.624 80.3265C131.828 80.6024 132.255 80.5461 132.381 80.2269L133.278 77.9395Z" fill="black"/>
<path d="M211.648 116.648L177.707 82.7071C177.317 82.3166 176.683 82.3166 176.293 82.7071L173.464 85.5355C173.074 85.9261 173.074 86.5592 173.464 86.9497L207.406 120.891C207.796 121.281 208.429 121.281 208.82 120.891L211.648 118.062C212.039 117.672 212.039 117.039 211.648 116.648Z" fill="#929DD9" stroke="#191919" stroke-width="0.98" stroke-miterlimit="10"/>
<path d="M182.263 102.263L166.707 86.7071C166.317 86.3166 165.683 86.3166 165.293 86.7071L162.464 89.5355C162.074 89.9261 162.074 90.5592 162.464 90.9497L178.021 106.506C178.411 106.897 179.045 106.897 179.435 106.506L182.263 103.678C182.654 103.287 182.654 102.654 182.263 102.263Z" fill="#E5E2CE" stroke="#191919" stroke-width="0.98" stroke-miterlimit="10"/>
<path d="M75.2635 52.2635L59.7071 36.7071C59.3166 36.3166 58.6834 36.3166 58.2929 36.7071L55.4645 39.5355C55.0739 39.9261 55.0739 40.5592 55.4645 40.9497L71.0208 56.5061C71.4113 56.8966 72.0445 56.8966 72.435 56.5061L75.2635 53.6777C75.654 53.2871 75.654 52.654 75.2635 52.2635Z" fill="#F8E99A" stroke="#191919" stroke-width="0.98" stroke-miterlimit="10"/>
<defs>
<linearGradient id="paint0_linear_3502_5443" x1="137" y1="36" x2="137" y2="115" gradientUnits="userSpaceOnUse">
<stop/>
<stop offset="1" stop-color="#717171"/>
</linearGradient>
</defs>
</svg>
