<svg width="450" height="200" viewBox="0 0 450 200" fill="none" xmlns="http://www.w3.org/2000/svg">
<g clip-path="url(#clip0_5367_2534)">
<mask id="mask0_5367_2534" style="mask-type:alpha" maskUnits="userSpaceOnUse" x="0" y="0" width="450" height="207">
<rect width="450" height="207" fill="white"/>
</mask>
<g mask="url(#mask0_5367_2534)">
<rect x="-5" y="-5" width="461" height="266" fill="white"/>
</g>
<mask id="mask1_5367_2534" style="mask-type:alpha" maskUnits="userSpaceOnUse" x="-14" y="-31" width="492" height="360">
<rect x="-13.5" y="-30.5" width="491" height="358" rx="5.5" fill="#191919" stroke="#191919"/>
</mask>
<g mask="url(#mask1_5367_2534)">
<g filter="url(#filter0_f_5367_2534)">
<ellipse cx="401.5" cy="228" rx="167.5" ry="144" fill="#191919"/>
</g>
<g filter="url(#filter1_f_5367_2534)">
<ellipse cx="69" cy="22" rx="200" ry="144" fill="#FA6030"/>
</g>
<g filter="url(#filter2_f_5367_2534)">
<ellipse cx="341.5" cy="14" rx="167.5" ry="144" fill="#EFB6B6"/>
</g>
<g filter="url(#filter3_f_5367_2534)">
<ellipse cx="186.5" cy="213.5" rx="175.5" ry="155.5" fill="#B3CBE8"/>
</g>
<g opacity="0.7" filter="url(#filter4_f_5367_2534)">
<ellipse cx="14" cy="237" rx="160" ry="165" fill="#E5E2CE"/>
</g>
</g>
<path opacity="0.1" d="M246.968 101.119C249.738 96.1806 257.271 99.3585 255.667 104.788L243.391 146.337C242.332 149.921 245.636 153.268 249.234 152.255L290.938 140.521C296.388 138.987 299.468 146.561 294.494 149.266L256.435 169.965C253.152 171.751 253.121 176.454 256.381 178.282L294.168 199.473C299.106 202.243 295.929 209.776 290.499 208.172L248.95 195.897C245.366 194.838 242.019 198.141 243.032 201.739L254.766 243.443C256.3 248.893 248.726 251.973 246.021 247L225.322 208.94C223.536 205.657 218.833 205.626 217.005 208.886L195.814 246.673C193.044 251.612 185.511 248.434 187.115 243.004L199.39 201.455C200.449 197.871 197.146 194.524 193.548 195.537L151.844 207.271C146.394 208.805 143.314 201.231 148.287 198.526L186.347 177.827C189.63 176.041 189.661 171.339 186.401 169.511L148.614 148.319C143.675 145.549 146.853 138.016 152.283 139.62L193.832 151.896C197.416 152.955 200.763 149.651 199.75 146.053L188.016 104.349C186.482 98.8987 194.056 95.8188 196.761 100.793L217.46 138.852C219.246 142.135 223.948 142.166 225.777 138.906L246.968 101.119Z" fill="white"/>
<path d="M346.838 165.575C346.992 165.301 347.409 165.478 347.319 165.779L346.657 168.01C346.598 168.208 346.781 168.394 346.98 168.338L349.221 167.71C349.523 167.626 349.693 168.046 349.418 168.195L347.372 169.304C347.19 169.403 347.188 169.664 347.368 169.765L349.397 170.906C349.67 171.06 349.493 171.477 349.193 171.388L346.962 170.725C346.763 170.666 346.578 170.849 346.634 171.049L347.261 173.289C347.346 173.591 346.926 173.761 346.776 173.486L345.667 171.44C345.568 171.258 345.308 171.256 345.206 171.436L344.066 173.465C343.912 173.738 343.495 173.561 343.584 173.261L344.246 171.03C344.305 170.831 344.122 170.646 343.923 170.702L341.682 171.329C341.38 171.414 341.21 170.994 341.486 170.844L343.531 169.735C343.713 169.636 343.715 169.376 343.535 169.274L341.507 168.134C341.233 167.98 341.41 167.563 341.711 167.652L343.941 168.314C344.14 168.373 344.326 168.19 344.27 167.991L343.642 165.75C343.558 165.448 343.978 165.278 344.127 165.554L345.236 167.599C345.335 167.781 345.595 167.783 345.697 167.603L346.838 165.575Z" fill="white"/>
<path d="M176.589 23.6014C176.746 23.1393 177.435 23.2911 177.384 23.7765L177.014 27.2865C176.98 27.6069 177.312 27.8391 177.602 27.697L180.77 26.141C181.208 25.9258 181.587 26.5199 181.208 26.827L178.464 29.0474C178.214 29.2501 178.285 29.6493 178.59 29.7534L181.93 30.8931C182.392 31.0508 182.24 31.7392 181.755 31.6881L178.245 31.3182C177.924 31.2844 177.692 31.6168 177.834 31.9061L179.39 35.0739C179.605 35.5121 179.011 35.8916 178.704 35.5122L176.484 32.7687C176.281 32.5182 175.882 32.5891 175.778 32.8941L174.638 36.2344C174.481 36.6964 173.792 36.5446 173.843 36.0592L174.213 32.5492C174.247 32.2288 173.914 31.9966 173.625 32.1387L170.457 33.6947C170.019 33.9099 169.64 33.3158 170.019 33.0087L172.763 30.7883C173.013 30.5856 172.942 30.1864 172.637 30.0823L169.297 28.9426C168.835 28.7849 168.987 28.0965 169.472 28.1476L172.982 28.5175C173.303 28.5513 173.535 28.2189 173.393 27.9296L171.837 24.7618C171.621 24.3236 172.216 23.9441 172.523 24.3236L174.743 27.067C174.946 27.3175 175.345 27.2466 175.449 26.9416L176.589 23.6014Z" fill="white"/>
<path d="M30.1289 31.8125C30.1289 34.0781 31.7988 36.207 34.5039 37.0664L33.5469 38.5117C31.5352 37.8477 30.0215 36.4707 29.2207 34.7227C28.4395 36.627 26.877 38.1309 24.7969 38.8633L23.8398 37.3984C26.5645 36.4707 28.2441 34.2051 28.2539 31.8125V31.0508H24.3281V29.5469H33.9766V31.0508H30.1289V31.8125ZM26.7109 45.2891V39.7422H28.5859V43.7852H38.6836V45.2891H26.7109ZM36.3008 40.9531V28.1797H38.1562V40.9531H36.3008ZM55.0414 28.1797V38.082H53.1859V28.1797H55.0414ZM40.6078 36.2266C43.3422 35.3086 44.9926 32.9844 45.0023 30.543V28.8438H46.8969V30.543C46.8871 32.9062 48.5766 35.0352 51.2328 35.9336L50.3148 37.3594C48.2836 36.6855 46.7504 35.3086 45.9594 33.5117C45.1781 35.4355 43.6254 36.959 41.5258 37.6914L40.6078 36.2266ZM43.5375 45.4453V39.0195H55.0414V45.4453H43.5375ZM45.3734 43.9414H53.225V40.5039H45.3734V43.9414ZM65.3836 28.4531C69.3289 28.4434 71.6238 29.5078 71.6336 31.4609C71.6238 33.4238 69.3289 34.4883 65.3836 34.4883C61.4383 34.4883 59.1238 33.4238 59.1336 31.4609C59.1238 29.5078 61.4383 28.4434 65.3836 28.4531ZM57.4148 37.0469V35.5625H73.3719V37.0469H57.4148ZM59.3289 39.7812V38.3945H71.3602V42.4961H61.1648V44.0586H71.8484V45.4844H59.3484V41.1484H69.5242V39.7812H59.3289ZM61.0672 31.4609C61.0574 32.5449 62.6004 33.1016 65.3836 33.1016C68.1863 33.1016 69.7293 32.5449 69.7195 31.4609C69.7293 30.4258 68.1863 29.8203 65.3836 29.8203C62.6004 29.8203 61.0574 30.4258 61.0672 31.4609ZM92.5328 28.1602V32.3203H95.0719V33.8633H92.5328V38.043H90.6773V28.1602H92.5328ZM79.5641 37.1445V29.3125H87.3375V30.8164H81.4V35.6406C84.8082 35.6406 86.7223 35.5039 88.9195 35.0742L89.1344 36.5586C86.7711 37.0566 84.7008 37.1445 80.9508 37.1445H79.5641ZM81.3609 45.4258V38.9023H92.5328V45.4258H81.3609ZM83.1773 43.9414H90.6969V40.3867H83.1773V43.9414ZM100.355 29.4688C102.973 29.4785 104.838 31.8613 104.848 35.6016C104.838 39.3809 102.973 41.7637 100.355 41.7539C97.7383 41.7637 95.873 39.3809 95.8828 35.6016C95.873 31.8613 97.7383 29.4785 100.355 29.4688ZM97.6602 35.6016C97.6504 38.3848 98.7637 40.0938 100.355 40.0938C101.977 40.0938 103.07 38.3848 103.07 35.6016C103.07 32.8574 101.977 31.1387 100.355 31.1289C98.7637 31.1387 97.6504 32.8574 97.6602 35.6016ZM107.445 45.6602V28.1602H109.301V35.0156H112.113V36.5781H109.301V45.6602H107.445ZM118.862 32.6133C118.862 35.8164 120.659 39.0098 123.334 40.2109L122.202 41.6953C120.219 40.6992 118.715 38.7266 117.944 36.334C117.172 38.8535 115.649 40.9824 113.627 42.0273L112.455 40.5234C115.17 39.2246 116.977 35.8555 116.987 32.6133V29.625H118.862V32.6133ZM121.401 35.4844V33.9805H125.307V28.1602H127.143V45.6992H125.307V35.4844H121.401ZM32.4922 58.8984V70.2656H24.3086V58.8984H32.4922ZM26.125 68.7617H30.6562V60.3633H26.125V68.7617ZM35.4219 74.6602V57.1602H37.2773V64.0156H40.0898V65.5781H37.2773V74.6602H35.4219ZM48.4984 57.5312C52.3363 57.5215 54.7387 58.7715 54.7484 60.8906C54.7387 62.9707 52.3363 64.2012 48.4984 64.1914C44.6703 64.2012 42.2387 62.9707 42.2484 60.8906C42.2387 58.7715 44.6703 57.5215 48.4984 57.5312ZM40.5297 67.043V65.5391H56.4867V67.043H40.5297ZM42.4438 74.4453V68.6055H54.5336V74.4453H42.4438ZM44.1625 60.8906C44.1527 62.0527 45.8031 62.7363 48.4984 62.7461C51.1742 62.7363 52.8441 62.0527 52.8344 60.8906C52.8441 59.6797 51.1742 58.9863 48.4984 58.9961C45.8031 58.9863 44.1527 59.6797 44.1625 60.8906ZM44.2797 72.9414H52.7367V70.0898H44.2797V72.9414ZM65.3836 57.4531C69.3289 57.4434 71.6238 58.5078 71.6336 60.4609C71.6238 62.4238 69.3289 63.4883 65.3836 63.4883C61.4383 63.4883 59.1238 62.4238 59.1336 60.4609C59.1238 58.5078 61.4383 57.4434 65.3836 57.4531ZM57.4148 66.0469V64.5625H73.3719V66.0469H57.4148ZM59.3289 68.7812V67.3945H71.3602V71.4961H61.1648V73.0586H71.8484V74.4844H59.3484V70.1484H69.5242V68.7812H59.3289ZM61.0672 60.4609C61.0574 61.5449 62.6004 62.1016 65.3836 62.1016C68.1863 62.1016 69.7293 61.5449 69.7195 60.4609C69.7293 59.4258 68.1863 58.8203 65.3836 58.8203C62.6004 58.8203 61.0574 59.4258 61.0672 60.4609ZM92.4156 57.1602V64.25H95.2281V65.793H92.4156V74.6602H90.5797V57.1602H92.4156ZM78.6852 61.418V59.8945H83.0016V57.3945H84.857V59.8945H89.0563V61.418H78.6852ZM79.5836 66.7695C79.5836 64.3867 81.4195 62.707 83.9391 62.707C86.4488 62.707 88.2848 64.3867 88.2945 66.7695C88.2848 69.1719 86.4488 70.8418 83.9391 70.8516C81.4195 70.8418 79.5836 69.1719 79.5836 66.7695ZM81.3609 66.7695C81.3512 68.293 82.4449 69.3086 83.9391 69.2891C85.4234 69.3086 86.5074 68.293 86.5172 66.7695C86.5074 65.2754 85.4234 64.2402 83.9391 64.2305C82.4449 64.2402 81.3512 65.2754 81.3609 66.7695ZM112.016 64.0352V65.5586H109.301V74.6406H107.445V57.1602H109.301V64.0352H112.016ZM96.332 70.2461V58.8594H98.168V68.7031C100.609 68.6934 103.158 68.4883 105.941 67.9219L106.156 69.4844C103.158 70.0801 100.404 70.2559 97.7773 70.2461H96.332ZM128.569 71.0078V72.5703H112.553V71.0078H119.604V67.9414H114.506V62.375H124.78V59.9141H114.467V58.3906H126.616V63.8594H116.342V66.418H127.026V67.9414H121.44V71.0078H128.569ZM39.6602 99.9297V101.473H23.6445V99.9297H30.6953V95.8867H25.4805V87.5664H37.7461V95.8867H32.5312V99.9297H39.6602ZM27.2773 94.4219H35.9297V89.0508H27.2773V94.4219ZM45.2172 87.4688C47.8344 87.4785 49.6996 89.8613 49.7094 93.6016C49.6996 97.3809 47.8344 99.7637 45.2172 99.7539C42.6 99.7637 40.7348 97.3809 40.7445 93.6016C40.7348 89.8613 42.6 87.4785 45.2172 87.4688ZM42.5219 93.6016C42.5121 96.3848 43.6254 98.0938 45.2172 98.0938C46.8383 98.0938 47.932 96.3848 47.932 93.6016C47.932 90.8574 46.8383 89.1387 45.2172 89.1289C43.6254 89.1387 42.5121 90.8574 42.5219 93.6016ZM52.307 103.66V86.1602H54.1625V93.0156H56.975V94.5781H54.1625V103.66H52.307ZM73.4305 99.9297V101.473H57.4148V99.9297H61.243V95.3594C59.8074 94.5684 58.9285 93.3184 58.9383 91.7461C58.9285 88.9922 61.6336 87.1855 65.3836 87.1758C69.1434 87.1855 71.8484 88.9922 71.8484 91.7461C71.8484 93.2891 71.0086 94.5293 69.6023 95.3203V99.9297H73.4305ZM60.7352 91.7461C60.7352 93.6211 62.6395 94.8418 65.3836 94.8516C68.1082 94.8418 70.0418 93.6211 70.0516 91.7461C70.0418 89.8613 68.1082 88.6602 65.3836 88.6602C62.6395 88.6602 60.7352 89.8613 60.7352 91.7461ZM63.0789 99.9297H67.7273V96.043C67.0145 96.209 66.2234 96.2969 65.3836 96.2969C64.5633 96.2969 63.782 96.209 63.0789 96.043V99.9297Z" fill="white"/>
<path d="M222.482 47.4488C222.482 47.4488 220.909 47.6455 221.17 50.2751C221.431 52.9046 225.567 94.3006 225.567 94.3006C225.567 94.3006 225.853 97.0839 227.659 96.9981C229.464 96.9122 259.818 93.7103 259.818 93.7103L262.024 93.306L260.984 79.7757C260.984 79.7757 260.641 77.8295 263.554 77.4681C266.472 77.1068 273.974 75.307 273.974 75.307L271.967 52.2049C271.967 52.2049 267.014 51.0933 264.822 51.1899C262.536 50.5224 257.884 51.5977 256.107 51.1899C254.33 50.782 252.453 50.0246 252.321 48.497C252.189 46.9694 252.417 44.9659 252.417 44.9659L253.125 44L222.482 47.4488Z" fill="#929DD9"/>
<path d="M262.509 91.9344L261.316 81.3303C261.316 81.3303 259.847 77.3027 262.854 76.7192C265.862 76.1357 273.844 75.1981 273.844 75.1981L262.509 91.9344Z" fill="#333333"/>
<path d="M261.739 111.194C261.739 111.194 264.76 106.994 265.188 104.677C265.616 102.36 263.693 99.6157 263.693 99.6157L253.609 94.4274L262.321 93.483L269.118 82.0405C269.118 82.0405 273.465 83.8912 276.229 84.0239C278.989 84.1531 283.682 84.2822 285.18 81.5347C286.678 78.7873 290.116 69.8131 290.116 69.8131C290.116 69.8131 291.097 64.8347 288.483 61.7142C285.869 58.5937 281.218 54.1569 277.128 53.1382C273.037 52.1196 264.956 50.5378 261.55 50.6669C258.144 50.796 254.378 52.0694 252.87 49.4761C251.361 46.8829 251.739 43.7731 254.603 41.9008C257.467 40.0285 263.565 38.1706 265.541 38.0343C267.516 37.898 269.3 37.7458 269.3 37.7458C269.3 37.7458 270.825 33.8547 273.546 32.5598C276.267 31.265 282.116 29.7158 288.129 32.3162C294.142 34.9166 301.628 38.1742 301.628 38.1742C301.628 38.1742 307.002 37.1426 310.961 39.2933C316.539 43.54 328.752 53.9032 328.752 53.9032L332.238 48.4118C332.238 48.4118 333.855 42.8331 337.354 40.0175C340.852 37.2019 342.887 35.9109 348.022 37.6254C353.158 39.3399 353.368 45.8738 352.28 47.7927C351.192 49.7117 327.996 81.2151 327.996 81.2151L294.613 126L261.739 111.194Z" fill="white"/>
<path d="M200 207H284.153L291.837 144.942L301 129.105L258.362 110L200 207Z" fill="#FA6030"/>
<path d="M284.156 207L291.615 145.363L301 129.173L258.131 110L200 206.024" stroke="black" stroke-width="1.01283" stroke-miterlimit="10"/>
<path d="M269.576 81.9752C272.211 82.9041 275.233 83.7716 276.926 83.9028C278.859 84.0517 280.995 84.1651 283.007 83.1653C285.784 81.7862 286.951 79.0598 288.361 75.7414C289.922 72.0684 290.97 69.6044 290.648 66.6617C289.915 60.0178 282.731 56.0186 281.607 55.3911C275.591 52.0407 265.82 50.4879 258.951 50.9807C257.688 51.0728 254.502 51.3777 252.924 49.5129C251.693 48.0593 252.04 45.9959 252.061 45.8683C253.042 40.4687 265.261 38.4868 266.145 38.3521C268.16 38.0437 280.577 36.3419 291.407 44.6132C294.582 47.0382 296.701 49.6192 298 51.4309" stroke="black" stroke-width="1.01283" stroke-miterlimit="10"/>
<path d="M261.366 111C261.366 111 266.286 105.306 264.676 101.535C263.656 99.15 260.805 97.6744 254.074 94.4273" stroke="black" stroke-width="1.01283" stroke-miterlimit="10"/>
<path d="M319.609 62C319.609 62 320.488 60.9872 319.609 57.3839C319.1 55.2912 318.232 51.5468 312.715 46.1967C307.874 41.503 302.898 39.1244 292.95 34.3707C289.274 32.6132 286.206 31.3075 282.066 31.071C279.621 30.9299 276.279 30.7852 273.179 32.9097C270.648 34.6425 269.491 37.0528 269 38.3127" stroke="black" stroke-width="1.01283" stroke-miterlimit="10"/>
<path d="M301.625 38.5821C301.625 38.5821 306.823 35.9878 314.018 41.7528C321.213 47.5178 329.799 54.5355 331.821 57.0443C333.84 59.5496 336.492 69.2006 333.969 73.0866C331.445 76.9727 295 126 295 126" stroke="black" stroke-width="1.01283" stroke-miterlimit="10"/>
<path d="M329 53.7384C329 53.7384 331.585 50.1201 332.452 47.5911C333.314 45.0622 335.907 40.6056 339.489 38.3172C343.067 36.0288 349.858 36.6301 351.957 40.8462C354.056 45.0622 352.82 47.5911 349.735 51.6869C346.649 55.7827 331.882 76.041 331.882 76.041" stroke="black" stroke-width="1.01283" stroke-miterlimit="10"/>
<path d="M253 43.4313C257.047 46.662 262.235 46.7691 265.257 44.1808C267.717 42.0725 267.96 38.8492 268 38" stroke="black" stroke-width="1.01283" stroke-miterlimit="10"/>
<path d="M352 41C349.102 41.0283 346.525 42.5628 345.488 44.8539C344.204 47.7001 345.511 51.2605 348.735 53" stroke="black" stroke-width="1.01283" stroke-miterlimit="10"/>
<path d="M263 93.0388C261.55 93.3509 260.1 93.6593 258.651 93.9713L228.294 96.9876C226.909 97.1239 225.676 96.1197 225.539 94.746L221.013 49.7421C220.944 49.0534 221.16 48.4043 221.568 47.9057C222.116 47.2386 222.931 47.0665 223.267 46.9984C224.94 46.6684 236.889 45.4705 253.284 44" stroke="black" stroke-width="0.871547" stroke-miterlimit="10"/>
<path d="M273.654 75.0856C270.174 75.5173 266.695 75.949 263.219 76.3808C261.863 76.5152 260.875 77.7289 261.013 79.0842L262.378 92.5256L274 75.1069C273.231 67.4034 272.465 59.7035 271.695 52" stroke="black" stroke-width="0.871547" stroke-miterlimit="10" stroke-linecap="square" stroke-linejoin="bevel"/>
<path d="M271.365 82.9185L262.272 99L254 94.4978L259.368 93.453L262.388 92.2108C264.687 88.8072 266.988 85.4036 269.286 82C269.856 82.3985 270.795 82.52 271.365 82.9185Z" fill="black"/>
<path d="M329 54.2418L332.026 57.4099L333.42 60.8969L334.611 66.9531L334.826 71.402L339.56 64.9316L330.941 50L329 54.2418Z" fill="black"/>
<path d="M83 94H183" stroke="white" stroke-width="1.8"/>
</g>
<defs>
<filter id="filter0_f_5367_2534" x="34" y="-116" width="810" height="694" filterUnits="userSpaceOnUse" color-interpolation-filters="sRGB">
<feFlood flood-opacity="0" result="BackgroundImageFix"/>
<feBlend mode="normal" in="SourceGraphic" in2="BackgroundImageFix" result="shape"/>
<feGaussianBlur stdDeviation="100" result="effect1_foregroundBlur_5367_2534"/>
</filter>
<filter id="filter1_f_5367_2534" x="-331" y="-322" width="875" height="694" filterUnits="userSpaceOnUse" color-interpolation-filters="sRGB">
<feFlood flood-opacity="0" result="BackgroundImageFix"/>
<feBlend mode="normal" in="SourceGraphic" in2="BackgroundImageFix" result="shape"/>
<feGaussianBlur stdDeviation="100" result="effect1_foregroundBlur_5367_2534"/>
</filter>
<filter id="filter2_f_5367_2534" x="-26" y="-330" width="810" height="694" filterUnits="userSpaceOnUse" color-interpolation-filters="sRGB">
<feFlood flood-opacity="0" result="BackgroundImageFix"/>
<feBlend mode="normal" in="SourceGraphic" in2="BackgroundImageFix" result="shape"/>
<feGaussianBlur stdDeviation="100" result="effect1_foregroundBlur_5367_2534"/>
</filter>
<filter id="filter3_f_5367_2534" x="-189" y="-142" width="826" height="717" filterUnits="userSpaceOnUse" color-interpolation-filters="sRGB">
<feFlood flood-opacity="0" result="BackgroundImageFix"/>
<feBlend mode="normal" in="SourceGraphic" in2="BackgroundImageFix" result="shape"/>
<feGaussianBlur stdDeviation="100" result="effect1_foregroundBlur_5367_2534"/>
</filter>
<filter id="filter4_f_5367_2534" x="-346" y="-128" width="795" height="730" filterUnits="userSpaceOnUse" color-interpolation-filters="sRGB">
<feFlood flood-opacity="0" result="BackgroundImageFix"/>
<feBlend mode="normal" in="SourceGraphic" in2="BackgroundImageFix" result="shape"/>
<feGaussianBlur stdDeviation="100" result="effect1_foregroundBlur_5367_2534"/>
</filter>
<clipPath id="clip0_5367_2534">
<rect width="450" height="200" fill="white"/>
</clipPath>
</defs>
</svg>
