<svg width="65" height="64" viewBox="0 0 65 64" fill="none" xmlns="http://www.w3.org/2000/svg">
<path fill-rule="evenodd" clip-rule="evenodd" d="M13.1029 0.632072C10.2846 0.282988 7.72492 2.28559 7.38558 5.10501L1.44482 54.4651C1.10549 57.2845 3.11503 59.8531 5.93326 60.2022L29.2316 63.0881L60.968 36.9155L63.9533 12.1118C64.2926 9.29242 62.2831 6.72384 59.4648 6.37476L13.1029 0.632072Z" fill="#DDDDDD"/>
<path d="M13.1029 0.632072L13.1626 0.135654L13.1029 0.632072ZM29.2316 63.0881L29.1719 63.5845L29.3849 63.6109L29.5502 63.4745L29.2316 63.0881ZM60.968 36.9155L61.2866 37.302L61.4404 37.1752L61.4642 36.977L60.968 36.9155ZM59.4648 6.37476L59.4051 6.87118L59.4648 6.37476ZM7.88179 5.16647C8.18813 2.62122 10.4989 0.813351 13.0431 1.12849L13.1626 0.135654C10.0703 -0.247375 7.26171 1.94996 6.88938 5.04354L7.88179 5.16647ZM1.94103 54.5266L7.88179 5.16647L6.88938 5.04354L0.948614 54.4036L1.94103 54.5266ZM5.993 59.7058C3.44882 59.3906 1.63469 57.0718 1.94103 54.5266L0.948614 54.4036C0.576284 57.4972 2.78123 60.3156 5.87351 60.6986L5.993 59.7058ZM29.2914 62.5916L5.993 59.7058L5.87351 60.6986L29.1719 63.5845L29.2914 62.5916ZM29.5502 63.4745L61.2866 37.302L60.6494 36.529L28.913 62.7016L29.5502 63.4745ZM63.4571 12.0504L60.4718 36.854L61.4642 36.977L64.4495 12.1733L63.4571 12.0504ZM59.4051 6.87118C61.9493 7.18632 63.7634 9.50512 63.4571 12.0504L64.4495 12.1733C64.8218 9.07972 62.6169 6.26137 59.5246 5.87834L59.4051 6.87118ZM13.0431 1.12849L59.4051 6.87118L59.5246 5.87834L13.1626 0.135654L13.0431 1.12849Z" fill="black"/>
<path d="M14.4141 12.7539L29.3175 14.4535" stroke="#191919"/>
<path d="M13.6582 18.8633L55.3397 24.0262" stroke="#191919"/>
<path d="M13 25L54.6815 30.1629" stroke="#191919"/>
<path fill-rule="evenodd" clip-rule="evenodd" d="M29.0232 62.7624L31.7495 38.1847C32.0626 35.3623 34.6036 33.3357 37.4249 33.6582L60.97 36.3499L29.0232 62.7624Z" fill="#494949"/>
<path d="M61.0156 36.3438L37.5779 33.6772C34.7958 33.3606 32.2793 35.3292 31.9171 38.1056L28.6925 62.8174" stroke="black"/>
<path d="M56.6 10.2603C56.6949 10.0163 57.0601 10.1152 57.0216 10.3745L56.7283 12.3541C56.703 12.5252 56.8757 12.6583 57.0337 12.5894L58.8619 11.7926C59.1014 11.6882 59.2911 12.0168 59.0809 12.172L57.4767 13.3568C57.338 13.4592 57.3669 13.6753 57.5278 13.7389L59.3888 14.4747C59.6326 14.5711 59.5357 14.9368 59.277 14.897L57.3016 14.593C57.1308 14.5667 56.999 14.7392 57.0684 14.8981L57.8721 16.7355C57.9774 16.9762 57.6507 17.1648 57.4949 16.9533L56.3055 15.3386C56.2027 15.199 55.9873 15.2269 55.9247 15.3879L55.2002 17.2506C55.1053 17.4946 54.7402 17.3956 54.7786 17.1363L55.0719 15.1568C55.0973 14.9856 54.9246 14.8526 54.7665 14.9215L52.9383 15.7183C52.6989 15.8227 52.5092 15.4941 52.7193 15.3389L54.3235 14.1541C54.4622 14.0517 54.4333 13.8356 54.2724 13.772L52.4114 13.0361C52.1677 12.9398 52.2645 12.5741 52.5233 12.6139L54.4987 12.9179C54.6695 12.9442 54.8013 12.7717 54.7318 12.6128L53.9282 10.7754C53.8229 10.5347 54.1496 10.3461 54.3054 10.5576L55.4948 12.1723C55.5976 12.3119 55.8129 12.284 55.8756 12.123L56.6 10.2603Z" fill="#191919"/>
</svg>
