<svg width="137" height="45" viewBox="0 0 137 45" fill="none" xmlns="http://www.w3.org/2000/svg">
<path d="M39 31.1339C38.9189 31.6818 38.7125 32.1614 38.6314 32.7092C37.8358 32.9157 35.1427 33.9865 33.1306 36.964C31.6244 39.195 31.3823 41.9253 31.3823 43C21.2561 43 11.13 43 1 43L1.39392 42.0591H2.29763C3.46395 42.0591 6.77368 41.8408 7.58083 41.4041C8.39185 40.9674 8.94025 40.0663 9.23377 39.4946C9.52728 38.9229 9.95596 37.6685 10.5198 35.7312L17.9232 10.6614C18.5064 8.72414 18.881 7.36248 18.9698 6.86625C19.2247 5.49267 19.889 4.94086 17.4405 4.94086H17.062L17.4559 4H28.0919L27.6979 4.94086H26.6938C25.4116 4.94086 24.4153 5.10759 23.6969 5.43312C22.9825 5.76262 22.4495 6.22313 22.1019 6.81464C21.7543 7.40615 21.2098 8.95043 20.476 11.4475L13.3545 35.5605C12.8061 37.4184 12.5358 38.5617 12.5358 38.9865C12.5358 39.8956 12.8911 40.9873 13.594 41.4597C14.3007 41.9361 15.8687 42.1703 18.2979 42.1703H20.2211C25.4773 42.4958 28.0018 41.1441 29.5698 39.6673C30.9215 38.397 31.6508 37.0201 33.5621 34.938C35.4754 33.0827 37.5788 31.6937 39 31.1339Z" fill="black" stroke="black" stroke-width="0.328519" stroke-miterlimit="10"/>
<path d="M48.5052 34.9152H49.9039C47.4332 40.3064 44.2651 43 40.3957 43C38.8017 43 37.5026 42.4535 36.5023 41.3565C35.5021 40.2634 35 38.78 35 36.914C35 34.5522 35.6456 31.8859 36.9407 28.9151C38.2318 25.9443 40.0689 23.3834 42.4519 21.2285C44.835 19.0775 46.9072 18 48.6765 18C49.7644 18 50.5893 18.3396 51.1552 19.015C51.7171 19.6903 52 20.5336 52 21.5447C52 23.602 50.9519 25.5773 48.8519 27.4706C46.7518 29.3679 43.2043 31.2648 39.0041 33.0137C38.4581 34.669 38.2136 36.2396 38.2136 37.723C38.2136 38.941 38.5179 39.7083 39.0041 40.3212C39.5431 41.0007 40.5192 41.3097 41.4756 41.3097C44.1416 41.3136 46.4848 39.1821 48.5052 34.9152ZM39.5719 31.364C42.0785 30.2593 44.6078 28.8604 46.6123 26.9163C48.6128 24.9722 49.617 23.2116 49.617 21.6305C49.617 20.9083 49.4655 20.3696 49.1667 20.0183C48.8638 19.6669 48.4135 19.4913 47.8118 19.4913C46.6442 19.4913 45.2693 20.5999 43.6873 22.8212C42.0933 25.0347 40.5442 27.7999 39.5719 31.364Z" fill="black" stroke="black" stroke-width="0.328519" stroke-miterlimit="10"/>
<path d="M66.9186 41.3566C70.981 41.3566 73.0221 38.0102 74.1001 35.3507L76.7516 35.9533C75.3882 39.368 72.4395 44 66.7918 44C62.1627 44 59 40.2318 59 34.1054C59 25.5365 63.534 18 70.4737 18C75.9034 18 77.6076 22.8127 78 24.7009L75.4754 25.5967C75.1266 24.1907 74.112 20.6434 70.3152 20.6434C64.8815 20.6434 61.6594 27.2719 61.6594 34.0773C61.6594 38.6771 63.7718 41.3566 66.9186 41.3566Z" fill="black" stroke="black" stroke-width="0.229961"/>
<path d="M91.4075 39.7155C90.0941 42.0493 87.7396 44 84.2413 44C80.3762 44 77.3078 40.9989 78.136 35.3481L80.5576 19H83.1251L80.8968 34.1753C80.1593 39.1706 81.307 41.3898 84.9196 41.3898C88.0433 41.3898 91.4785 38.9495 92.4013 32.6866L94.4325 19H97L93.3952 43.4393H90.95L91.4903 39.7116L91.4075 39.7155Z" fill="black" stroke="black" stroke-width="0.229961"/>
<path d="M114.797 36.572C113.232 40.2197 110.248 44 104.699 44C100.134 44 97 40.2318 97 34.1134C97 25.6168 101.461 18 108.314 18C113.685 18 117.145 23.106 115.651 31.7512H99.7728C99.0419 37.3755 101.008 41.3566 104.822 41.3566C108.739 41.3566 110.84 38.7936 112.175 36.0216L114.797 36.572ZM100.23 29.1802H113.283C113.82 24.5844 111.976 20.6474 108.147 20.6474C104.258 20.6434 101.092 24.6486 100.23 29.1802Z" fill="black" stroke="black" stroke-width="0.229961"/>
<path d="M57.4715 22.1841C56.7661 23.6825 56.203 25.2071 55.7866 26.7599C55.3702 28.3127 55.1103 29.8602 55.0113 31.4042C54.9084 32.949 54.9837 34.4322 55.2328 35.8516C55.4819 37.271 55.8843 38.6217 56.439 39.8982C56.9937 41.1747 57.6902 42.2946 58.5203 43.2566L56.695 44.2058C55.8282 43.1924 55.0679 42 54.4148 40.6343C53.7618 39.2685 53.304 37.8263 53.0376 36.3085C52.7683 34.7739 52.6839 33.1937 52.7854 31.5738C52.8864 29.951 53.1544 28.3383 53.5892 26.7328C54.0239 25.1273 54.6243 23.5465 55.3824 21.9892C56.1443 20.4311 57.0516 18.9392 58.1011 17.5171L59.9614 17.9106C59.0098 19.2626 58.1769 20.6857 57.4715 22.1841Z" fill="black" stroke="black" stroke-width="0.229961"/>
<path d="M121.944 24.1177C122.133 25.6628 122.134 27.2432 121.948 28.8533C121.763 30.4663 121.411 32.0602 120.892 33.6379C120.374 35.2156 119.692 36.7596 118.853 38.2718C118.011 39.7846 117.026 41.2234 115.904 42.585L114.066 42.0921C115.092 40.8003 115.998 39.4232 116.781 37.9669C117.564 36.5107 118.21 35.0201 118.722 33.492C119.235 31.9639 119.579 30.4342 119.763 28.8991C119.942 27.3645 119.948 25.8808 119.774 24.4518C119.599 23.0227 119.26 21.6548 118.757 20.3538C118.255 19.0528 117.614 17.8987 116.835 16.8944L118.704 16.0181C119.517 17.0756 120.215 18.3115 120.797 19.7174C121.375 21.1238 121.758 22.5924 121.944 24.1177Z" fill="black" stroke="black" stroke-width="0.229961"/>
<path d="M127.037 4.12032C127.099 3.56841 127.901 3.56841 127.963 4.12032L128.422 8.20731C128.463 8.57163 128.89 8.74816 129.176 8.5195L132.391 5.95434C132.825 5.60794 133.392 6.17509 133.046 6.60921L130.481 9.82393C130.252 10.1105 130.428 10.5367 130.793 10.5776L134.88 11.0369C135.432 11.099 135.432 11.901 134.88 11.9631L130.793 12.4224C130.428 12.4633 130.252 12.8895 130.481 13.1761L133.046 16.3908C133.392 16.8249 132.825 17.3921 132.391 17.0457L129.176 14.4805C128.89 14.2518 128.463 14.4284 128.422 14.7927L127.963 18.8797C127.901 19.4316 127.099 19.4316 127.037 18.8797L126.578 14.7927C126.537 14.4284 126.11 14.2518 125.824 14.4805L122.609 17.0457C122.175 17.3921 121.608 16.8249 121.954 16.3908L124.519 13.1761C124.748 12.8895 124.572 12.4633 124.207 12.4224L120.12 11.9631C119.568 11.901 119.568 11.099 120.12 11.0369L124.207 10.5776C124.572 10.5367 124.748 10.1105 124.519 9.82393L121.954 6.60921C121.608 6.17509 122.175 5.60794 122.609 5.95434L125.824 8.5195C126.11 8.74816 126.537 8.57163 126.578 8.2073L127.037 4.12032Z" fill="black"/>
</svg>
