<svg width="20" height="20" viewBox="0 0 20 20" fill="none" xmlns="http://www.w3.org/2000/svg">
<path opacity="0.8" d="M9.27608 3.43238C9.32752 2.97471 9.99263 2.97471 10.0441 3.43237L10.4359 6.9189C10.4698 7.22101 10.8232 7.36739 11.0609 7.17778L13.8033 4.9895C14.1633 4.70224 14.6336 5.17254 14.3463 5.53253L12.158 8.27496C11.9684 8.51259 12.1148 8.866 12.4169 8.89995L15.9034 9.29178C16.3611 9.34322 16.3611 10.0083 15.9034 10.0598L12.4169 10.4516C12.1148 10.4855 11.9684 10.839 12.158 11.0766L14.3463 13.819C14.6336 14.179 14.1633 14.6493 13.8033 14.362L11.0609 12.1738C10.8232 11.9842 10.4698 12.1305 10.4359 12.4326L10.0441 15.9192C9.99263 16.3768 9.32752 16.3768 9.27608 15.9192L8.88426 12.4326C8.8503 12.1305 8.49689 11.9842 8.25926 12.1738L5.51687 14.362C5.15688 14.6493 4.68658 14.179 4.97383 13.819L7.1621 11.0766C7.35172 10.839 7.20533 10.4855 6.90322 10.4516L3.4167 10.0598C2.95903 10.0083 2.95903 9.34322 3.4167 9.29178L6.90322 8.89995C7.20533 8.866 7.35172 8.51259 7.1621 8.27496L4.97383 5.53253C4.68658 5.17254 5.15688 4.70224 5.51687 4.9895L8.25926 7.17778C8.49689 7.36739 8.8503 7.22101 8.88426 6.9189L9.27608 3.43238Z" fill="#FA6030"/>
</svg>
