<svg width="266" height="136" viewBox="0 0 266 136" fill="none" xmlns="http://www.w3.org/2000/svg">
<path fill-rule="evenodd" clip-rule="evenodd" d="M126.289 31.7707C122.746 30.8213 119.104 32.9239 118.155 36.4668L101.546 98.4497C100.597 101.993 102.7 105.634 106.243 106.584L136.152 114.598L181.34 87.183L189.787 55.6606C190.736 52.1177 188.634 48.4759 185.091 47.5266L126.289 31.7707Z" fill="#FA6030"/>
<path d="M136.152 114.598L136.026 115.069L136.227 115.123L136.405 115.015L136.152 114.598ZM181.34 87.183L181.594 87.6004L181.761 87.4987L181.812 87.3094L181.34 87.183ZM189.787 55.6606L189.315 55.5343L189.787 55.6606ZM118.626 36.5932C119.506 33.3106 122.88 31.3626 126.162 32.2422L126.415 31.2992C122.612 30.2801 118.702 32.5371 117.683 36.3405L118.626 36.5932ZM102.018 98.5761L118.626 36.5932L117.683 36.3405L101.075 98.3234L102.018 98.5761ZM106.369 106.112C103.086 105.233 101.138 101.859 102.018 98.5761L101.075 98.3234C100.056 102.127 102.313 106.036 106.116 107.055L106.369 106.112ZM136.278 114.126L106.369 106.112L106.116 107.055L136.026 115.069L136.278 114.126ZM136.405 115.015L181.594 87.6004L181.087 86.7657L135.899 114.181L136.405 115.015ZM189.315 55.5343L180.869 87.0567L181.812 87.3094L190.258 55.7869L189.315 55.5343ZM184.964 47.9981C188.247 48.8777 190.195 52.2517 189.315 55.5343L190.258 55.7869C191.277 51.9836 189.02 48.0742 185.217 47.0551L184.964 47.9981ZM126.162 32.2422L184.964 47.9981L185.217 47.0551L126.415 31.2992L126.162 32.2422Z" fill="black"/>
<path d="M125.386 48.627L144.738 53.6177" stroke="black" stroke-width="0.976283"/>
<path d="M123.524 55.4854L176.192 69.5977" stroke="black" stroke-width="0.976283"/>
<path d="M121.73 62.542L174.398 76.6543" stroke="black" stroke-width="0.976283"/>
<path fill-rule="evenodd" clip-rule="evenodd" d="M136.295 114.068L144.457 83.6092C145.406 80.0662 149.048 77.9637 152.591 78.913L181.482 86.6543L136.295 114.068Z" fill="#E5E2CE"/>
<path d="M181.737 86.7209L152.336 78.8429C148.794 77.8936 145.152 79.9962 144.202 83.5391L135.898 114.531" stroke="black" stroke-width="0.976283"/>
<path d="M125.36 99.6904C125.874 99.9358 126.454 99.5092 126.372 98.9455L124.865 88.4817C124.788 87.9487 124.17 87.69 123.737 88.0091L115.704 93.918C115.27 94.2371 115.333 94.9035 115.819 95.1355L125.36 99.6904Z" fill="#D9D9D9"/>
<path d="M124.695 87.3039L126.373 98.9452C126.454 99.5089 125.874 99.9355 125.36 99.6901L114.746 94.6227" stroke="black" stroke-width="1.04794"/>
<path d="M86.9869 36.2218C85.9919 34.8691 84.0888 34.5792 82.7361 35.5742L77.8599 39.1613C76.5073 40.1563 76.2174 42.0594 77.2124 43.4121L114.69 94.3594L124.465 87.1691L86.9869 36.2218Z" fill="#929DD9" stroke="black" stroke-width="1.04794"/>
<path d="M86.9869 36.2218C85.9919 34.8691 84.0888 34.5792 82.7361 35.5742L77.8599 39.1613C76.5073 40.1563 76.2174 42.0594 77.2124 43.4121L81.3489 49.0353L91.1235 41.845L86.9869 36.2218Z" fill="#EFB6B6" stroke="black" stroke-width="1.04794"/>
<rect x="-0.111589" y="0.732555" width="12.1343" height="7.16137" transform="matrix(-0.805527 0.592559 0.592559 0.805527 89.4089 39.7027)" fill="#BCBCBC" stroke="black" stroke-width="1.04794"/>
<path d="M126.2 99.569L125.521 94.8535C123.876 95.5876 123.088 96.1647 121.901 97.5163L126.2 99.569Z" fill="black"/>
<path d="M90.9258 48.6289L120.852 89.3108" stroke="black" stroke-width="1.04794"/>
<path d="M87.7417 50.9707L117.668 91.6526" stroke="black" stroke-width="1.04794"/>
<path d="M180.117 51.6054C180.241 51.2904 180.713 51.4169 180.662 51.7514L180.278 54.3001C180.244 54.5209 180.467 54.692 180.672 54.6026L183.034 53.5712C183.344 53.4358 183.588 53.859 183.316 54.0598L181.242 55.5898C181.062 55.7224 181.099 56.001 181.307 56.0826L183.706 57.0236C184.021 57.1471 183.895 57.619 183.56 57.5685L181.012 57.1836C180.791 57.1503 180.62 57.3732 180.709 57.5779L181.74 59.9401C181.876 60.2502 181.453 60.4945 181.252 60.2222L179.722 58.1479C179.589 57.9682 179.311 58.0048 179.229 58.2128L178.288 60.6124C178.165 60.9274 177.693 60.8009 177.743 60.4664L178.128 57.9177C178.161 57.6969 177.938 57.5258 177.734 57.6152L175.372 58.6466C175.062 58.782 174.817 58.3588 175.09 58.158L177.164 56.628C177.344 56.4954 177.307 56.2168 177.099 56.1352L174.699 55.1942C174.384 55.0707 174.511 54.5987 174.845 54.6493L177.394 55.0342C177.615 55.0675 177.786 54.8446 177.697 54.6399L176.665 52.2777C176.53 51.9676 176.953 51.7233 177.154 51.9956L178.684 54.0699C178.816 54.2496 179.095 54.213 179.176 54.005L180.117 51.6054Z" fill="black"/>
</svg>
