<svg width="166" height="39" viewBox="0 0 166 39" fill="none" xmlns="http://www.w3.org/2000/svg">
<rect x="46.5" y="0.5" width="118.356" height="38" rx="18.7601" fill="white"/>
<rect x="46.5" y="0.5" width="118.356" height="38" rx="18.7601" stroke="black"/>
<path d="M75.3125 18.8438V19.9531H62.5V18.8438H68.1719V17.8125H64.1406V14.7188H72.2188V13.7188H64.1094V12.6875H73.7031V15.7031H65.6094V16.7656H73.9375V17.8125H69.6406V18.8438H75.3125ZM73.7344 20.8906V23.9688H65.5156V25.1406H74.1719V26.1875H64.0312V22.9844H72.2656V21.9531H64.0156V20.8906H73.7344ZM87.5531 12.3438V20.9219H86.0688V12.3438H87.5531ZM83.0844 13.2031V17.1719H78.1313V18.9219C80.5766 18.8984 82.3813 18.8281 84.5063 18.5L84.6938 19.7031C82.4125 20.0781 80.4906 20.1406 77.85 20.1406H76.6781V16.0312H81.6156V14.4219H76.6469V13.2031H83.0844ZM82.8813 21.1875C85.8344 21.1875 87.6469 22.1094 87.6469 23.75C87.6469 25.3594 85.8344 26.3125 82.8813 26.2969C79.9125 26.3125 78.1156 25.3594 78.1156 23.75C78.1156 22.1094 79.9125 21.1875 82.8813 21.1875ZM82.8813 22.3594C80.8031 22.3594 79.5844 22.8594 79.5844 23.75C79.5844 24.6406 80.8031 25.125 82.8813 25.125C84.9594 25.125 86.1625 24.6406 86.1625 23.75C86.1625 22.8594 84.9594 22.3594 82.8813 22.3594ZM101.481 12.3281V26.3281H100.059V12.3281H101.481ZM98.7156 12.6406V25.6094H97.3094V18.9062H95.5594V17.5781H97.3094V12.6406H98.7156ZM95.9344 14.0469V15.2656H94.8563V21.5156C95.3328 21.4844 95.7938 21.4297 96.2156 21.375L96.325 22.4531C94.1063 22.8906 91.2 22.9531 89.3875 22.9531L89.2156 21.7031L90.5906 21.6875V15.2656H89.5125V14.0469H95.9344ZM91.9344 21.6719C92.4422 21.6562 92.9656 21.6406 93.4813 21.6094V15.2656H91.9344V21.6719ZM114.394 12.3281V26.3594H112.909V12.3281H114.394ZM106.909 13.375C108.987 13.375 110.519 15.2812 110.519 18.2812C110.519 21.2969 108.987 23.2031 106.909 23.2031C104.8 23.2031 103.284 21.2969 103.284 18.2812C103.284 15.2812 104.8 13.375 106.909 13.375ZM106.909 14.7031C105.612 14.7031 104.722 16.0781 104.722 18.2812C104.722 20.5 105.612 21.875 106.909 21.875C108.191 21.875 109.081 20.5 109.081 18.2812C109.081 16.0781 108.191 14.7031 106.909 14.7031ZM124.353 13.7188V14.9375H122.822V21.5156C123.486 21.4766 124.134 21.4141 124.759 21.3438L124.853 22.4375C121.994 22.8906 118.713 22.9531 116.291 22.9531L116.134 21.7188L117.916 21.6875V14.9375H116.556V13.7188H124.353ZM127.9 12.3281V26.3281H126.431V18.7656H123.9V17.5469H126.431V12.3281H127.9ZM119.369 21.6719C120.033 21.6562 120.72 21.6328 121.4 21.5938V14.9375H119.369V21.6719Z" fill="#191919"/>
<path d="M149.356 14.8218L140 24.1782" stroke="black" stroke-width="1.1"/>
<path d="M149.356 24.1782L140 14.8218" stroke="black" stroke-width="1.1"/>
<circle cx="18.5" cy="19.5" r="17.9991" fill="white" stroke="#191919" stroke-width="1.00175"/>
<path d="M9 19.5H26.5385" stroke="#191919" stroke-width="1.5" stroke-linecap="square"/>
<path d="M20.9999 13L26.9999 19.5L20.9999 26" stroke="#191919" stroke-width="1.5" stroke-linecap="square"/>
</svg>
