<svg width="134" height="43" viewBox="0 0 134 43" fill="none" xmlns="http://www.w3.org/2000/svg">
<rect x="11.0352" y="4.08594" width="122.356" height="38" rx="18.7601" fill="white"/>
<rect x="11.0352" y="4.08594" width="122.356" height="38" rx="18.7601" stroke="black"/>
<path d="M32.4727 23.3516V25.7734C33.7539 25.7031 35.0508 25.5938 36.2695 25.4141L36.3789 26.5078C33.2148 27.0938 29.8164 27.1172 27.3164 27.1172L27.1289 25.8984C28.2539 25.8906 29.5898 25.8828 30.9883 25.8359V23.3516H32.4727ZM27.5039 22.6797C29.5898 22.0781 30.8945 20.6172 30.9727 18.8984H27.8789V17.6953H30.9883V16.0234H32.4727V17.6953H35.6133V18.8984H32.4727C32.5508 20.5469 33.8789 21.9609 35.9727 22.5234L35.2852 23.6797C33.6133 23.2031 32.3633 22.1875 31.7305 20.8594C31.1211 22.2578 29.8867 23.3281 28.207 23.8047L27.5039 22.6797ZM37.1445 29.9453V15.9141H38.6289V29.9453H37.1445ZM43.6508 17.0391C45.4945 17.0312 46.6898 18.9297 46.6977 21.9609C46.6898 25 45.4945 26.9062 43.6508 26.8984C41.8227 26.9062 40.6352 25 40.6352 21.9609C40.6352 18.9297 41.8227 17.0312 43.6508 17.0391ZM42.0102 21.9609C42.0102 24.1875 42.643 25.5 43.6508 25.4922C44.682 25.5 45.3227 24.1875 45.3227 21.9609C45.3227 19.7266 44.682 18.4219 43.6508 18.4297C42.643 18.4219 42.0102 19.7266 42.0102 21.9609ZM47.9633 29.2266V16.1797H49.3695V21.3984H51.1039V15.9141H52.5258V29.9141H51.1039V22.6172H49.3695V29.2266H47.9633ZM66.7039 22.3359V23.4766H53.8914V22.3359H66.7039ZM55.407 25.5234V24.4609H65.1258V27.5391H56.907V28.6953H65.5633V29.7422H55.4227V26.5547H63.657V25.5234H55.407ZM55.5008 17.3203V16.2734H65.0945V19.3047H57.0008V20.3672H65.3289V21.4141H55.532V18.3203H63.6102V17.3203H55.5008ZM75.4352 16.5547C77.5445 16.5469 79.068 17.7266 79.0758 19.4609C79.068 21.1797 77.5445 22.3672 75.4352 22.3516C73.3336 22.3672 71.818 21.1797 71.8258 19.4609C71.818 17.7266 73.3336 16.5469 75.4352 16.5547ZM70.8258 23.4453C73.4117 23.4453 76.982 23.3906 80.0445 22.9297L80.1539 24.0391C78.8727 24.2812 77.5523 24.4297 76.2633 24.5156V29.4766H74.7789V24.6016C73.4195 24.6641 72.1383 24.6719 71.0289 24.6797L70.8258 23.4453ZM73.2633 19.4609C73.2477 20.4766 74.1617 21.1484 75.4352 21.1328C76.7398 21.1484 77.6539 20.4766 77.6539 19.4609C77.6539 18.4375 76.7398 17.75 75.4352 17.7578C74.1617 17.75 73.2477 18.4375 73.2633 19.4609ZM81.0133 29.9141V15.9297H82.482V29.9141H81.0133ZM95.2695 15.9297V20.4297H97.3008V21.6641H95.2695V26.3984H93.7852V15.9297H95.2695ZM84.2852 18.7578V17.5547H87.7227V15.9141H89.207V17.5547H92.6289V18.7578H84.2852ZM85.0508 22.0703C85.043 20.4688 86.4258 19.4219 88.457 19.4297C90.4648 19.4219 91.8477 20.4688 91.8477 22.0703C91.8477 23.6562 90.4648 24.6875 88.457 24.6953C86.4258 24.6875 85.043 23.6562 85.0508 22.0703ZM86.3945 29.6172V25.5703H87.8789V28.4141H95.8633V29.6172H86.3945ZM86.4883 22.0703C86.4727 22.9844 87.2695 23.5469 88.457 23.5391C89.6445 23.5469 90.4414 22.9844 90.457 22.0703C90.4414 21.1484 89.6445 20.5781 88.457 20.5703C87.2695 20.5781 86.4727 21.1484 86.4883 22.0703Z" fill="#191919"/>
<path d="M117.892 18.4082L108.535 27.7646" stroke="black" stroke-width="1.1"/>
<path d="M117.891 27.7646L108.534 18.4082" stroke="black" stroke-width="1.1"/>
<rect x="0.5" y="0.515625" width="22.0703" height="22.0703" rx="11.0352" fill="white" stroke="#191919"/>
<path d="M9.93525 8.48366C11.1923 8.48366 12.4889 9.33488 12.4889 12.0964C12.4889 14.848 11.1923 15.6894 9.93525 15.6894C8.66831 15.6894 7.38158 14.848 7.38158 12.0964C7.38158 9.33488 8.66831 8.48366 9.93525 8.48366ZM9.93525 15.1054C10.836 15.1054 11.7862 14.5412 11.7862 12.0865C11.7862 9.63182 10.836 9.06764 9.93525 9.06764C9.02464 9.06764 8.07444 9.63182 8.07444 12.0865C8.07444 14.5412 9.02464 15.1054 9.93525 15.1054ZM14.9628 8.61233V15.5508H14.3095V9.93866H13.0228V9.45366H13.1614C14.0324 9.45366 14.3194 9.09733 14.3788 8.61233H14.9628Z" fill="black"/>
</svg>
