<svg width="90" height="90" viewBox="0 0 90 90" fill="none" xmlns="http://www.w3.org/2000/svg">
<path fill-rule="evenodd" clip-rule="evenodd" d="M14.5293 12.1309C13.2345 12.1309 12.1849 13.1805 12.1849 14.4752V76.174C12.1849 77.4688 13.2345 78.5183 14.5293 78.5183H77.2853C78.58 78.5183 79.6296 77.4688 79.6296 76.174V35.7673L84.3245 33.8632C84.5014 33.7915 84.6172 33.6196 84.6172 33.4287V19.1308C84.6172 18.9399 84.5014 18.7681 84.3245 18.6963L79.6296 16.7923V14.4752C79.6296 13.1805 78.58 12.1309 77.2853 12.1309H14.5293Z" fill="#FA6030"/>
<rect x="5.11722" y="20.5059" width="12.7685" height="1.88416" rx="0.94208" fill="white" stroke="#191919" stroke-width="0.234433"/>
<rect x="5.11722" y="59.043" width="12.7685" height="1.88416" rx="0.94208" fill="white" stroke="#191919" stroke-width="0.234433"/>
<rect x="5.11722" y="39.7754" width="12.7685" height="1.88416" rx="0.94208" fill="white" stroke="#191919" stroke-width="0.234433"/>
<rect x="69.9641" y="12" width="5.2254" height="66.5194" fill="url(#paint0_linear_1887_4247)"/>
<path d="M40.65 39.1982C40.4124 38.6976 41.0924 38.276 41.4351 38.7113L44.0462 42.0275C44.2724 42.3148 44.7266 42.2404 44.8493 41.8959L46.2658 37.9199C46.4517 37.398 47.2307 37.5807 47.1653 38.1309L46.6667 42.3221C46.6235 42.6852 46.9972 42.9537 47.3276 42.7969L51.1406 40.9871C51.6411 40.7495 52.0628 41.4295 51.6275 41.7723L48.3113 44.3833C48.024 44.6096 48.0984 45.0637 48.4429 45.1864L52.4188 46.6029C52.9408 46.7888 52.7581 47.5678 52.2079 47.5024L48.0167 47.0038C47.6536 46.9606 47.385 47.3343 47.5419 47.6647L49.3517 51.4777C49.5893 51.9783 48.9093 52.3999 48.5665 51.9646L45.9555 48.6484C45.7292 48.3611 45.2751 48.4355 45.1524 48.78L43.7359 52.756C43.5499 53.2779 42.7709 53.0952 42.8364 52.545L43.335 48.3539C43.3782 47.9907 43.0045 47.7222 42.6741 47.879L38.861 49.6888C38.3605 49.9264 37.9388 49.2464 38.3742 48.9036L41.6904 46.2926C41.9777 46.0663 41.9033 45.6122 41.5588 45.4895L37.5828 44.073C37.0609 43.8871 37.2436 43.1081 37.7937 43.1735L41.9849 43.6721C42.3481 43.7153 42.6166 43.3416 42.4598 43.0112L40.65 39.1982Z" fill="#191919"/>
<defs>
<linearGradient id="paint0_linear_1887_4247" x1="72.5768" y1="35.1476" x2="72.5768" y2="105.297" gradientUnits="userSpaceOnUse">
<stop stop-color="#191919"/>
<stop offset="1" stop-color="#FA6030"/>
</linearGradient>
</defs>
</svg>
