<svg width="74" height="23" viewBox="0 0 74 23" fill="none" xmlns="http://www.w3.org/2000/svg">
<path d="M7.45312 5.53125C9.66406 5.54688 11.8672 6.86719 11.875 11C11.875 14.8984 10.1094 17.1562 7.32812 17.1562C5.14844 17.1562 3.64062 15.7969 3.39062 13.9219H5.40625C5.60938 14.8203 6.30469 15.3906 7.32812 15.3906C8.96875 15.3906 9.89062 13.9453 9.90625 11.5156H9.78125C9.21094 12.5 8.11719 13.0859 6.875 13.0781C4.85156 13.0859 3.28906 11.5469 3.28125 9.40625C3.28125 7.19531 4.94531 5.51562 7.45312 5.53125ZM5.26562 9.35938C5.26562 10.5781 6.17188 11.5312 7.4375 11.5312C8.69531 11.5312 9.66406 10.5156 9.65625 9.34375C9.65625 8.19531 8.73438 7.17969 7.46875 7.17188C6.19531 7.17969 5.25 8.14844 5.26562 9.35938ZM17.4181 5.53125C19.6291 5.54688 21.8322 6.86719 21.84 11C21.84 14.8984 20.0744 17.1562 17.2931 17.1562C15.1134 17.1562 13.6056 15.7969 13.3556 13.9219H15.3713C15.5744 14.8203 16.2697 15.3906 17.2931 15.3906C18.9338 15.3906 19.8556 13.9453 19.8713 11.5156H19.7463C19.1759 12.5 18.0822 13.0859 16.84 13.0781C14.8166 13.0859 13.2541 11.5469 13.2463 9.40625C13.2463 7.19531 14.9103 5.51562 17.4181 5.53125ZM15.2306 9.35938C15.2306 10.5781 16.1369 11.5312 17.4025 11.5312C18.6603 11.5312 19.6291 10.5156 19.6213 9.34375C19.6213 8.19531 18.6994 7.17969 17.4338 7.17188C16.1603 7.17969 15.215 8.14844 15.2306 9.35938ZM27.5394 17.1562C24.8128 17.1562 23.1878 15.0469 23.1956 11.3438C23.1878 7.65625 24.8284 5.53125 27.5394 5.53125C30.2503 5.53125 31.8831 7.65625 31.8831 11.3438C31.8831 15.0547 30.2581 17.1562 27.5394 17.1562ZM25.2425 11.3438C25.2425 14.0625 26.1175 15.4453 27.5394 15.4531C28.9534 15.4453 29.8363 14.0625 29.8363 11.3438C29.8284 8.64844 28.9534 7.22656 27.5394 7.21875C26.1253 7.22656 25.2503 8.64844 25.2425 11.3438ZM44.8013 4.28125V14.9688H43.0513V13.7344H40.2856V12.5156H43.0513V4.28125H44.8013ZM32.895 10.625C35.4966 10.6094 39.0044 10.5859 42.0044 10.2031L42.0981 11.4531C40.9341 11.6484 39.7309 11.7734 38.5356 11.8594V14.5781H36.8013V11.9531C35.4809 12.0078 34.2231 12.0156 33.1138 12.0156L32.895 10.625ZM33.9731 7.29688C33.9731 5.80469 35.4106 4.78906 37.5044 4.79688C39.5591 4.78906 41.0044 5.80469 41.02 7.29688C41.0044 8.8125 39.5591 9.77344 37.5044 9.78125C35.4106 9.77344 33.9731 8.8125 33.9731 7.29688ZM34.77 18.1094V13.9375H36.5044V16.7031H45.1294V18.1094H34.77ZM35.6138 7.29688C35.6138 8.0625 36.3716 8.50781 37.5044 8.51562C38.5825 8.50781 39.3559 8.0625 39.3638 7.29688C39.3559 6.53125 38.5825 6.07031 37.5044 6.07812C36.3716 6.07031 35.6138 6.53125 35.6138 7.29688Z" fill="#494949"/>
<path d="M55.332 8.11719L52.5898 18.2773H51.6758L54.4062 8.11719H55.332ZM59.3047 8.51562V17H58.2383V9.61719H58.1914L56.1289 10.9883V9.92188L58.2383 8.51562H59.3047ZM69.8164 7.54297V15.418H68.8789V13.9531H66.582V13.2031H68.8789V7.54297H69.8164ZM61.1211 11.668C62.4629 11.6621 64.1445 11.6504 65.7969 11.5391C66.002 10.3906 66.0371 9.52344 66.043 8.92578H62.0586V8.17578H66.957V8.58594C66.9629 9.16016 66.9629 10.1328 66.7402 11.4629C67.1445 11.4277 67.543 11.3809 67.9297 11.3281L68 11.9961C67.0273 12.1602 66.0078 12.2598 65.0117 12.3242V14.7266H64.0977V12.3711C63.0723 12.418 62.0938 12.4297 61.25 12.4297L61.1211 11.668ZM62.6797 17.7266V14.5391H63.6055V16.9531H70.0742V17.7266H62.6797Z" fill="#494949"/>
<path d="M0.871338 12H73.148" stroke="#494949" stroke-width="0.878723" stroke-linecap="round"/>
</svg>
