<svg width="96" height="88" viewBox="0 0 96 88" fill="none" xmlns="http://www.w3.org/2000/svg">
<mask id="path-1-outside-1_5385_4328" maskUnits="userSpaceOnUse" x="-0.132901" y="-0.133091" width="96.2983" height="89.5285" fill="black">
<rect fill="white" x="-0.132901" y="-0.133091" width="96.2983" height="89.5285"/>
<path fill-rule="evenodd" clip-rule="evenodd" d="M14.5468 1.38347C13.0855 1.17168 11.7292 2.18461 11.5174 3.64591L1.38366 73.5683C1.17187 75.0296 2.1848 76.3859 3.6461 76.5977L74.5581 86.8748C76.0194 87.0866 77.3757 86.0737 77.5875 84.6124L84.2554 38.6044C84.3321 38.6237 84.415 38.6261 84.4996 38.6076L90.6883 37.2539C90.906 37.2063 91.0713 37.0287 91.1032 36.8082L93.3983 20.9723C93.4303 20.7518 93.3222 20.5346 93.127 20.4272L87.5772 17.3723C87.5013 17.3305 87.4212 17.3093 87.3421 17.306L87.7213 14.69C87.933 13.2287 86.9201 11.8724 85.4588 11.6607L14.5468 1.38347Z"/>
</mask>
<path fill-rule="evenodd" clip-rule="evenodd" d="M14.5468 1.38347C13.0855 1.17168 11.7292 2.18461 11.5174 3.64591L1.38366 73.5683C1.17187 75.0296 2.1848 76.3859 3.6461 76.5977L74.5581 86.8748C76.0194 87.0866 77.3757 86.0737 77.5875 84.6124L84.2554 38.6044C84.3321 38.6237 84.415 38.6261 84.4996 38.6076L90.6883 37.2539C90.906 37.2063 91.0713 37.0287 91.1032 36.8082L93.3983 20.9723C93.4303 20.7518 93.3222 20.5346 93.127 20.4272L87.5772 17.3723C87.5013 17.3305 87.4212 17.3093 87.3421 17.306L87.7213 14.69C87.933 13.2287 86.9201 11.8724 85.4588 11.6607L14.5468 1.38347Z" fill="#191919"/>
<path d="M14.5468 1.38347L14.6661 0.560392L14.5468 1.38347ZM84.2554 38.6044L84.4579 37.7978L83.5644 37.5735L83.4323 38.4851L84.2554 38.6044ZM84.4996 38.6076L84.3219 37.7951L84.3219 37.7951L84.4996 38.6076ZM90.6883 37.2539L90.866 38.0664L90.866 38.0664L90.6883 37.2539ZM91.1032 36.8082L91.9263 36.9275L91.1032 36.8082ZM93.3983 20.9723L92.5752 20.853L93.3983 20.9723ZM93.127 20.4272L92.7259 21.1558L92.7259 21.1558L93.127 20.4272ZM87.5772 17.3723L87.1761 18.1009L87.1761 18.1009L87.5772 17.3723ZM87.3421 17.306L86.5191 17.1867L86.3869 18.0983L87.3073 18.1369L87.3421 17.306ZM85.4588 11.6607L85.3395 12.4837L85.4588 11.6607ZM12.3405 3.7652C12.4864 2.75848 13.4208 2.06064 14.4275 2.20655L14.6661 0.560392C12.7502 0.282727 10.972 1.61075 10.6943 3.52662L12.3405 3.7652ZM2.20674 73.6876L12.3405 3.7652L10.6943 3.52662L0.560581 73.449L2.20674 73.6876ZM3.76539 75.7746C2.75866 75.6287 2.06083 74.6943 2.20674 73.6876L0.560581 73.449C0.282916 75.3649 1.61094 77.1431 3.52681 77.4207L3.76539 75.7746ZM74.6774 86.0518L3.76539 75.7746L3.52681 77.4207L74.4388 87.6979L74.6774 86.0518ZM76.7644 84.4931C76.6185 85.4998 75.6841 86.1977 74.6774 86.0518L74.4388 87.6979C76.3547 87.9756 78.1329 86.6476 78.4106 84.7317L76.7644 84.4931ZM83.4323 38.4851L76.7644 84.4931L78.4106 84.7317L85.0785 38.7237L83.4323 38.4851ZM84.3219 37.7951C84.3647 37.7857 84.412 37.7862 84.4579 37.7978L84.0529 39.4111C84.2522 39.4611 84.4652 39.4664 84.6773 39.42L84.3219 37.7951ZM90.5106 36.4414L84.3219 37.7951L84.6773 39.42L90.866 38.0664L90.5106 36.4414ZM90.2802 36.689C90.2979 36.5665 90.3897 36.4679 90.5106 36.4414L90.866 38.0664C91.4222 37.9447 91.8446 37.491 91.9263 36.9275L90.2802 36.689ZM92.5752 20.853L90.2802 36.689L91.9263 36.9275L94.2214 21.0916L92.5752 20.853ZM92.7259 21.1558C92.6175 21.0961 92.5575 20.9755 92.5752 20.853L94.2214 21.0916C94.303 20.5282 94.0268 19.9731 93.528 19.6986L92.7259 21.1558ZM87.1761 18.1009L92.7259 21.1558L93.528 19.6986L87.9782 16.6437L87.1761 18.1009ZM87.3073 18.1369C87.26 18.1349 87.2146 18.122 87.1761 18.1009L87.9782 16.6437C87.788 16.539 87.5823 16.4837 87.377 16.475L87.3073 18.1369ZM86.8982 14.5707L86.5191 17.1867L88.1652 17.4253L88.5443 14.8093L86.8982 14.5707ZM85.3395 12.4837C86.3463 12.6296 87.0441 13.564 86.8982 14.5707L88.5443 14.8093C88.822 12.8935 87.494 11.1152 85.5781 10.8376L85.3395 12.4837ZM14.4275 2.20655L85.3395 12.4837L85.5781 10.8376L14.6661 0.560392L14.4275 2.20655Z" fill="black" mask="url(#path-1-outside-1_5385_4328)"/>
<rect x="53" y="18" width="29" height="23" rx="1.9" transform="rotate(8.24638 53 18)" fill="white"/>
<rect x="20" y="35" width="25" height="23" rx="1.9" transform="rotate(8.24638 20 35)" fill="white"/>
<g filter="url(#filter0_d_5385_4328)">
<path d="M70.346 15.2378C71.0413 14.9646 71.7735 15.5383 71.6687 16.2742L71.286 18.9599C71.2475 19.2294 71.3248 19.5025 71.4989 19.7123L73.2336 21.8027C73.7089 22.3755 73.3855 23.246 72.6494 23.3751L69.9629 23.8466C69.6933 23.8939 69.4559 24.0517 69.3088 24.2815L67.8433 26.5706C67.4417 27.1978 66.5096 27.1621 66.1596 26.5061L64.882 24.1118C64.7537 23.8714 64.5298 23.6959 64.2647 23.6281L61.6243 22.9525C60.9009 22.7674 60.6482 21.8748 61.1679 21.3401L63.0648 19.3889C63.2552 19.1931 63.3541 18.9268 63.3374 18.6551L63.1711 15.9484C63.1255 15.2068 63.9015 14.6909 64.5727 15.0165L67.0227 16.2049C67.2686 16.3242 67.5537 16.3351 67.8084 16.235L70.346 15.2378Z" fill="#FFD568"/>
<path d="M62.7291 18.6929L63.3374 18.6551L62.7291 18.6929C62.7354 18.7948 62.6983 18.8946 62.6269 18.9681L60.7301 20.9193C59.8855 21.788 60.2961 23.2385 61.4717 23.5393L64.1121 24.215C64.2115 24.2404 64.2955 24.3062 64.3436 24.3963L65.6212 26.7906C66.19 27.8567 67.7047 27.9148 68.3572 26.8955L69.8228 24.6064C69.8779 24.5202 69.9669 24.4611 70.0681 24.4433L72.7545 23.9719C73.9506 23.762 74.4762 22.3474 73.7038 21.4167L71.9692 19.3262C71.9039 19.2476 71.8749 19.1452 71.8893 19.0441L72.272 16.3584C72.4424 15.1626 71.2526 14.2303 70.1227 14.6743L67.5851 15.6715C67.4896 15.709 67.3827 15.7049 67.2904 15.6602L64.8405 14.4718C63.7497 13.9427 62.4888 14.7811 62.5628 15.9862L62.7291 18.6929Z" stroke="white" stroke-width="1.21536"/>
</g>
<g filter="url(#filter1_d_5385_4328)">
<path d="M66.2286 69.2784L68.1442 67.0272C68.3714 66.7601 68.1461 66.3185 67.7759 66.3043L65.034 66.2008C64.5857 65.6058 64.022 65.0716 63.3485 64.6391C62.6171 64.1695 61.8322 63.867 61.0415 63.7193L59.7389 61.1441C59.5712 60.8129 59.0769 60.7925 58.93 61.1111L57.5772 64.0462L57.7001 64.0517C56.7536 64.4474 55.9301 65.1063 55.3534 66.009C53.7261 68.5563 54.6675 72.0718 57.4562 73.8623C60.2449 75.6529 63.8239 75.0396 65.4512 72.4924C66.0766 71.5135 66.3214 70.3908 66.2286 69.2784Z" fill="black"/>
<path d="M58.3788 60.8556L57.0835 63.6662C56.1899 64.1159 55.4099 64.7919 54.8421 65.6807C53.0064 68.5541 54.1032 72.4317 57.129 74.3744C60.1548 76.3172 64.1269 75.6941 65.9626 72.8207C66.6159 71.7981 66.8967 70.6385 66.8496 69.4865L68.6063 67.4221L68.6064 67.422C68.9111 67.0638 68.8863 66.6117 68.7246 66.2946C68.5634 65.9784 68.2306 65.713 67.7985 65.6965L67.7982 65.6965L65.3366 65.6035C64.8783 65.0451 64.3231 64.5428 63.6756 64.127C62.9693 63.6735 62.2157 63.3618 61.451 63.184L60.2803 60.8695L60.2802 60.8693C60.0845 60.4827 59.7049 60.2907 59.351 60.2761C58.9961 60.2616 58.576 60.4281 58.3789 60.8554L58.3788 60.8556Z" stroke="white" stroke-width="1.21536"/>
</g>
<circle cx="58.7546" cy="67.2122" r="1.5" transform="rotate(11.5142 58.7546 67.2122)" fill="white"/>
<circle cx="58.7546" cy="67.2122" r="1" transform="rotate(11.5142 58.7546 67.2122)" fill="black"/>
<circle cx="63.1086" cy="69.5506" r="1.5" transform="rotate(11.5142 63.1086 69.5506)" fill="white"/>
<path d="M64.0883 69.7502C63.978 70.2914 63.45 70.6407 62.9088 70.5304C62.3676 70.4202 62.0183 69.8921 62.1285 69.351C62.2388 68.8098 62.7668 68.4605 63.308 68.5707C63.8492 68.6809 64.1985 69.209 64.0883 69.7502Z" fill="black"/>
<g filter="url(#filter2_d_5385_4328)">
<path fill-rule="evenodd" clip-rule="evenodd" d="M35.2287 31.8483C34.2552 31.916 33.5998 32.3321 32.908 33.0329L32.8977 33.0434L32.8869 33.0533C32.8224 33.1134 32.7826 33.17 32.6899 33.3019C32.6682 33.3328 32.6435 33.368 32.6148 33.4083L32.1258 34.0969L31.5488 33.4802C31.5329 33.4632 31.5192 33.4497 31.4962 33.4271L31.487 33.4182C31.4648 33.3963 31.4253 33.3576 31.3852 33.3107C31.0688 32.9561 30.3467 32.53 29.4931 32.4178C28.6707 32.3097 27.7859 32.4986 27.054 33.2799L27.0476 33.2867C26.1282 34.2417 25.9946 35.5191 26.4012 36.828C26.5812 37.3152 26.7468 37.6614 26.9573 37.9773C27.1705 38.2972 27.4466 38.6115 27.8728 39.0177C29.325 40.3511 30.8636 41.4855 32.8954 42.5137C33.6682 41.9587 34.3207 41.3395 35.0437 40.6535C35.2769 40.4322 35.5174 40.204 35.7716 39.9687C36.8645 38.8542 37.4166 38.158 38.0304 36.8141C38.3777 35.8844 38.5461 34.6434 38.0443 33.4772C37.6106 32.6696 36.6038 31.8188 35.2287 31.8483ZM31.9904 31.9995C32.813 31.1825 33.7567 30.5628 35.1519 30.4709L35.1657 30.47L35.1795 30.4696C37.2007 30.4177 38.655 31.673 39.2768 32.857L39.2882 32.8785L39.298 32.9009C40.0088 34.5233 39.745 36.1806 39.3128 37.3229L39.3048 37.344L39.2955 37.3644C38.5888 38.9181 37.923 39.7461 36.7445 40.9468L36.7328 40.9588L36.7205 40.9701C36.4926 41.1808 36.2674 41.3947 36.0416 41.6091C35.2755 42.3366 34.5033 43.0699 33.6008 43.7047C33.5985 43.7064 33.5961 43.7081 33.5936 43.71C33.5061 43.7741 33.305 43.9218 33.0387 43.9517C32.7471 43.9845 32.5105 43.8672 32.3844 43.8008C30.1685 42.6927 28.496 41.4633 26.935 40.0294L26.9259 40.021C26.4571 39.5746 26.1011 39.1801 25.8093 38.7421C25.5163 38.3024 25.3052 37.8443 25.1007 37.2883L25.0949 37.2726L25.0899 37.2568C24.5775 35.624 24.6773 33.7625 26.0505 32.3334C27.1379 31.175 28.4921 30.8949 29.6729 31.0501C30.569 31.1679 31.4018 31.5398 31.9904 31.9995Z" fill="white"/>
</g>
<path d="M32.0848 33.3601C32.198 33.2007 32.2857 33.0617 32.42 32.9367C33.1246 32.2231 33.8665 31.7329 34.9754 31.6598C36.5451 31.6194 37.6811 32.5958 38.164 33.5152C38.7286 34.8038 38.5271 36.145 38.1654 37.101C37.5557 38.4412 36.9952 39.1424 35.9452 40.2123C34.988 41.0974 34.1687 41.9524 33.1386 42.676C32.9552 42.8097 32.8934 42.8287 32.6796 42.7157C30.6992 41.7261 29.2083 40.6308 27.8099 39.3462C26.985 38.5606 26.6454 38.0414 26.29 37.0747C25.8647 35.7197 25.971 34.2734 27.0277 33.1757C28.7005 31.3901 31.1466 32.3123 31.9505 33.2221C31.9859 33.2644 32.0299 33.3014 32.0848 33.3601Z" fill="#FF3C48"/>
<defs>
<filter id="filter0_d_5385_4328" x="54.8119" y="8.84182" width="24.7268" height="24.2518" filterUnits="userSpaceOnUse" color-interpolation-filters="sRGB">
<feFlood flood-opacity="0" result="BackgroundImageFix"/>
<feColorMatrix in="SourceAlpha" type="matrix" values="0 0 0 0 0 0 0 0 0 0 0 0 0 0 0 0 0 0 127 0" result="hardAlpha"/>
<feOffset/>
<feGaussianBlur stdDeviation="2.43071"/>
<feComposite in2="hardAlpha" operator="out"/>
<feColorMatrix type="matrix" values="0 0 0 0 0 0 0 0 0 0 0 0 0 0 0 0 0 0 0.16 0"/>
<feBlend mode="normal" in2="BackgroundImageFix" result="effect1_dropShadow_5385_4328"/>
<feBlend mode="normal" in="SourceGraphic" in2="effect1_dropShadow_5385_4328" result="shape"/>
</filter>
<filter id="filter1_d_5385_4328" x="48.4765" y="54.8056" width="25.8339" height="26.1583" filterUnits="userSpaceOnUse" color-interpolation-filters="sRGB">
<feFlood flood-opacity="0" result="BackgroundImageFix"/>
<feColorMatrix in="SourceAlpha" type="matrix" values="0 0 0 0 0 0 0 0 0 0 0 0 0 0 0 0 0 0 127 0" result="hardAlpha"/>
<feOffset/>
<feGaussianBlur stdDeviation="2.43071"/>
<feComposite in2="hardAlpha" operator="out"/>
<feColorMatrix type="matrix" values="0 0 0 0 0 0 0 0 0 0 0 0 0 0 0 0 0 0 0.16 0"/>
<feBlend mode="normal" in2="BackgroundImageFix" result="effect1_dropShadow_5385_4328"/>
<feBlend mode="normal" in="SourceGraphic" in2="effect1_dropShadow_5385_4328" result="shape"/>
</filter>
<filter id="filter2_d_5385_4328" x="19.6636" y="25.3265" width="25.2171" height="23.7725" filterUnits="userSpaceOnUse" color-interpolation-filters="sRGB">
<feFlood flood-opacity="0" result="BackgroundImageFix"/>
<feColorMatrix in="SourceAlpha" type="matrix" values="0 0 0 0 0 0 0 0 0 0 0 0 0 0 0 0 0 0 127 0" result="hardAlpha"/>
<feOffset/>
<feGaussianBlur stdDeviation="2.5708"/>
<feComposite in2="hardAlpha" operator="out"/>
<feColorMatrix type="matrix" values="0 0 0 0 0 0 0 0 0 0 0 0 0 0 0 0 0 0 0.16 0"/>
<feBlend mode="normal" in2="BackgroundImageFix" result="effect1_dropShadow_5385_4328"/>
<feBlend mode="normal" in="SourceGraphic" in2="effect1_dropShadow_5385_4328" result="shape"/>
</filter>
</defs>
</svg>
