<svg width="90" height="90" viewBox="0 0 90 90" fill="none" xmlns="http://www.w3.org/2000/svg">
<path fill-rule="evenodd" clip-rule="evenodd" d="M14.5294 12.1309C13.2346 12.1309 12.1851 13.1805 12.1851 14.4752V76.174C12.1851 77.4688 13.2347 78.5183 14.5294 78.5183H77.2854C78.5801 78.5183 79.6297 77.4688 79.6297 76.174V35.7673L84.3246 33.8632C84.5016 33.7915 84.6173 33.6196 84.6173 33.4287V19.1308C84.6173 18.9399 84.5016 18.7681 84.3246 18.6963L79.6297 16.7923V14.4752C79.6297 13.1805 78.5801 12.1309 77.2854 12.1309H14.5294Z" fill="#EEEEEE"/>
<rect x="5.11722" y="20.5059" width="12.7685" height="1.88416" rx="0.94208" fill="white" stroke="#191919" stroke-width="0.234433"/>
<rect x="5.11722" y="59.043" width="12.7685" height="1.88416" rx="0.94208" fill="white" stroke="#191919" stroke-width="0.234433"/>
<rect x="5.11722" y="39.7754" width="12.7685" height="1.88416" rx="0.94208" fill="white" stroke="#191919" stroke-width="0.234433"/>
<rect x="69.9642" y="12" width="5.2254" height="66.5194" fill="url(#paint0_linear_1887_4258)"/>
<path d="M39.6501 39.1982C39.4125 38.6976 40.0925 38.276 40.4353 38.7113L43.0463 42.0275C43.2726 42.3148 43.7267 42.2404 43.8494 41.8959L45.2659 37.9199C45.4518 37.398 46.2308 37.5807 46.1654 38.1309L45.6668 42.3221C45.6236 42.6852 45.9973 42.9537 46.3277 42.7969L50.1407 40.9871C50.6413 40.7495 51.0629 41.4295 50.6276 41.7723L47.3114 44.3833C47.0241 44.6096 47.0985 45.0637 47.443 45.1864L51.419 46.6029C51.9409 46.7888 51.7582 47.5678 51.208 47.5024L47.0168 47.0038C46.6537 46.9606 46.3852 47.3343 46.542 47.6647L48.3518 51.4777C48.5894 51.9783 47.9094 52.3999 47.5666 51.9646L44.9556 48.6484C44.7293 48.3611 44.2752 48.4355 44.1525 48.78L42.736 52.756C42.5501 53.2779 41.7711 53.0952 41.8365 52.545L42.3351 48.3539C42.3783 47.9907 42.0046 47.7222 41.6742 47.879L37.8612 49.6888C37.3606 49.9264 36.939 49.2464 37.3743 48.9036L40.6905 46.2926C40.9778 46.0663 40.9034 45.6122 40.5589 45.4895L36.5829 44.073C36.061 43.8871 36.2437 43.1081 36.7939 43.1735L40.9851 43.6721C41.3482 43.7153 41.6167 43.3416 41.4599 43.0112L39.6501 39.1982Z" fill="#FA6030"/>
<defs>
<linearGradient id="paint0_linear_1887_4258" x1="72.5769" y1="35.1476" x2="72.5769" y2="105.297" gradientUnits="userSpaceOnUse">
<stop stop-color="#FA6030"/>
<stop offset="1" stop-color="white"/>
</linearGradient>
</defs>
</svg>
