<svg width="266" height="136" viewBox="0 0 266 136" fill="none" xmlns="http://www.w3.org/2000/svg">
<path d="M120.675 98.6078C120.173 98.8764 120.173 99.5964 120.675 99.865L129.998 104.851C130.472 105.105 131.047 104.761 131.047 104.222L131.047 94.2505C131.047 93.712 130.472 93.3679 129.998 93.6219L120.675 98.6078Z" fill="#D9D9D9"/>
<path d="M131.047 105.413L120.675 99.8657C120.173 99.5971 120.173 98.8771 120.675 98.6085L131.047 93.0615" stroke="black" stroke-width="1.04794"/>
<path d="M194.539 105.306C196.218 105.306 197.58 103.945 197.58 102.266L197.58 96.2122C197.58 94.533 196.218 93.1718 194.539 93.1718L131.292 93.1718L131.292 105.306L194.539 105.306Z" fill="#929DD9" stroke="black" stroke-width="1.04794"/>
<path d="M194.539 105.306C196.218 105.306 197.58 103.945 197.58 102.266L197.58 96.2122C197.58 94.533 196.218 93.1718 194.539 93.1718L187.558 93.1718L187.558 105.306L194.539 105.306Z" fill="#EFB6B6" stroke="black" stroke-width="1.04794"/>
<rect x="-0.52397" y="-0.52397" width="12.1343" height="7.16137" transform="matrix(-4.37114e-08 -1 -1 4.37114e-08 189.043 104.782)" fill="#BCBCBC" stroke="black" stroke-width="1.04794"/>
<path d="M120.275 99.3563L124.476 101.603C124.859 99.8436 124.861 98.8666 124.476 97.1094L120.275 99.3563Z" fill="black"/>
<path d="M182.21 101.127L131.707 101.127" stroke="black" stroke-width="1.04794"/>
<path d="M182.211 97.1748L131.708 97.1748" stroke="black" stroke-width="1.04794"/>
<path d="M68.5 51.5L75.5 61L73 65.5L67.5 80.5L78.5 85H92.5L97 82L98.5 85H114L119.5 77V68.5L112.5 62L117 57.5L118 48.5L105 42V39.5L94.5 34L85.5 38.5L84 43L77.5 40.5L71 42L68.5 51.5Z" fill="#FA6030"/>
<path d="M93.75 48L77.25 50L79.25 54.5L75.4318 61.5M73.25 65.5L75.4318 61.5M75.4318 61.5L68.25 51.5L70.75 41.5L77.25 40.5L84.25 43L85.75 38.5L94.75 34L104.75 39.5L104.499 42.1344M103.75 50L104.499 42.1344M104.499 42.1344L117.75 48L116.75 58L112.75 62M107.75 50.5L111.25 53.5L109.25 59V60M109.25 70V60M109.25 60L119.25 68.5V77.5L113.75 85H98.75L96.4559 82M98.75 58L94.75 53.5L84.25 57L85.25 67L77.75 70.5L81.25 76.5L88.75 78.5L92.25 76.5L96.4559 82M100.25 57L93.75 63M93.25 68.5L100.25 75L102.25 74M69.75 74L67.75 80L78.75 85H92.25L96.4559 82" stroke="black" stroke-width="0.98" stroke-linecap="round" stroke-linejoin="round"/>
<circle cx="71.5" cy="71" r="1" fill="black"/>
<circle cx="106.5" cy="74" r="1" fill="black"/>
<circle cx="102.5" cy="55" r="1" fill="black"/>
</svg>
