<svg width="266" height="136" viewBox="0 0 266 136" fill="none" xmlns="http://www.w3.org/2000/svg">
<mask id="path-1-outside-1_3500_7869" maskUnits="userSpaceOnUse" x="42.7666" y="35.3018" width="89" height="82" fill="black">
<rect fill="white" x="42.7666" y="35.3018" width="89" height="82"/>
<path fill-rule="evenodd" clip-rule="evenodd" d="M127.952 36.3018C129.507 36.3018 130.767 37.5617 130.767 39.116V113.183C130.767 114.737 129.507 115.997 127.952 115.997H52.6162C51.062 115.997 49.802 114.737 49.802 113.183V64.6755L44.1657 62.3898C43.9534 62.3036 43.8144 62.0973 43.8144 61.8682V44.7041C43.8144 44.4749 43.9534 44.2686 44.1657 44.1825L49.802 41.8968V39.116C49.802 37.5617 51.062 36.3018 52.6162 36.3018H127.952Z"/>
</mask>
<path fill-rule="evenodd" clip-rule="evenodd" d="M127.952 36.3018C129.507 36.3018 130.767 37.5617 130.767 39.116V113.183C130.767 114.737 129.507 115.997 127.952 115.997H52.6162C51.062 115.997 49.802 114.737 49.802 113.183V64.6755L44.1657 62.3898C43.9534 62.3036 43.8144 62.0973 43.8144 61.8682V44.7041C43.8144 44.4749 43.9534 44.2686 44.1657 44.1825L49.802 41.8968V39.116C49.802 37.5617 51.062 36.3018 52.6162 36.3018H127.952Z" fill="#FA6030"/>
<path d="M49.802 64.6755L50.131 63.8643L50.6774 64.0859V64.6755H49.802ZM44.1657 62.3898L43.8367 63.201H43.8367L44.1657 62.3898ZM44.1657 44.1825L43.8367 43.3712V43.3712L44.1657 44.1825ZM49.802 41.8968H50.6774V42.4864L50.131 42.708L49.802 41.8968ZM129.891 39.116C129.891 38.0452 129.023 37.1772 127.952 37.1772V35.4263C129.99 35.4263 131.642 37.0783 131.642 39.116H129.891ZM129.891 113.183V39.116H131.642V113.183H129.891ZM127.952 115.122C129.023 115.122 129.891 114.254 129.891 113.183H131.642C131.642 115.221 129.99 116.873 127.952 116.873V115.122ZM52.6162 115.122H127.952V116.873H52.6162V115.122ZM50.6774 113.183C50.6774 114.254 51.5454 115.122 52.6162 115.122V116.873C50.5785 116.873 48.9265 115.221 48.9265 113.183H50.6774ZM50.6774 64.6755V113.183H48.9265V64.6755H50.6774ZM44.4948 61.5785L50.131 63.8643L49.4729 65.4868L43.8367 63.201L44.4948 61.5785ZM44.6899 61.8682C44.6899 61.7409 44.6127 61.6263 44.4948 61.5785L43.8367 63.201C43.294 62.9809 42.939 62.4538 42.939 61.8682H44.6899ZM44.6899 44.7041V61.8682H42.939V44.7041H44.6899ZM44.4948 44.9938C44.6127 44.946 44.6899 44.8314 44.6899 44.7041H42.939C42.939 44.1185 43.294 43.5913 43.8367 43.3712L44.4948 44.9938ZM50.131 42.708L44.4948 44.9938L43.8367 43.3712L49.4729 41.0855L50.131 42.708ZM50.6774 39.116V41.8968H48.9265V39.116H50.6774ZM52.6162 37.1772C51.5454 37.1772 50.6774 38.0452 50.6774 39.116H48.9265C48.9265 37.0783 50.5785 35.4263 52.6162 35.4263V37.1772ZM127.952 37.1772H52.6162V35.4263H127.952V37.1772Z" fill="black" mask="url(#path-1-outside-1_3500_7869)"/>
<mask id="path-3-outside-2_3500_7869" maskUnits="userSpaceOnUse" x="134.232" y="35.3018" width="89" height="82" fill="black">
<rect fill="white" x="134.232" y="35.3018" width="89" height="82"/>
<path fill-rule="evenodd" clip-rule="evenodd" d="M138.047 36.3018C136.492 36.3018 135.232 37.5617 135.232 39.116V113.183C135.232 114.737 136.492 115.997 138.047 115.997H213.383C214.937 115.997 216.197 114.737 216.197 113.183V64.6755L221.833 62.3898C222.046 62.3036 222.185 62.0973 222.185 61.8682V44.7041C222.185 44.4749 222.046 44.2686 221.833 44.1825L216.197 41.8968V39.116C216.197 37.5617 214.937 36.3018 213.383 36.3018H138.047Z"/>
</mask>
<path fill-rule="evenodd" clip-rule="evenodd" d="M138.047 36.3018C136.492 36.3018 135.232 37.5617 135.232 39.116V113.183C135.232 114.737 136.492 115.997 138.047 115.997H213.383C214.937 115.997 216.197 114.737 216.197 113.183V64.6755L221.833 62.3898C222.046 62.3036 222.185 62.0973 222.185 61.8682V44.7041C222.185 44.4749 222.046 44.2686 221.833 44.1825L216.197 41.8968V39.116C216.197 37.5617 214.937 36.3018 213.383 36.3018H138.047Z" fill="#191919"/>
<path d="M216.197 64.6755L215.868 63.8643L215.322 64.0859V64.6755H216.197ZM221.833 62.3898L222.162 63.201H222.162L221.833 62.3898ZM221.833 44.1825L222.162 43.3712V43.3712L221.833 44.1825ZM216.197 41.8968H215.322V42.4864L215.868 42.708L216.197 41.8968ZM136.108 39.116C136.108 38.0452 136.976 37.1772 138.047 37.1772V35.4263C136.009 35.4263 134.357 37.0783 134.357 39.116H136.108ZM136.108 113.183V39.116H134.357V113.183H136.108ZM138.047 115.122C136.976 115.122 136.108 114.254 136.108 113.183H134.357C134.357 115.221 136.009 116.873 138.047 116.873V115.122ZM213.383 115.122H138.047V116.873H213.383V115.122ZM215.322 113.183C215.322 114.254 214.454 115.122 213.383 115.122V116.873C215.421 116.873 217.073 115.221 217.073 113.183H215.322ZM215.322 64.6755V113.183H217.073V64.6755H215.322ZM221.504 61.5785L215.868 63.8643L216.526 65.4868L222.162 63.201L221.504 61.5785ZM221.309 61.8682C221.309 61.7409 221.386 61.6263 221.504 61.5785L222.162 63.201C222.705 62.9809 223.06 62.4538 223.06 61.8682H221.309ZM221.309 44.7041V61.8682H223.06V44.7041H221.309ZM221.504 44.9938C221.386 44.946 221.309 44.8314 221.309 44.7041H223.06C223.06 44.1185 222.705 43.5913 222.162 43.3712L221.504 44.9938ZM215.868 42.708L221.504 44.9938L222.162 43.3712L216.526 41.0855L215.868 42.708ZM215.322 39.116V41.8968H217.073V39.116H215.322ZM213.383 37.1772C214.454 37.1772 215.322 38.0452 215.322 39.116H217.073C217.073 37.0783 215.421 35.4263 213.383 35.4263V37.1772ZM138.047 37.1772H213.383V35.4263H138.047V37.1772Z" fill="black" mask="url(#path-3-outside-2_3500_7869)"/>
<rect x="124.383" y="51.3093" width="16.4849" height="3.41874" rx="1.70937" fill="white" stroke="#191919" stroke-width="0.875449"/>
<rect x="124.383" y="97.5711" width="16.4849" height="3.41874" rx="1.70937" fill="white" stroke="#191919" stroke-width="0.875449"/>
<rect x="124.383" y="74.4402" width="16.4849" height="3.41874" rx="1.70937" fill="white" stroke="#191919" stroke-width="0.875449"/>
<rect x="60.7363" y="36.1465" width="6.27288" height="79.8539" fill="url(#paint0_linear_3500_7869)"/>
<path d="M89.9093 68.9764C89.6241 68.3755 90.4404 67.8693 90.8519 68.3919L93.9863 72.3728C94.2579 72.7178 94.8031 72.6285 94.9504 72.2149L96.6509 67.4419C96.8741 66.8154 97.8092 67.0346 97.7307 67.6951L97.1321 72.7265C97.0802 73.1624 97.5289 73.4848 97.9255 73.2965L102.503 71.1239C103.104 70.8387 103.61 71.655 103.087 72.0664L99.1064 75.2009C98.7615 75.4725 98.8508 76.0177 99.2644 76.165L104.037 77.8655C104.664 78.0887 104.445 79.0238 103.784 78.9452L98.7528 78.3467C98.3168 78.2948 97.9945 78.7435 98.1828 79.1401L100.355 83.7175C100.641 84.3184 99.8243 84.8246 99.4128 84.302L96.2784 80.321C96.0067 79.9761 95.4616 80.0654 95.3142 80.479L93.6138 85.252C93.3906 85.8785 92.4554 85.6592 92.534 84.9987L93.1326 79.9674C93.1844 79.5314 92.7358 79.2091 92.3392 79.3973L87.7618 81.57C87.1609 81.8552 86.6547 81.0388 87.1773 80.6274L91.1582 77.4929C91.5032 77.2213 91.4139 76.6762 91.0003 76.5288L86.2273 74.8284C85.6008 74.6052 85.8201 73.67 86.4805 73.7486L91.5119 74.3472C91.9478 74.399 92.2702 73.9504 92.0819 73.5538L89.9093 68.9764Z" fill="#191919"/>
<rect x="178.018" y="48.2021" width="30.5586" height="24.0234" rx="2" fill="white"/>
<rect x="146.198" y="70.8564" width="26.5059" height="24.0234" rx="2" fill="white"/>
<g filter="url(#filter0_d_3500_7869)">
<path d="M164.447 68.2302C164.56 68.8138 164.484 69.3847 164.3 69.9483C164.107 70.5393 163.807 71.0813 163.467 71.6032C162.939 72.4137 162.371 73.1977 161.761 73.9525C161.35 74.4608 160.894 74.9296 160.41 75.3742C160.358 75.4224 160.316 75.4082 160.264 75.3893C159.315 75.0451 158.423 74.594 157.571 74.0676C156.969 73.6959 156.359 73.3352 155.792 72.9128C155.582 72.7564 155.38 72.5891 155.181 72.4202C154.791 72.09 154.46 71.7108 154.196 71.277C153.478 70.0955 153.703 68.5353 154.734 67.572C155.355 66.992 156.097 66.6966 156.953 66.6909C157.567 66.6866 158.132 66.8545 158.645 67.1752C158.731 67.2291 158.732 67.2297 158.788 67.1502C159.172 66.6121 159.682 66.2297 160.31 65.9968C161.577 65.5273 163.078 65.9474 163.878 66.9951C164.169 67.3767 164.363 67.7966 164.447 68.2302Z" fill="#FF3C48"/>
<path d="M163.912 71.8933L163.912 71.8934C163.375 72.7187 162.796 73.5175 162.174 74.2867L162.174 74.2867C161.743 74.8202 161.268 75.308 160.77 75.7655L160.77 75.7656C160.663 75.8639 160.517 75.9377 160.34 75.9386C160.213 75.9393 160.104 75.8973 160.085 75.8901C160.084 75.8897 160.084 75.8894 160.083 75.8892L160.083 75.8892C159.094 75.5306 158.169 75.0622 157.292 74.52M163.912 71.8933L157.292 74.52M163.912 71.8933C164.265 71.3523 164.592 70.7664 164.805 70.1134C165.009 69.4902 165.104 68.8249 164.969 68.1287M163.912 71.8933L164.969 68.1287M157.292 74.52C157.203 74.4653 157.113 74.4103 157.023 74.3549M157.292 74.52L157.023 74.3549M154.837 72.826L154.837 72.826C154.406 72.4612 154.038 72.039 153.742 71.5532L153.742 71.5532C152.889 70.1509 153.16 68.3143 154.371 67.1836L154.837 72.826ZM154.837 72.826C155.039 72.9965 155.251 73.1726 155.475 73.3393L154.837 72.826ZM164.969 68.1287C164.868 67.6077 164.637 67.1133 164.3 66.6726L164.969 68.1287ZM157.023 74.3549C156.512 74.0415 155.976 73.7133 155.475 73.3393L157.023 74.3549ZM158.595 66.5387C158.088 66.2869 157.537 66.1551 156.949 66.1592L160.125 65.4982C159.523 65.7214 159.009 66.0676 158.595 66.5387ZM158.926 66.7257C158.927 66.7264 158.928 66.7269 158.929 66.7273L158.93 66.7278C158.939 66.7324 158.947 66.7368 158.947 66.7367C158.947 66.7367 158.941 66.7334 158.927 66.7242C158.927 66.7242 158.927 66.7241 158.926 66.7241L158.925 66.7256L158.926 66.7257ZM156.949 66.1592C155.961 66.1658 155.09 66.5118 154.372 67.1834L156.949 66.1592ZM164.3 66.6724C163.354 65.4325 161.604 64.9503 160.125 65.4982L164.3 66.6724Z" stroke="white" stroke-width="1.06342"/>
</g>
<g filter="url(#filter1_d_3500_7869)">
<path d="M195.638 43.0823C196.319 42.6927 197.167 43.1823 197.17 43.9667L197.18 46.726C197.182 47.0133 197.303 47.2869 197.516 47.48L199.56 49.3341C200.141 49.8612 199.937 50.819 199.192 51.0642L196.571 51.9269C196.298 52.0167 196.075 52.2172 195.958 52.4792L194.826 54.9956C194.504 55.711 193.53 55.8134 193.067 55.1805L191.436 52.9544C191.266 52.7226 191.007 52.5729 190.721 52.5417L187.978 52.2428C187.199 52.1579 186.8 51.2633 187.259 50.627L188.872 48.3885C189.04 48.1554 189.103 47.8624 189.044 47.5811L188.481 44.88C188.32 44.1121 189.048 43.4569 189.795 43.6965L192.422 44.5391C192.696 44.6269 192.994 44.5955 193.243 44.4528L195.638 43.0823Z" fill="#FFD568"/>
<path d="M189.99 43.0874L189.817 43.6267L189.99 43.0874C188.777 42.6981 187.594 43.7628 187.854 45.0106L188.418 47.7117C188.44 47.8172 188.416 47.9271 188.353 48.0145L186.74 50.253C185.995 51.287 186.642 52.7407 187.909 52.8787L190.652 53.1776C190.759 53.1893 190.857 53.2455 190.92 53.3324L192.551 55.5585C193.304 56.5868 194.886 56.4205 195.409 55.258L196.541 52.7416C196.585 52.6434 196.669 52.5682 196.771 52.5345L199.392 51.6718C200.603 51.2733 200.934 49.7169 199.99 48.8604L197.946 47.0063C197.866 46.9339 197.821 46.8313 197.82 46.7235L197.81 43.9643C197.805 42.6896 196.427 41.894 195.32 42.5271L192.926 43.8977C192.832 43.9512 192.72 43.9629 192.618 43.93L189.99 43.0874Z" stroke="white" stroke-width="1.27932"/>
</g>
<g filter="url(#filter2_d_3500_7869)">
<path d="M203.24 98.643L204.759 95.9175C204.939 95.5941 204.603 95.1818 204.21 95.2424L201.295 95.6929C200.689 95.1668 199.976 94.7272 199.169 94.4155C198.293 94.0771 197.398 93.9228 196.531 93.9306L194.584 91.5237C194.333 91.2141 193.807 91.2935 193.723 91.6539L192.95 94.9746L193.081 94.9553C192.171 95.5584 191.449 96.4097 191.042 97.4637C189.893 100.438 191.669 103.894 195.009 105.184C198.349 106.475 201.987 105.11 203.136 102.136C203.578 100.993 203.586 99.7784 203.24 98.643Z" fill="black"/>
<path d="M193.1 91.5089L192.361 94.6843C191.52 95.3329 190.847 96.1936 190.445 97.2331C189.145 100.6 191.176 104.389 194.778 105.781C198.381 107.173 202.432 105.733 203.733 102.367C204.195 101.17 204.233 99.9088 203.927 98.7241L205.318 96.2289L205.318 96.2288C205.564 95.7872 205.431 95.3215 205.196 95.0321C204.96 94.743 204.561 94.5411 204.112 94.6102L204.112 94.6103L201.483 95.0166C200.875 94.5285 200.177 94.1189 199.4 93.8188C198.553 93.4915 197.687 93.322 196.84 93.2946L195.081 91.1213L195.081 91.1211C194.795 90.7683 194.364 90.6493 193.996 90.7051C193.627 90.7609 193.215 91.0164 193.1 91.5087L193.1 91.5089Z" stroke="white" stroke-width="1.27932"/>
</g>
<circle cx="195.243" cy="98.1086" r="1.58516" fill="white"/>
<circle cx="195.243" cy="98.1093" r="0.925665" fill="black"/>
<circle cx="199.859" cy="99.9494" r="1.58516" fill="white"/>
<circle cx="199.859" cy="99.9501" r="0.925665" fill="black"/>
<defs>
<filter id="filter0_d_3500_7869" x="148.461" y="60.4885" width="21.356" height="20.2359" filterUnits="userSpaceOnUse" color-interpolation-filters="sRGB">
<feFlood flood-opacity="0" result="BackgroundImageFix"/>
<feColorMatrix in="SourceAlpha" type="matrix" values="0 0 0 0 0 0 0 0 0 0 0 0 0 0 0 0 0 0 127 0" result="hardAlpha"/>
<feOffset/>
<feGaussianBlur stdDeviation="2.12684"/>
<feComposite in2="hardAlpha" operator="out"/>
<feColorMatrix type="matrix" values="0 0 0 0 0 0 0 0 0 0 0 0 0 0 0 0 0 0 0.16 0"/>
<feBlend mode="normal" in2="BackgroundImageFix" result="effect1_dropShadow_3500_7869"/>
<feBlend mode="normal" in="SourceGraphic" in2="effect1_dropShadow_3500_7869" result="shape"/>
</filter>
<filter id="filter1_d_3500_7869" x="180.666" y="36.5468" width="25.6272" height="25.4494" filterUnits="userSpaceOnUse" color-interpolation-filters="sRGB">
<feFlood flood-opacity="0" result="BackgroundImageFix"/>
<feColorMatrix in="SourceAlpha" type="matrix" values="0 0 0 0 0 0 0 0 0 0 0 0 0 0 0 0 0 0 127 0" result="hardAlpha"/>
<feOffset/>
<feGaussianBlur stdDeviation="2.55864"/>
<feComposite in2="hardAlpha" operator="out"/>
<feColorMatrix type="matrix" values="0 0 0 0 0 0 0 0 0 0 0 0 0 0 0 0 0 0 0.16 0"/>
<feBlend mode="normal" in2="BackgroundImageFix" result="effect1_dropShadow_3500_7869"/>
<feBlend mode="normal" in="SourceGraphic" in2="effect1_dropShadow_3500_7869" result="shape"/>
</filter>
<filter id="filter2_d_3500_7869" x="184.291" y="84.9354" width="26.9162" height="27.1281" filterUnits="userSpaceOnUse" color-interpolation-filters="sRGB">
<feFlood flood-opacity="0" result="BackgroundImageFix"/>
<feColorMatrix in="SourceAlpha" type="matrix" values="0 0 0 0 0 0 0 0 0 0 0 0 0 0 0 0 0 0 127 0" result="hardAlpha"/>
<feOffset/>
<feGaussianBlur stdDeviation="2.55864"/>
<feComposite in2="hardAlpha" operator="out"/>
<feColorMatrix type="matrix" values="0 0 0 0 0 0 0 0 0 0 0 0 0 0 0 0 0 0 0.16 0"/>
<feBlend mode="normal" in2="BackgroundImageFix" result="effect1_dropShadow_3500_7869"/>
<feBlend mode="normal" in="SourceGraphic" in2="effect1_dropShadow_3500_7869" result="shape"/>
</filter>
<linearGradient id="paint0_linear_3500_7869" x1="63.8728" y1="63.9342" x2="63.8728" y2="148.146" gradientUnits="userSpaceOnUse">
<stop stop-color="#191919"/>
<stop offset="1" stop-color="#FA6030"/>
</linearGradient>
</defs>
</svg>
