<svg width="117" height="43" viewBox="0 0 117 43" fill="none" xmlns="http://www.w3.org/2000/svg">
<rect x="11.0352" y="4.07031" width="105.356" height="38" rx="18.7601" fill="white"/>
<rect x="11.0352" y="4.07031" width="105.356" height="38" rx="18.7601" stroke="black"/>
<path d="M39.8477 23.8516V25.0859H34.1289V29.8984H32.6758V25.0859H27.0352V23.8516H39.8477ZM33.4102 16.4297C36.3633 16.4297 38.3945 17.6328 38.3945 19.5391C38.3945 21.4297 36.3633 22.6172 33.4102 22.6172C30.4414 22.6172 28.4258 21.4297 28.4258 19.5391C28.4258 17.6328 30.4414 16.4297 33.4102 16.4297ZM33.4102 17.6172C31.332 17.6328 29.9414 18.3516 29.957 19.5391C29.9414 20.7109 31.332 21.4297 33.4102 21.4297C35.4883 21.4297 36.8789 20.7109 36.8789 19.5391C36.8789 18.3516 35.4883 17.6328 33.4102 17.6172ZM52.1039 15.8984V29.9297H50.6195V15.8984H52.1039ZM47.8227 17.1641V22.2734H42.7914V25.3359C45.057 25.3281 47.0414 25.2266 49.3852 24.8359L49.5258 26.0547C47.0414 26.4766 44.932 26.5703 42.4633 26.5703H41.2758V21.0859H46.307V18.3672H41.2602V17.1641H47.8227ZM66.6883 21.6328V22.8203H53.907V21.6328H66.6883ZM65.1727 19.4297V20.6172H55.5789V16.3047H65.032V17.5078H57.0633V19.4297H65.1727ZM65.0633 23.9297V27.3203H56.907V28.5703H65.4539V29.7422H55.4539V26.2266H63.5945V25.0703H55.4383V23.9297H65.0633ZM71.8977 16.8984C74.1164 16.8828 75.6945 18.2578 75.7102 20.2266C75.6945 22.1953 74.1164 23.5703 71.8977 23.5703C69.6945 23.5703 68.0695 22.1953 68.0852 20.2266C68.0695 18.2578 69.6945 16.8828 71.8977 16.8984ZM71.8977 18.1797C70.5383 18.1797 69.5383 18.9922 69.5539 20.2266C69.5383 21.4609 70.5383 22.2734 71.8977 22.2734C73.257 22.2734 74.257 21.4609 74.257 20.2266C74.257 18.9922 73.257 18.1797 71.8977 18.1797ZM78.9133 15.8984V29.9297H77.4289V15.8984H78.9133ZM67.4133 25.6797C69.9602 25.6797 73.4914 25.6484 76.5539 25.2109L76.6633 26.2891C73.4914 26.8984 70.1008 26.9141 67.6008 26.9141L67.4133 25.6797Z" fill="#191919"/>
<path d="M100.892 18.3921L91.5352 27.7485" stroke="black" stroke-width="1.1"/>
<path d="M100.892 27.7485L91.5352 18.3921" stroke="black" stroke-width="1.1"/>
<rect x="0.5" y="0.5" width="22.0703" height="22.0703" rx="11.0352" fill="white" stroke="#191919"/>
<path d="M8.86103 8.46804C9.31634 8.46804 9.73535 8.58351 10.1181 8.81446C10.5008 9.04541 10.8109 9.42813 11.0485 9.96262C11.2926 10.4971 11.4147 11.1999 11.4147 12.0709C11.4147 12.9419 11.2926 13.6447 11.0485 14.1791C10.8109 14.7136 10.5008 15.0963 10.1181 15.3273C9.73535 15.5517 9.31634 15.6638 8.86103 15.6638C8.40573 15.6638 7.98671 15.5517 7.60399 15.3273C7.22127 15.0963 6.90784 14.7136 6.66369 14.1791C6.42614 13.6447 6.30736 12.9419 6.30736 12.0709C6.30736 11.1999 6.42614 10.4971 6.66369 9.96262C6.90784 9.42813 7.22127 9.04541 7.60399 8.81446C7.98671 8.58351 8.40573 8.46804 8.86103 8.46804ZM8.86103 15.0897C9.39552 15.0897 9.83763 14.8654 10.1874 14.4167C10.5437 13.968 10.7218 13.186 10.7218 12.0709C10.7218 10.9491 10.5437 10.1639 10.1874 9.71517C9.83763 9.26647 9.39552 9.04212 8.86103 9.04212C8.32654 9.04212 7.88444 9.26647 7.53471 9.71517C7.18498 10.1639 7.01012 10.9491 7.01012 12.0709C7.01012 13.1926 7.18498 13.9779 7.53471 14.4266C7.88444 14.8687 8.32654 15.0897 8.86103 15.0897ZM16.4422 15.5352H11.9882V15.2679C11.9882 14.8258 12.0706 14.4431 12.2356 14.1198C12.4072 13.7964 12.6183 13.5259 12.8691 13.3081C13.1264 13.0904 13.4629 12.8495 13.8787 12.5856L14.4626 12.2194C14.753 12.028 14.9872 11.8564 15.1654 11.7047C15.3502 11.5529 15.5019 11.3747 15.6207 11.1702C15.7395 10.9656 15.7989 10.7281 15.7989 10.4575C15.7989 10.022 15.6603 9.67888 15.3831 9.42813C15.106 9.17739 14.7431 9.05201 14.2944 9.05201C13.8523 9.05201 13.4827 9.20048 13.1858 9.49742C12.8889 9.79436 12.7041 10.2068 12.6315 10.7347L11.9585 10.6753C12.0508 9.96922 12.3082 9.42483 12.7305 9.04212C13.1594 8.6594 13.6807 8.46804 14.2944 8.46804C14.6969 8.46804 15.0631 8.54392 15.393 8.69569C15.7296 8.84086 15.9968 9.06191 16.1948 9.35885C16.3927 9.65579 16.4917 10.0121 16.4917 10.4278C16.4917 10.7973 16.4191 11.1141 16.274 11.378C16.1288 11.642 15.9506 11.863 15.7395 12.0412C15.5283 12.2128 15.2446 12.414 14.8883 12.645L14.6705 12.7835L14.136 13.1399C13.6741 13.4434 13.3178 13.7337 13.067 14.0109C12.8229 14.2814 12.7008 14.5883 12.7008 14.9314H16.4422V15.5352Z" fill="black"/>
</svg>
