<svg width="195" height="132" viewBox="0 0 195 132" fill="none" xmlns="http://www.w3.org/2000/svg">
<path d="M43.2417 99H162.758C165.654 99 168 96.6516 168 93.7534V20.2466C168 17.3483 165.654 15 162.758 15H43.2417C40.3461 15 38 17.3483 38 20.2466V93.7534C38 96.6493 40.3485 99 43.2417 99Z" fill="#929DD9" stroke="#191919" stroke-width="1.47" stroke-miterlimit="10"/>
<path d="M39 20C39 17.2386 41.2386 15 44 15H164C166.761 15 169 17.2386 169 20V29H39V20Z" fill="#494949"/>
<path d="M43.2417 99H162.758C165.654 99 168 96.6517 168 93.7534V20.2466C168 17.3483 165.654 15 162.758 15H43.2417C40.3461 15 38 17.3483 38 20.2466V93.7534C38 96.6493 40.3485 99 43.2417 99Z" stroke="#191919" stroke-width="1.47" stroke-miterlimit="10"/>
<path d="M52.3781 37.38L3.6444 121.858C1.81298 125.033 4.10344 129 7.76627 129H105.234C108.897 129 111.187 125.031 109.356 121.858L60.6195 37.38C58.7881 34.2067 54.2095 34.2067 52.3781 37.38Z" fill="#FA6030" stroke="#191919" stroke-width="1.47" stroke-miterlimit="10"/>
<path d="M52.9182 52.7723L16.4818 115.681C15.1125 118.046 16.825 121 19.5636 121H92.4364C95.175 121 96.8875 118.044 95.5182 115.681L59.08 52.7723C57.7107 50.4092 54.2875 50.4092 52.9182 52.7723Z" fill="white" stroke="#191919" stroke-width="1.4" stroke-miterlimit="10"/>
<path d="M58.3246 99H54.6754C53.6726 99 52.8488 98.2897 52.813 97.3948L52.0012 76.7206C51.9634 75.7795 52.8091 75 53.8636 75H59.1364C60.1909 75 61.0366 75.7813 60.9988 76.7206L60.187 97.3948C60.1531 98.2915 59.3294 99 58.3246 99Z" fill="#191919"/>
<path d="M57 110C54.7908 110 53 108.209 53 106C53 103.791 54.7908 102 57 102C59.2092 102 61 103.791 61 106C61.002 108.209 59.2112 110 57 110Z" fill="#191919"/>
<rect x="107.653" y="40.6533" width="50.6933" height="50.6933" fill="#191919" stroke="black" stroke-width="1.3067"/>
<rect x="101.653" y="34.6533" width="50.6933" height="50.6933" fill="white" stroke="black" stroke-width="1.3067"/>
<path d="M192.569 108.569L136 52L131.05 56.9497L187.619 113.518L192.569 108.569Z" fill="#F8E99A" stroke="#191919" stroke-width="1.47" stroke-miterlimit="10"/>
<path d="M137.92 73.9203L116 52L111.05 56.9497L132.971 78.8701L137.92 73.9203Z" fill="#F8E99A" stroke="#191919" stroke-width="1.47" stroke-miterlimit="10"/>
<path d="M39 29H169" stroke="black" stroke-width="1.4"/>
<path d="M152.527 35.5269L120 3L115.05 7.94975L147.577 40.4767L152.527 35.5269Z" fill="#F8E99A" stroke="#191919" stroke-width="1.47" stroke-miterlimit="10"/>
</svg>
