<svg width="450" height="200" viewBox="0 0 450 200" fill="none" xmlns="http://www.w3.org/2000/svg">
<g clip-path="url(#clip0_5382_1271)">
<mask id="mask0_5382_1271" style="mask-type:alpha" maskUnits="userSpaceOnUse" x="0" y="0" width="450" height="207">
<rect width="450" height="207" fill="#DDDDDD"/>
</mask>
<g mask="url(#mask0_5382_1271)">
<rect x="-5" y="-5" width="466" height="266" fill="url(#paint0_linear_5382_1271)"/>
</g>
<path opacity="0.1" d="M261.968 97.1187C264.738 92.1806 272.271 95.3585 270.667 100.788L258.391 142.337C257.332 145.921 260.636 149.268 264.234 148.255L305.938 136.521C311.388 134.987 314.468 142.561 309.494 145.266L271.435 165.965C268.152 167.751 268.121 172.454 271.381 174.282L309.168 195.473C314.106 198.243 310.929 205.776 305.499 204.172L263.95 191.897C260.366 190.838 257.019 194.141 258.032 197.739L269.766 239.443C271.3 244.893 263.726 247.973 261.021 243L240.322 204.94C238.536 201.657 233.833 201.626 232.005 204.886L210.814 242.673C208.044 247.612 200.511 244.434 202.115 239.004L214.39 197.455C215.449 193.871 212.146 190.524 208.548 191.537L166.844 203.271C161.394 204.805 158.314 197.231 163.287 194.526L201.347 173.827C204.63 172.041 204.661 167.339 201.401 165.511L163.614 144.319C158.675 141.549 161.853 134.016 167.283 135.62L208.832 147.896C212.416 148.955 215.763 145.651 214.75 142.053L203.016 100.349C201.482 94.8987 209.056 91.8188 211.761 96.7926L232.46 134.852C234.246 138.135 238.948 138.166 240.777 134.906L261.968 97.1187Z" fill="white"/>
<path d="M349.838 167.575C349.992 167.301 350.409 167.478 350.319 167.779L349.657 170.01C349.598 170.208 349.781 170.394 349.98 170.338L352.221 169.71C352.523 169.626 352.693 170.046 352.418 170.195L350.372 171.304C350.19 171.403 350.188 171.664 350.368 171.765L352.397 172.906C352.67 173.06 352.493 173.477 352.193 173.388L349.962 172.725C349.763 172.666 349.578 172.849 349.634 173.049L350.261 175.289C350.346 175.591 349.926 175.761 349.776 175.486L348.667 173.44C348.568 173.258 348.308 173.256 348.206 173.436L347.066 175.465C346.912 175.738 346.495 175.561 346.584 175.261L347.246 173.03C347.305 172.831 347.122 172.646 346.923 172.702L344.682 173.329C344.38 173.414 344.21 172.994 344.486 172.844L346.531 171.735C346.713 171.636 346.715 171.376 346.535 171.274L344.507 170.134C344.233 169.98 344.41 169.563 344.711 169.652L346.941 170.314C347.14 170.373 347.326 170.19 347.27 169.991L346.642 167.75C346.558 167.448 346.978 167.278 347.127 167.554L348.236 169.599C348.335 169.781 348.595 169.783 348.697 169.603L349.838 167.575Z" fill="white"/>
<path d="M235.589 19.6014C235.746 19.1393 236.435 19.2911 236.384 19.7765L236.014 23.2865C235.98 23.6069 236.312 23.8391 236.602 23.697L239.77 22.141C240.208 21.9258 240.587 22.5199 240.208 22.827L237.464 25.0474C237.214 25.2501 237.285 25.6493 237.59 25.7534L240.93 26.8931C241.392 27.0508 241.24 27.7392 240.755 27.6881L237.245 27.3182C236.924 27.2844 236.692 27.6168 236.834 27.9061L238.39 31.0739C238.605 31.5121 238.011 31.8916 237.704 31.5122L235.484 28.7687C235.281 28.5182 234.882 28.5891 234.778 28.8941L233.638 32.2344C233.481 32.6964 232.792 32.5446 232.843 32.0592L233.213 28.5492C233.247 28.2288 232.914 27.9966 232.625 28.1387L229.457 29.6947C229.019 29.9099 228.64 29.3158 229.019 29.0087L231.763 26.7883C232.013 26.5856 231.942 26.1864 231.637 26.0823L228.297 24.9426C227.835 24.7849 227.987 24.0965 228.472 24.1476L231.982 24.5175C232.303 24.5513 232.535 24.2189 232.393 23.9296L230.837 20.7618C230.621 20.3236 231.216 19.9441 231.523 20.3236L233.743 23.067C233.946 23.3175 234.345 23.2466 234.449 22.9416L235.589 19.6014Z" fill="white"/>
<g clip-path="url(#clip1_5382_1271)">
<path d="M223.321 211.118L233.113 118.773L238.124 71.5148C238.124 71.5148 238.464 68.666 240.051 67.1159C242 66 243.5 65 246.5 65.5C249.891 66.2425 250.636 67.3709 252 69C252.493 70.9348 252.524 73.8237 252.524 73.8237L248.829 108.665L244.151 152.789C244.151 152.789 243.166 159.143 246.763 161.973C250.356 164.803 252.954 164.695 258.003 165.231C263.052 165.766 283.212 167.904 283.212 167.904L278.015 216.918L223.321 211.118Z" fill="white"/>
<path d="M349.499 82.3331L339.396 86.8342C336.269 88.2272 332.578 86.803 331.19 83.6688C329.802 80.5347 331.225 76.8346 334.352 75.4416L344.455 70.9405C347.583 69.5475 351.273 70.9717 352.661 74.1059C354.049 77.2401 352.626 80.9401 349.499 82.3331Z" fill="white" stroke="black" stroke-width="1.2" stroke-miterlimit="10"/>
<path d="M252.877 163.972C247.714 163.424 243.947 158.863 244.483 153.801L257.721 28.9594C258.258 23.9004 262.895 20.2269 268.061 20.7747L333.853 27.7511C339.017 28.2986 342.784 32.8602 342.247 37.9223L329.009 162.764C328.473 167.823 323.836 171.496 318.669 170.948L252.877 163.972Z" fill="#5E6066" stroke="black" stroke-width="1.2" stroke-miterlimit="10" stroke-linecap="square" stroke-linejoin="bevel"/>
<path d="M319.935 166.054L253.661 159.027C251.651 158.814 250.174 157.037 250.382 155.074L263.65 29.9457C263.858 27.9864 265.672 26.555 267.685 26.7684L333.959 33.7959C335.969 34.009 337.446 35.7862 337.238 37.7487L323.969 162.877C323.762 164.836 321.944 166.268 319.935 166.054Z" fill="white" stroke="black" stroke-width="1.2" stroke-miterlimit="10" stroke-linecap="square" stroke-linejoin="bevel"/>
<path d="M223.321 211.118L238.067 72.052C238.482 68.1398 242.179 65.2937 246.28 65.7286C250.381 66.1635 253.399 69.7215 252.984 73.6337" stroke="black" stroke-width="1.2" stroke-miterlimit="10"/>
<path d="M277.909 217.912L283.287 167.196" stroke="black" stroke-width="1.2" stroke-miterlimit="10"/>
<rect x="262.13" y="44.2803" width="73.4254" height="19" transform="rotate(6.05286 262.13 44.2803)" fill="#191919"/>
<path d="M295.303 63.5923C295.307 62.6277 294.528 61.8431 293.563 61.8388L267.055 61.7205C266.091 61.7162 265.307 62.4939 265.304 63.4585L265.216 89.9668C265.213 90.9314 265.992 91.7161 266.956 91.7204L283.665 91.7949L295.248 80.302L295.303 63.5923Z" fill="#EFB6B6" stroke="black" stroke-width="0.694132" stroke-miterlimit="10"/>
<path d="M295.116 80.3198L285.544 80.2771C284.601 80.2729 283.836 81.0326 283.833 81.9749L283.801 91.547L295.116 80.3198Z" fill="#333333" stroke="black" stroke-width="0.694132" stroke-miterlimit="10" stroke-linecap="square" stroke-linejoin="bevel"/>
<path opacity="0.6" d="M274.911 74.469C274.903 75.3566 275.345 76.2545 276.113 76.6289L275.738 77.1164C275.2 76.8419 274.814 76.3153 274.605 75.6823C274.386 76.3574 273.977 76.9161 273.407 77.1994L273.035 76.7086C273.836 76.3329 274.295 75.3841 274.301 74.4663L274.304 73.6748L274.914 73.6775L274.911 74.469ZM276.405 78.2516L276.421 73.2831L277.031 73.2858L277.025 75.2314L277.789 75.2348L277.787 75.757L277.023 75.7536L277.015 78.2543L276.405 78.2516ZM281.923 73.3131L281.919 74.5003L282.617 74.5034L282.615 75.009L281.917 75.0059L281.913 76.2975L281.303 76.2948L281.313 73.3104L281.923 73.3131ZM278.188 74.0824L278.19 73.5987L280.46 73.6089L280.455 75.0379L278.801 75.0305L278.799 75.5526C279.64 75.5509 280.223 75.5233 280.899 75.4136L280.963 75.9031C280.224 76.0344 279.575 76.059 278.594 76.0519L278.187 76.05L278.192 74.5661L279.858 74.5735L279.859 74.0899L278.188 74.0824ZM278.606 77.3325C278.605 76.7472 279.25 76.3983 280.291 76.4002C281.316 76.4075 281.958 76.7622 281.959 77.3475C281.954 77.9301 281.31 78.2625 280.285 78.2579C279.244 78.2533 278.602 77.9151 278.606 77.3325ZM279.205 77.3352C279.202 77.632 279.591 77.7959 280.287 77.7962C280.971 77.802 281.353 77.6416 281.354 77.3448C281.355 77.0453 280.974 76.8814 280.29 76.8784C279.594 76.8753 279.204 77.0357 279.205 77.3352ZM285.289 74.1141L285.288 74.6033L282.853 74.5924L282.855 74.1032L283.778 74.1074L283.78 73.4588L284.385 73.4615L284.382 74.1101L285.289 74.1141ZM282.991 76.011C282.988 75.335 283.448 74.8561 284.078 74.8617C284.71 74.8617 285.159 75.3447 285.157 76.0207C285.154 76.7105 284.702 77.1894 284.07 77.1866C283.441 77.1837 282.983 76.7008 282.991 76.011ZM283.53 76.0134C283.526 76.4146 283.75 76.6657 284.072 76.6644C284.39 76.6686 284.617 76.4195 284.618 76.0183C284.619 75.6281 284.395 75.3687 284.076 75.3673C283.754 75.3659 283.528 75.6232 283.53 76.0134ZM285.485 78.0668L285.5 73.428L286.072 73.4306L286.066 75.3707L286.549 75.3729L286.556 73.3283L287.139 73.3309L287.122 78.2994L286.54 78.2968L286.548 75.8675L286.064 75.8654L286.057 78.0693L285.485 78.0668Z" fill="#472D2D"/>
<path d="M321.601 135.913C321.771 134.963 321.139 134.057 320.189 133.888L294.091 129.247C293.141 129.078 292.234 129.71 292.065 130.66L287.402 156.755C287.232 157.704 287.864 158.61 288.814 158.779L305.265 161.705L318.662 152.362L321.601 135.913Z" fill="#85CEAF" stroke="black" stroke-width="0.694132" stroke-miterlimit="10"/>
<path d="M318.586 152.248L308.893 150.524C307.939 150.354 307.028 150.99 306.858 151.944L305.127 161.634L318.586 152.248Z" fill="#333333" stroke="black" stroke-width="0.694132" stroke-miterlimit="10" stroke-linecap="square" stroke-linejoin="bevel"/>
<path opacity="0.6" d="M299.63 143.145C299.469 144.018 299.749 144.978 300.442 145.477L299.988 145.894C299.505 145.531 299.216 144.947 299.119 144.288C298.786 144.915 298.287 145.396 297.677 145.578L297.395 145.031C298.249 144.797 298.865 143.941 299.029 143.038L299.169 142.259L299.769 142.366L299.63 143.145ZM300.449 147.126L301.323 142.234L301.923 142.341L301.581 144.257L302.333 144.39L302.241 144.904L301.489 144.771L301.049 147.232L300.449 147.126ZM306.738 143.203L306.53 144.372L307.217 144.494L307.128 144.992L306.441 144.87L306.213 146.141L305.613 146.034L306.138 143.096L306.738 143.203ZM302.926 143.323L303.011 142.847L305.246 143.245L304.994 144.652L303.366 144.362L303.274 144.876C304.103 145.018 304.682 145.09 305.367 145.097L305.346 145.59C304.594 145.594 303.951 145.507 302.986 145.333L302.585 145.261L302.846 143.801L304.486 144.092L304.571 143.616L302.926 143.323ZM302.777 146.596C302.877 146.019 303.572 145.786 304.598 145.965C305.606 146.148 306.178 146.606 306.077 147.183C305.972 147.756 305.28 147.974 304.271 147.794C303.246 147.612 302.671 147.169 302.777 146.596ZM303.366 146.701C303.311 146.993 303.667 147.221 304.352 147.34C305.025 147.462 305.43 147.369 305.482 147.077C305.535 146.782 305.187 146.556 304.514 146.436C303.829 146.314 303.416 146.406 303.366 146.701ZM309.917 144.567L309.831 145.048L307.434 144.622L307.52 144.141L308.429 144.302L308.543 143.664L309.138 143.77L309.024 144.408L309.917 144.567ZM307.325 146.043C307.439 145.377 307.975 144.983 308.594 145.096C309.217 145.204 309.576 145.757 309.457 146.422C309.336 147.101 308.808 147.496 308.185 147.385C307.566 147.275 307.198 146.721 307.325 146.043ZM307.856 146.137C307.782 146.532 307.96 146.817 308.277 146.871C308.591 146.93 308.856 146.723 308.927 146.328C308.996 145.944 308.819 145.65 308.505 145.594C308.189 145.538 307.921 145.753 307.856 146.137ZM309.428 148.494L310.244 143.927L310.806 144.027L310.465 145.937L310.941 146.022L311.301 144.009L311.875 144.111L311.001 149.002L310.427 148.9L310.854 146.509L310.378 146.424L309.991 148.594L309.428 148.494Z" fill="#2D473C"/>
<path d="M327.566 88.064C327.762 87.1193 327.154 86.1971 326.209 86.0031L300.243 80.6709C299.298 80.4769 298.375 81.0848 298.18 82.0295L292.819 107.99C292.624 108.935 293.231 109.857 294.176 110.051L310.543 113.412L324.187 104.428L327.566 88.064Z" fill="#F8E99A" stroke="black" stroke-width="0.694132" stroke-miterlimit="10"/>
<path opacity="0.6" d="M310.536 92.5034L310.272 93.7845L310.95 93.9238L310.847 94.4244L310.168 94.2851L309.895 95.6092L309.297 95.4866L309.939 92.3808L310.536 92.5034ZM306.504 92.68L306.601 92.2117L307.747 92.4471L307.856 91.9196L308.454 92.0423L308.345 92.5698L309.486 92.8041L309.39 93.2724L306.504 92.68ZM306.532 93.7966C306.639 93.2745 307.196 93.0268 307.907 93.17C308.609 93.3169 309.022 93.7636 308.917 94.2862C308.806 94.8078 308.251 95.0528 307.548 94.9086C306.837 94.7627 306.424 94.3187 306.532 93.7966ZM306.511 95.8516C306.618 95.3096 307.305 95.1196 308.314 95.3296C309.313 95.5319 309.875 95.9783 309.763 96.5192C309.653 97.0548 308.959 97.2463 307.961 97.0413C306.951 96.834 306.396 96.3861 306.511 95.8516ZM307.113 93.916C307.056 94.1792 307.272 94.3834 307.641 94.4564C308.01 94.5348 308.292 94.4328 308.346 94.1691C308.402 93.8999 308.185 93.6871 307.816 93.6114C307.447 93.5356 307.166 93.6463 307.113 93.916ZM307.104 95.9732C307.048 96.231 307.389 96.4526 308.054 96.5891C308.711 96.724 309.11 96.6543 309.166 96.3965C309.218 96.1295 308.876 95.9219 308.22 95.7871C307.555 95.6506 307.156 95.7062 307.104 95.9732ZM313.025 93.8223C312.899 94.4333 313.175 95.0932 313.877 95.4842L313.458 95.8862C312.969 95.6008 312.666 95.1681 312.547 94.6723C312.23 95.146 311.753 95.4717 311.153 95.5532L310.926 95.0186C311.766 94.9076 312.293 94.3396 312.439 93.6458L312.534 93.1829L313.132 93.3056L313.025 93.8223ZM311.258 96.7532C311.377 96.1772 312.08 95.9653 313.095 96.1764C314.102 96.3803 314.653 96.8498 314.537 97.4263C314.413 98.0152 313.721 98.2239 312.715 98.0172C311.7 97.8089 311.137 97.3426 311.258 96.7532ZM311.856 96.8759C311.794 97.1773 312.145 97.4065 312.812 97.5436C313.477 97.6801 313.883 97.6062 313.945 97.3047C314.004 97.0194 313.663 96.7811 312.998 96.6446C312.33 96.5076 311.915 96.5906 311.856 96.8759ZM314.102 96.271L314.703 93.3589L315.301 93.4816L315.057 94.6658L315.735 94.8051L315.633 95.3003L314.954 95.161L314.7 96.3937L314.102 96.271ZM306.06 101.138L305.962 101.611L301.526 100.7L301.624 100.227L306.06 101.138ZM302.34 99.0665C302.46 98.4852 303.224 98.266 304.29 98.4849C305.359 98.7043 305.968 99.2053 305.851 99.7872C305.726 100.376 304.97 100.588 303.901 100.369C302.835 100.15 302.219 99.6559 302.34 99.0665ZM301.795 102.007C301.913 101.436 302.61 101.251 303.673 101.472C304.721 101.685 305.291 102.13 305.176 102.701C305.056 103.268 304.355 103.455 303.309 103.238C302.245 103.022 301.678 102.575 301.795 102.007ZM302.965 99.1948C302.895 99.5058 303.286 99.7573 303.998 99.9005C304.708 100.049 305.167 99.9723 305.231 99.6601C305.295 99.3506 304.904 99.0991 304.193 98.9532C303.482 98.8073 303.023 98.8841 302.965 99.1948ZM302.403 102.132C302.343 102.408 302.696 102.632 303.404 102.775C304.101 102.921 304.516 102.854 304.578 102.578C304.632 102.292 304.277 102.068 303.58 101.924C302.872 101.779 302.459 101.846 302.403 102.132ZM310.945 99.739L310.185 103.421L309.582 103.297L309.67 102.872L308.717 102.676L308.803 102.256L309.756 102.452L310.342 99.6152L310.945 99.739ZM306.391 101.082C307.289 101.261 308.499 101.501 309.56 101.581L309.504 102.018C309.089 102.003 308.665 101.961 308.247 101.906L308.054 102.843L307.456 102.72L307.643 101.816C307.184 101.741 306.75 101.655 306.368 101.577L306.391 101.082ZM306.999 100.012C307.106 99.4978 307.673 99.2496 308.394 99.4004C309.103 99.5431 309.528 99.9952 309.428 100.51C309.314 101.031 308.748 101.26 308.04 101.117C307.319 100.967 306.892 100.534 306.999 100.012ZM306.505 103.793L306.802 102.356L307.399 102.479L307.203 103.431L310.175 104.041L310.075 104.526L306.505 103.793ZM307.565 100.128C307.51 100.392 307.74 100.599 308.13 100.681C308.502 100.755 308.8 100.656 308.857 100.393C308.909 100.129 308.675 99.9154 308.303 99.8418C307.913 99.759 307.619 99.8641 307.565 100.128ZM313.844 101.136L313.745 101.616L311.36 101.126L311.459 100.647L312.364 100.833L312.495 100.197L313.087 100.319L312.956 100.954L313.844 101.136ZM311.213 102.543C311.345 101.88 311.892 101.501 312.507 101.631C313.127 101.755 313.471 102.317 313.335 102.979C313.195 103.654 312.657 104.035 312.037 103.908C311.421 103.781 311.069 103.218 311.213 102.543ZM311.741 102.652C311.657 103.044 311.827 103.334 312.143 103.396C312.455 103.463 312.726 103.263 312.807 102.871C312.886 102.488 312.718 102.19 312.405 102.126C312.09 102.061 311.817 102.269 311.741 102.652ZM313.25 105.049L314.188 100.506L314.748 100.621L314.355 102.521L314.829 102.618L315.242 100.616L315.813 100.733L314.809 105.599L314.238 105.482L314.729 103.102L314.255 103.005L313.81 105.164L313.25 105.049ZM317.295 101.548L316.668 104.286L316.059 104.161L316.563 101.397L317.295 101.548ZM315.788 104.908C315.831 104.681 316.061 104.534 316.293 104.579C316.516 104.628 316.669 104.853 316.622 105.079C316.574 105.31 316.344 105.459 316.121 105.414C315.889 105.366 315.737 105.138 315.788 104.908Z" fill="#846D41"/>
<path d="M323.966 104.31L314.583 102.383C313.659 102.193 312.757 102.788 312.566 103.711L310.629 113.092L323.966 104.31Z" fill="#333333" stroke="black" stroke-width="0.694132" stroke-miterlimit="10" stroke-linecap="square" stroke-linejoin="bevel"/>
<path d="M289.247 107.409C289.127 106.452 288.254 105.772 287.297 105.89L260.987 109.127C260.029 109.244 259.351 110.115 259.471 111.072L262.774 137.374C262.894 138.331 263.767 139.011 264.725 138.893L281.308 136.853L291.329 123.989L289.247 107.409Z" fill="#B3CBE8" stroke="black" stroke-width="0.694132" stroke-miterlimit="10"/>
<path d="M291.108 123.996L281.55 125.172C280.609 125.288 279.943 126.143 280.061 127.084L281.261 136.639L291.108 123.996Z" fill="#333333" stroke="black" stroke-width="0.694132" stroke-miterlimit="10" stroke-linecap="square" stroke-linejoin="bevel"/>
<path opacity="0.6" d="M272.491 121.8L272.552 122.285L270.599 122.526L270.657 122.995L272.059 122.822L272.25 124.344L271.645 124.418L271.515 123.382L268.673 123.731L268.612 123.246L270.057 123.068L269.999 122.599L268.057 122.838L267.996 122.353L272.491 121.8ZM268.125 121.661C269.149 121.455 269.687 121.043 269.702 120.615L268.249 120.793L268.189 120.319L269.689 120.134L269.63 119.665L270.23 119.592L270.289 120.061L271.8 119.875L271.86 120.349L270.392 120.53C270.511 120.942 271.134 121.211 272.183 121.162L272.05 121.644C271.16 121.681 270.474 121.489 270.114 121.095C269.858 121.565 269.24 121.917 268.373 122.096L268.125 121.661ZM276.379 118.841L276.625 120.804L277.384 120.711L277.447 121.213L276.688 121.306L276.998 123.771L276.398 123.845L275.779 118.915L276.379 118.841ZM272.646 120.563L272.585 120.077L273.752 119.934L273.666 119.247L274.271 119.172L274.358 119.859L275.492 119.72L275.553 120.205L272.646 120.563ZM273.061 122.018C272.97 121.337 273.438 120.789 274.159 120.703C274.868 120.613 275.455 121.031 275.543 121.713C275.625 122.392 275.159 122.934 274.45 123.021C273.73 123.11 273.141 122.698 273.061 122.018ZM273.639 121.947C273.687 122.348 274 122.57 274.387 122.519C274.766 122.475 275.01 122.185 274.965 121.784C274.909 121.384 274.6 121.153 274.221 121.2C273.834 121.247 273.586 121.546 273.639 121.947ZM279.849 119.212L279.91 119.697L277.493 119.994L277.432 119.509L278.349 119.396L278.268 118.753L278.868 118.679L278.949 119.323L279.849 119.212ZM277.812 121.384C277.722 120.714 278.117 120.181 278.742 120.107C279.369 120.027 279.877 120.449 279.961 121.12C280.047 121.804 279.659 122.336 279.032 122.413C278.407 122.49 277.892 122.069 277.812 121.384ZM278.346 121.318C278.393 121.717 278.648 121.937 278.967 121.895C279.284 121.859 279.476 121.583 279.426 121.185C279.378 120.798 279.122 120.569 278.805 120.608C278.486 120.648 278.295 120.931 278.346 121.318ZM280.548 123.107L279.971 118.505L280.538 118.435L280.779 120.36L281.26 120.301L281.005 118.272L281.583 118.201L282.202 123.131L281.624 123.202L281.321 120.792L280.841 120.851L281.116 123.038L280.548 123.107ZM283.249 118.5L283.539 121.294L282.923 121.37L282.507 118.592L283.249 118.5ZM282.906 122.164C282.874 121.935 283.044 121.723 283.279 121.692C283.505 121.667 283.723 121.831 283.751 122.06C283.781 122.295 283.611 122.509 283.385 122.537C283.15 122.566 282.933 122.399 282.906 122.164Z" fill="#434866"/>
<rect x="263.782" y="34.3995" width="72.8128" height="10" transform="rotate(6.05286 263.782 34.3995)" fill="#FA6030"/>
<path d="M263.185 34.3361L336.772 42.1391" stroke="black" stroke-width="1.2"/>
<path d="M262.13 44.2803L335.717 52.0833" stroke="black" stroke-width="1.2"/>
<path d="M344.759 97.933L330.75 104.017C327.555 105.405 323.778 103.971 322.351 100.829C320.924 97.6874 322.371 93.9857 325.566 92.598L339.574 86.5136C342.769 85.1259 346.547 86.5604 347.974 89.702C349.397 92.8432 347.951 96.5449 344.759 97.933Z" fill="white" stroke="black" stroke-width="1.2" stroke-miterlimit="10"/>
<path d="M336.507 128.032L333.181 129.43C329.958 130.785 326.139 129.364 324.69 126.271C323.24 123.178 324.69 119.542 327.913 118.187L331.238 116.789C334.461 115.434 338.28 116.855 339.73 119.948C341.176 123.041 339.726 126.679 336.507 128.032Z" fill="white" stroke="black" stroke-width="1.2" stroke-miterlimit="10"/>
<path d="M345.351 111.251L328.196 118.818C324.991 120.231 321.207 118.78 319.782 115.592C318.356 112.404 319.811 108.643 323.016 107.23L340.17 99.6627C343.375 98.2491 347.159 99.7004 348.585 102.888C350.007 106.076 348.552 109.837 345.351 111.251Z" fill="white" stroke="black" stroke-width="1.2" stroke-miterlimit="10"/>
<path d="M323.134 94.8825C325.995 93.473 329.239 94.7214 330.316 97.0686C331.505 99.6529 329.988 103.408 326.593 104.413" stroke="black" stroke-width="1.2" stroke-miterlimit="10"/>
<path d="M320.558 109.693C323.419 108.284 326.663 109.532 327.74 111.88C328.929 114.464 327.412 118.219 324.017 119.224" stroke="black" stroke-width="1.2" stroke-miterlimit="10"/>
<path d="M324.37 121.159C327.231 119.75 330.475 120.998 331.552 123.345C332.741 125.93 331.224 129.685 327.829 130.69" stroke="black" stroke-width="1.2" stroke-miterlimit="10"/>
<g filter="url(#filter0_d_5382_1271)">
<path d="M313.125 123.37L315.262 120.353C315.515 119.995 315.151 119.455 314.666 119.468L311.073 119.571C310.393 118.855 309.573 118.225 308.625 117.734C307.596 117.201 306.524 116.885 305.469 116.765L303.358 113.612C303.086 113.206 302.438 113.222 302.298 113.638L300.953 117.613L301.165 117.471C299.994 118.053 299.026 118.958 298.419 120.151C296.705 123.519 298.496 127.895 302.42 129.927C306.344 131.959 310.912 130.877 312.626 127.51C313.285 126.216 313.424 124.772 313.125 123.37Z" fill="black"/>
<path d="M301.731 113.443L300.474 117.16C299.387 117.794 298.481 118.707 297.886 119.876C295.984 123.614 298.011 128.319 302.148 130.462C306.284 132.604 311.257 131.524 313.159 127.786C313.844 126.44 314.016 124.953 313.761 123.51L315.749 120.704L315.75 120.704C316.059 120.267 315.955 119.761 315.735 119.435C315.515 119.108 315.119 118.854 314.646 118.867L314.646 118.867L311.315 118.962C310.629 118.278 309.819 117.677 308.897 117.2C307.893 116.68 306.849 116.352 305.813 116.203L303.854 113.277L303.853 113.277C303.589 112.882 303.153 112.705 302.761 112.715C302.37 112.725 301.903 112.934 301.731 113.443C301.731 113.443 301.731 113.443 301.731 113.443C301.731 113.443 301.731 113.443 301.731 113.443Z" stroke="white" stroke-width="1.2"/>
</g>
<circle cx="303.374" cy="121.711" r="2" transform="rotate(6.05286 303.374 121.711)" fill="white"/>
<circle cx="303.374" cy="121.711" r="1" transform="rotate(6.05286 303.374 121.711)" fill="black"/>
<circle cx="308.429" cy="124.591" r="2" transform="rotate(6.05286 308.429 124.591)" fill="white"/>
<circle cx="308.555" cy="124.591" r="1" transform="rotate(6.05286 308.555 124.591)" fill="black"/>
<g filter="url(#filter1_d_5382_1271)">
<path d="M316.275 58.8611C317.15 58.4778 318.113 59.1756 318.016 60.1215L317.665 63.5153C317.629 63.8618 317.741 64.2071 317.974 64.4669L320.253 67.011C320.888 67.7201 320.518 68.8488 319.584 69.0499L316.233 69.7713C315.891 69.8449 315.595 70.0583 315.419 70.3592L313.689 73.3066C313.207 74.1281 312.014 74.1279 311.535 73.3063L309.815 70.3583C309.639 70.0573 309.345 69.8438 309.003 69.7701L305.654 69.0476C304.721 68.8462 304.354 67.7174 304.992 67.0085L307.28 64.4651C307.514 64.2055 307.627 63.8602 307.592 63.5137L307.253 60.1197C307.158 59.1738 308.124 58.4763 308.997 58.8599L312.131 60.236C312.451 60.3765 312.816 60.3765 313.137 60.2361L316.275 58.8611Z" fill="#FFD568"/>
<path d="M318.614 60.1819C318.759 58.7796 317.33 57.7451 316.034 58.3133L312.895 59.6883C312.729 59.761 312.54 59.7609 312.375 59.6882L309.241 58.3121C307.946 57.7435 306.514 58.7776 306.654 60.1799L306.994 63.5739C307.012 63.7532 306.953 63.9319 306.832 64.0662L304.544 66.6096C303.599 67.6605 304.142 69.334 305.526 69.6326L308.874 70.3551C309.051 70.3933 309.204 70.5037 309.295 70.6595L311.015 73.6074C311.725 74.8255 313.493 74.8258 314.208 73.608L315.938 70.6606C316.029 70.5048 316.182 70.3944 316.359 70.3563L319.71 69.6349C321.095 69.3368 321.644 67.6635 320.702 66.6122L318.423 64.0681C318.302 63.9337 318.244 63.755 318.263 63.5757L318.614 60.1819Z" stroke="white" stroke-width="1.2"/>
</g>
</g>
<path d="M119 66H202" stroke="white" stroke-width="1.8"/>
<path d="M39.6406 36.3047V37.6914H23.625V36.3047H30.7148V35.0156H25.6758V31.1484H35.7734V29.8984H25.6367V28.6094H37.6289V32.3789H27.5117V33.707H37.9219V35.0156H32.5508V36.3047H39.6406ZM25.5195 40.1914V38.8633H37.668V42.7109H27.3945V44.1758H38.2148V45.4844H25.5391V41.4805H35.832V40.1914H25.5195ZM55.0414 28.1797V38.9023H53.1859V28.1797H55.0414ZM41.4086 30.7773V29.2539H49.4555V34.2148H43.2641V36.4023C46.3305 36.3828 48.5668 36.2852 51.2328 35.875L51.4672 37.3789C48.6059 37.8477 46.223 37.9258 42.9125 37.9258H41.4477V32.7891H47.6195V30.7773H41.4086ZM43.2445 42.4375C43.2445 40.3965 45.4906 39.2246 49.2016 39.2344C52.9027 39.2246 55.1586 40.3965 55.1586 42.4375C55.1586 44.459 52.9027 45.6309 49.2016 45.6211C45.4906 45.6309 43.2445 44.459 43.2445 42.4375ZM45.0805 42.4375C45.0902 43.541 46.6039 44.166 49.2016 44.1562C51.7895 44.166 53.3031 43.541 53.3031 42.4375C53.3031 41.3242 51.7895 40.6895 49.2016 40.6992C46.6039 40.6895 45.0902 41.3242 45.0805 42.4375ZM72.5516 28.1602V45.6602H70.7742V28.1602H72.5516ZM57.2195 39.8789C57.7273 39.8789 58.3133 39.8789 58.9383 39.8691V31.832H57.5906V30.3086H65.618V31.832H64.2703V39.6543C64.866 39.6055 65.4422 39.5371 65.9695 39.4688L66.1063 40.8164C63.3328 41.3633 59.7 41.4414 57.4344 41.4414L57.2195 39.8789ZM60.618 39.8398C61.2527 39.8301 61.907 39.8008 62.5516 39.7715V31.832H60.618V39.8398ZM65.1492 36.3828V34.7227H67.3367V28.5508H69.0945V44.7617H67.3367V36.3828H65.1492ZM88.7922 28.1602V45.6992H86.9367V28.1602H88.7922ZM74.9055 35.6016C74.9055 31.8613 76.7902 29.4785 79.4367 29.4688C82.0344 29.4785 83.9484 31.8613 83.9484 35.6016C83.9484 39.3809 82.0344 41.7637 79.4367 41.7539C76.7902 41.7637 74.9055 39.3809 74.9055 35.6016ZM76.7023 35.6016C76.6926 38.3848 77.8059 40.0938 79.4367 40.0938C81.0383 40.0938 82.1516 38.3848 82.1516 35.6016C82.1516 32.8574 81.0383 31.1387 79.4367 31.1289C77.8059 31.1387 76.6926 32.8574 76.7023 35.6016ZM101.341 29.8984V31.4219H99.4273V39.6543C100.257 39.5957 101.068 39.5176 101.849 39.4297L101.966 40.7969C98.402 41.3633 94.3004 41.4414 91.2633 41.4414L91.068 39.8984L93.2945 39.8691V31.4219H91.5953V29.8984H101.341ZM95.1109 39.8398C95.941 39.8203 96.8004 39.791 97.65 39.752V31.4219H95.1109V39.8398ZM100.775 36.207V34.6836H103.939V28.1602H105.775V45.6602H103.939V36.207H100.775ZM111.215 42.6523L109.652 48.043H107.992L109.027 42.6523H111.215ZM39.6406 67.1016V68.6445H32.4922V74.6602H30.6758V68.6445H23.625V67.1016H39.6406ZM25.3633 61.7109C25.373 59.3281 27.8926 57.8242 31.5938 57.8242C35.2949 57.8242 37.834 59.3281 37.8242 61.7109C37.834 64.0645 35.2949 65.5586 31.5938 65.5586C27.8926 65.5586 25.373 64.0645 25.3633 61.7109ZM27.2773 61.7109C27.2676 63.166 28.9961 64.0742 31.5938 64.0742C34.2012 64.0742 35.9199 63.166 35.9297 61.7109C35.9199 60.2363 34.2012 59.3184 31.5938 59.3086C28.9961 59.3184 27.2676 60.2363 27.2773 61.7109ZM55.0609 57.1602V74.6992H53.2055V57.1602H55.0609ZM41.5063 60.2461V58.7422H49.7094V65.1289H43.4203V68.957C46.2621 68.9473 48.7328 68.8105 51.6625 68.332L51.8383 69.8555C48.7426 70.373 46.1059 70.4902 43.0102 70.5H41.5258V63.6445H47.8148V60.2461H41.5063ZM75.5305 57.1602V63.9375H78.343V65.4609H75.5305V74.6992H73.675V57.1602H75.5305ZM62.6398 70.3438V58.8398H70.8234V60.3438H64.4953V68.8008C67.4348 68.791 69.632 68.6641 72.132 68.2148L72.3664 69.7773C69.6223 70.2656 67.298 70.3535 64.0461 70.3438H62.6398ZM92.5328 57.1602V61.1055H95.0719V62.6094H92.5328V66.457H90.6773V57.1602H92.5328ZM78.8023 65.2852C83.2066 64.3965 85.5016 62.3359 85.7555 59.8555H79.5836V58.3711H87.8063C87.8063 62.834 84.7887 65.6758 79.5836 66.7891L78.8023 65.2852ZM81.3023 74.4453V67.1992H92.6109V68.6055H83.1578V70.1094H92.4156V71.457H83.1578V73.0391H93.0016V74.4453H81.3023ZM110.16 57.1602V74.6992H108.305V57.1602H110.16ZM96.2734 64.6016C96.2734 60.8613 98.1582 58.4785 100.805 58.4688C103.402 58.4785 105.316 60.8613 105.316 64.6016C105.316 68.3809 103.402 70.7637 100.805 70.7539C98.1582 70.7637 96.2734 68.3809 96.2734 64.6016ZM98.0703 64.6016C98.0605 67.3848 99.1738 69.0938 100.805 69.0938C102.406 69.0938 103.52 67.3848 103.52 64.6016C103.52 61.8574 102.406 60.1387 100.805 60.1289C99.1738 60.1387 98.0605 61.8574 98.0703 64.6016ZM32.5117 87.7031V95.8672H24.3281V87.7031H32.5117ZM26.1445 94.4023H30.6953V89.207H26.1445V94.4023ZM26.3008 103.289V97.7422H28.1562V101.785H38.1367V103.289H26.3008ZM35.5391 98.9727V86.1406H37.3945V91.375H39.9336V92.9375H37.3945V98.9727H35.5391ZM56.5063 93.3281V94.8125H40.5297V93.3281H56.5063ZM42.4438 97.625V96.1992H54.475V100.438H44.2797V102H54.9633V103.465H42.4633V99.0703H52.6391V97.625H42.4438ZM42.6195 92.0586V86.668H54.4359V88.1719H44.475V90.5742H54.6117V92.0586H42.6195ZM62.1609 87.4688C64.5438 87.4785 66.2723 89.4902 66.5555 92.7227H70.1688V86.1602H72.0047V103.699H70.1688V94.2266H66.575C66.3699 97.6445 64.6023 99.7637 62.1609 99.7539C59.5535 99.7637 57.7078 97.3809 57.7273 93.6016C57.7078 89.8613 59.5535 87.4785 62.1609 87.4688ZM59.4852 93.6016C59.4949 96.3848 60.5789 98.0938 62.1609 98.0938C63.743 98.0938 64.827 96.3848 64.8367 93.6016C64.827 90.8574 63.743 89.1387 62.1609 89.1289C60.5789 89.1387 59.4949 90.8574 59.4852 93.6016ZM78.2258 86.4336V87.957H86.3312V86.4336H88.1867V92.2344H83.1477V93.7578H90.257V95.2422H74.3V93.7578H81.3312V92.2344H76.3898V86.4336H78.2258ZM76.2141 97.8984V96.5117H88.2453V100.594H78.05V102.059H88.7336V103.484H76.2336V99.2656H86.4094V97.8984H76.2141ZM78.2258 90.8281H86.3312V89.3242H78.2258V90.8281ZM105.091 86.1602V93.2695H107.63V94.793H105.091V103.66H103.236V86.1602H105.091ZM91.0289 98.7383C93.5875 96.0723 94.5152 93.0645 94.7008 89.5586H91.6539V88.0352H96.4586C96.4488 92.4102 95.6676 96.3945 92.4938 99.7734L91.0289 98.7383ZM96.0289 99.9102C98.6363 96.8633 99.398 93.2891 99.5348 89.5586H97.025V88.0352H101.283C101.283 92.459 100.726 97.127 97.5133 100.926L96.0289 99.9102ZM124.086 99.9297V101.473H108.07V99.9297H111.898V95.3594C110.463 94.5684 109.584 93.3184 109.594 91.7461C109.584 88.9922 112.289 87.1855 116.039 87.1758C119.799 87.1855 122.504 88.9922 122.504 91.7461C122.504 93.2891 121.664 94.5293 120.258 95.3203V99.9297H124.086ZM111.391 91.7461C111.391 93.6211 113.295 94.8418 116.039 94.8516C118.764 94.8418 120.697 93.6211 120.707 91.7461C120.697 89.8613 118.764 88.6602 116.039 88.6602C113.295 88.6602 111.391 89.8613 111.391 91.7461ZM113.734 99.9297H118.383V96.043C117.67 96.209 116.879 96.2969 116.039 96.2969C115.219 96.2969 114.438 96.209 113.734 96.043V99.9297ZM127.827 97.8008C127.856 95.2422 128.608 94.4609 129.897 93.6602C130.717 93.1621 131.342 92.4395 131.342 91.4141C131.342 90.1934 130.405 89.4219 129.233 89.4219C128.178 89.4219 127.153 90.0664 127.065 91.5117H124.955C125.034 89.0215 126.909 87.6641 129.233 87.6641C131.772 87.6641 133.471 89.1875 133.471 91.4141C133.471 92.9863 132.719 94.0312 131.479 94.793C130.307 95.5059 129.848 96.209 129.819 97.8008V97.918H127.827V97.8008ZM127.514 100.75C127.504 99.9883 128.139 99.3633 128.901 99.3633C129.653 99.3633 130.278 99.9883 130.287 100.75C130.278 101.512 129.653 102.127 128.901 102.137C128.139 102.127 127.504 101.512 127.514 100.75Z" fill="white"/>
<g filter="url(#filter2_d_5382_1271)">
<path fill-rule="evenodd" clip-rule="evenodd" d="M277.236 100.124C276.1 100.203 275.336 100.689 274.528 101.507L274.516 101.519L274.504 101.53C274.428 101.601 274.382 101.667 274.274 101.82C274.248 101.857 274.22 101.898 274.186 101.945L273.615 102.748L272.942 102.029C272.924 102.009 272.908 101.993 272.881 101.967L272.87 101.956C272.844 101.931 272.798 101.886 272.751 101.831C272.382 101.417 271.539 100.92 270.543 100.789C269.584 100.663 268.551 100.883 267.697 101.795L267.689 101.803C266.617 102.917 266.461 104.408 266.935 105.935C267.145 106.504 267.338 106.908 267.584 107.276C267.833 107.65 268.155 108.017 268.652 108.491C270.347 110.047 272.143 111.37 274.514 112.57C275.415 111.923 276.177 111.2 277.02 110.399C277.293 110.141 277.573 109.875 277.87 109.6C279.145 108.3 279.79 107.487 280.506 105.919C280.911 104.834 281.108 103.386 280.522 102.025C280.016 101.083 278.841 100.09 277.236 100.124ZM273.458 100.301C274.417 99.3472 275.519 98.6242 277.147 98.5169L277.163 98.5158L277.179 98.5154C279.538 98.4548 281.235 99.9196 281.96 101.301L281.974 101.326L281.985 101.353C282.815 103.246 282.507 105.18 282.002 106.513L281.993 106.537L281.982 106.561C281.157 108.374 280.38 109.341 279.005 110.742L278.992 110.756L278.977 110.769C278.711 111.015 278.448 111.264 278.185 111.515C277.291 112.364 276.39 113.219 275.337 113.96C275.334 113.962 275.331 113.964 275.328 113.966C275.226 114.041 274.992 114.213 274.681 114.248C274.341 114.287 274.064 114.15 273.917 114.072C271.331 112.779 269.38 111.344 267.558 109.671L267.547 109.661C267 109.14 266.585 108.68 266.244 108.169C265.902 107.656 265.656 107.121 265.417 106.472L265.411 106.454L265.405 106.436C264.807 104.53 264.923 102.358 266.526 100.69C267.795 99.3385 269.375 99.0117 270.753 99.1928C271.799 99.3302 272.771 99.7643 273.458 100.301Z" fill="white"/>
</g>
<path d="M273.568 101.888C273.7 101.702 273.802 101.54 273.959 101.394C274.781 100.562 275.647 99.9895 276.941 99.9042C278.773 99.8572 280.099 100.996 280.662 102.069C281.321 103.573 281.086 105.138 280.664 106.254C279.952 107.818 279.298 108.636 278.073 109.885C276.956 110.917 276 111.915 274.798 112.76C274.584 112.916 274.511 112.938 274.262 112.806C271.951 111.651 270.211 110.373 268.579 108.874C267.617 107.957 267.22 107.351 266.806 106.223C266.309 104.642 266.433 102.954 267.666 101.673C269.619 99.5896 272.473 100.666 273.411 101.727C273.452 101.777 273.504 101.82 273.568 101.888Z" fill="#FF3C48"/>
</g>
<defs>
<filter id="filter0_d_5382_1271" x="290.348" y="105.896" width="32.411" height="32.4725" filterUnits="userSpaceOnUse" color-interpolation-filters="sRGB">
<feFlood flood-opacity="0" result="BackgroundImageFix"/>
<feColorMatrix in="SourceAlpha" type="matrix" values="0 0 0 0 0 0 0 0 0 0 0 0 0 0 0 0 0 0 127 0" result="hardAlpha"/>
<feOffset/>
<feGaussianBlur stdDeviation="3.1086"/>
<feComposite in2="hardAlpha" operator="out"/>
<feColorMatrix type="matrix" values="0 0 0 0 0 0 0 0 0 0 0 0 0 0 0 0 0 0 0.16 0"/>
<feBlend mode="normal" in2="BackgroundImageFix" result="effect1_dropShadow_5382_1271"/>
<feBlend mode="normal" in="SourceGraphic" in2="effect1_dropShadow_5382_1271" result="shape"/>
</filter>
<filter id="filter1_d_5382_1271" x="297.252" y="51.3364" width="30.7391" height="30.0005" filterUnits="userSpaceOnUse" color-interpolation-filters="sRGB">
<feFlood flood-opacity="0" result="BackgroundImageFix"/>
<feColorMatrix in="SourceAlpha" type="matrix" values="0 0 0 0 0 0 0 0 0 0 0 0 0 0 0 0 0 0 127 0" result="hardAlpha"/>
<feOffset/>
<feGaussianBlur stdDeviation="3.1086"/>
<feComposite in2="hardAlpha" operator="out"/>
<feColorMatrix type="matrix" values="0 0 0 0 0 0 0 0 0 0 0 0 0 0 0 0 0 0 0.16 0"/>
<feBlend mode="normal" in2="BackgroundImageFix" result="effect1_dropShadow_5382_1271"/>
<feBlend mode="normal" in="SourceGraphic" in2="effect1_dropShadow_5382_1271" result="shape"/>
</filter>
<filter id="filter2_d_5382_1271" x="259.073" y="92.5136" width="29.4268" height="27.7414" filterUnits="userSpaceOnUse" color-interpolation-filters="sRGB">
<feFlood flood-opacity="0" result="BackgroundImageFix"/>
<feColorMatrix in="SourceAlpha" type="matrix" values="0 0 0 0 0 0 0 0 0 0 0 0 0 0 0 0 0 0 127 0" result="hardAlpha"/>
<feOffset/>
<feGaussianBlur stdDeviation="3"/>
<feComposite in2="hardAlpha" operator="out"/>
<feColorMatrix type="matrix" values="0 0 0 0 0 0 0 0 0 0 0 0 0 0 0 0 0 0 0.16 0"/>
<feBlend mode="normal" in2="BackgroundImageFix" result="effect1_dropShadow_5382_1271"/>
<feBlend mode="normal" in="SourceGraphic" in2="effect1_dropShadow_5382_1271" result="shape"/>
</filter>
<linearGradient id="paint0_linear_5382_1271" x1="188" y1="-38.6573" x2="188" y2="367.586" gradientUnits="userSpaceOnUse">
<stop stop-color="#FA6030"/>
<stop offset="1" stop-color="white"/>
</linearGradient>
<clipPath id="clip0_5382_1271">
<rect width="450" height="200" fill="white"/>
</clipPath>
<clipPath id="clip1_5382_1271">
<rect width="118" height="197" fill="white" transform="translate(242 16) rotate(6.05286)"/>
</clipPath>
</defs>
</svg>
