<svg width="16" height="16" viewBox="0 0 16 16" fill="none" xmlns="http://www.w3.org/2000/svg">
<path d="M7.54391 1.35936C7.605 0.815757 8.395 0.81576 8.45609 1.35937L8.89291 5.24615C8.93323 5.60499 9.353 5.77886 9.63526 5.55364L12.6925 3.11414C13.1201 2.77296 13.6787 3.33157 13.3375 3.75916L10.898 6.8164C10.6728 7.09866 10.8467 7.51843 11.2055 7.55875L15.0923 7.99557C15.6359 8.05666 15.6359 8.84666 15.0923 8.90775L11.2055 9.34457C10.8467 9.38489 10.6728 9.80466 10.898 10.0869L13.3375 13.1442C13.6787 13.5718 13.1201 14.1304 12.6925 13.7892L9.63526 11.3497C9.353 11.1245 8.93323 11.2983 8.89291 11.6572L8.45609 15.544C8.395 16.0876 7.605 16.0876 7.54391 15.544L7.10709 11.6572C7.06677 11.2983 6.647 11.1245 6.36474 11.3497L3.30749 13.7892C2.87991 14.1304 2.3213 13.5717 2.66249 13.1442L5.10198 10.0869C5.32721 9.80466 5.15333 9.38489 4.79449 9.34457L0.907703 8.90775C0.364097 8.84666 0.3641 8.05666 0.907706 7.99557L4.79449 7.55875C5.15333 7.51843 5.3272 7.09866 5.10198 6.8164L2.66248 3.75915C2.3213 3.33157 2.87991 2.77296 3.3075 3.11415L6.36474 5.55364C6.647 5.77887 7.06677 5.60499 7.10709 5.24615L7.54391 1.35936Z" fill="black"/>
</svg>
