<svg width="28" height="28" viewBox="0 0 28 28" fill="none" xmlns="http://www.w3.org/2000/svg">
<path d="M13.3336 4.88107C13.4071 4.22726 14.3572 4.22726 14.4307 4.88107L14.9904 9.86182C15.0389 10.2934 15.5438 10.5025 15.8833 10.2316L19.801 7.10553C20.3153 6.69517 20.9871 7.36703 20.5768 7.8813L17.4507 11.799C17.1798 12.1385 17.3889 12.6434 17.8205 12.6919L22.8012 13.2517C23.4551 13.3251 23.4551 14.2753 22.8012 14.3488L17.8205 14.9085C17.3889 14.957 17.1798 15.4619 17.4507 15.8014L20.5768 19.7191C20.9871 20.2334 20.3153 20.9052 19.801 20.4949L15.8833 17.3688C15.5438 17.0979 15.0389 17.307 14.9904 17.7386L14.4307 22.7194C14.3572 23.3732 13.4071 23.3732 13.3336 22.7193L12.7738 17.7386C12.7253 17.307 12.2205 17.0979 11.881 17.3688L7.96328 20.4949C7.44901 20.9052 6.77715 20.2334 7.1875 19.7191L10.3136 15.8014C10.5845 15.4619 10.3754 14.957 9.94378 14.9085L4.96302 14.3488C4.30922 14.2753 4.30922 13.3251 4.96303 13.2517L9.94378 12.6919C10.3754 12.6434 10.5845 12.1385 10.3136 11.799L7.18751 7.8813C6.77715 7.36703 7.44901 6.69517 7.96328 7.10553L11.881 10.2316C12.2205 10.5025 12.7253 10.2934 12.7738 9.86182L13.3336 4.88107Z" fill="white"/>
</svg>
