<svg width="112" height="81" viewBox="0 0 112 81" fill="none" xmlns="http://www.w3.org/2000/svg">
<path fill-rule="evenodd" clip-rule="evenodd" d="M48.0947 1.63159C44.7287 0.730487 41.2683 2.72836 40.3656 6.09396L24.7246 64.4143C23.8219 67.7799 25.8189 71.2388 29.1849 72.1399L57.3261 79.6735L101.146 53.5566L108.951 24.4546C109.853 21.089 107.856 17.6301 104.49 16.729L48.0947 1.63159Z" fill="#FA6030"/>
<path d="M40.3656 6.09396L39.9177 5.97404L40.3656 6.09396ZM48.0947 1.63159L47.9746 2.07949L48.0947 1.63159ZM24.7246 64.4143L25.1725 64.5343L24.7246 64.4143ZM29.1849 72.1399L29.305 71.692L29.1849 72.1399ZM57.3261 79.6735L57.206 80.1214L57.3952 80.172L57.5635 80.0717L57.3261 79.6735ZM101.146 53.5566L101.383 53.9549L101.545 53.8585L101.594 53.6766L101.146 53.5566ZM104.49 16.729L104.61 16.2811L104.49 16.729ZM40.8136 6.21388C41.6499 3.09565 44.856 1.24462 47.9746 2.07949L48.2148 1.18368C44.6014 0.21635 40.8867 2.36107 39.9177 5.97404L40.8136 6.21388ZM25.1725 64.5343L40.8136 6.21388L39.9177 5.97404L24.2766 64.2944L25.1725 64.5343ZM29.305 71.692C26.1864 70.8571 24.3362 67.6525 25.1725 64.5343L24.2766 64.2944C23.3076 67.9074 25.4514 71.6205 29.0648 72.5878L29.305 71.692ZM57.4463 79.2256L29.305 71.692L29.0648 72.5878L57.206 80.1214L57.4463 79.2256ZM57.5635 80.0717L101.383 53.9549L100.908 53.1584L57.0888 79.2752L57.5635 80.0717ZM108.503 24.3346L100.698 53.4367L101.594 53.6766L109.399 24.5745L108.503 24.3346ZM104.37 17.1769C107.489 18.0118 109.339 21.2164 108.503 24.3346L109.399 24.5745C110.367 20.9615 108.224 17.2484 104.61 16.2811L104.37 17.1769ZM47.9746 2.07949L104.37 17.1769L104.61 16.2811L48.2148 1.18368L47.9746 2.07949Z" fill="black"/>
<path d="M47 17L65.4004 21.7355" stroke="black" stroke-width="0.927469"/>
<path d="M45 24L95.2312 37.4472" stroke="black" stroke-width="0.927469"/>
<path d="M43 31L93.2312 44.4472" stroke="black" stroke-width="0.927469"/>
<path fill-rule="evenodd" clip-rule="evenodd" d="M58.311 78.5347L65.3061 50.8774C66.1605 47.4992 69.592 45.4521 72.9705 46.3049L100.631 53.2875L58.311 78.5347Z" fill="#E5E2CE"/>
<path d="M100.853 53.0601L72.671 46.0843C69.3093 45.2523 65.9041 47.2849 65.0412 50.6387L57.6347 79.4245" stroke="black" stroke-width="0.927469"/>
<path d="M47.6684 66.7883C48.1559 67.019 48.7045 66.6158 48.6292 66.0821L47.1778 55.7995C47.1062 55.2922 46.5184 55.045 46.1054 55.3485L38.1637 61.1852C37.7507 61.4888 37.8119 62.123 38.2753 62.3424L47.6684 66.7883Z" fill="#D9D9D9"/>
<path d="M47.312 54.5071L48.8321 65.6885C48.9042 66.2195 48.3598 66.6196 47.8739 66.3927L37.6426 61.6136" stroke="black" stroke-width="0.995543"/>
<path d="M7.56659 5.40618L2.54849 9.09423C1.26308 10.0389 0.987787 11.8462 1.93361 13.1308L37.5769 61.5404L47.2499 54.4312L11.6066 6.02159C10.6608 4.737 8.852 4.46147 7.56659 5.40618Z" fill="#929DD9" stroke="black" stroke-width="0.995543"/>
<path d="M11.6066 6.02159C10.6608 4.737 8.852 4.46147 7.56659 5.40618L2.54849 9.09423C1.26308 10.0389 0.987787 11.8462 1.93361 13.1308L6.15277 18.8611L15.8258 11.7519L11.6066 6.02159Z" fill="#EFB6B6" stroke="black" stroke-width="0.995543"/>
<rect x="-0.105963" y="0.695626" width="12.0045" height="7.00446" transform="matrix(-0.805784 0.59221 0.592908 0.80527 13.8047 9.19821)" fill="#BCBCBC" stroke="black" stroke-width="0.995543"/>
<path d="M48.7063 66.3211L48.0984 62.1223C46.6341 62.775 45.9321 63.2884 44.8753 64.4911L48.7063 66.3211Z" fill="black"/>
<path d="M15.3359 18L43.7955 56.653" stroke="black" stroke-width="0.995543"/>
<path d="M12.0723 20.5431L40.7955 59.653" stroke="black" stroke-width="0.995543"/>
<path d="M98.9303 19.8776C99.0492 19.5819 99.4925 19.7005 99.4475 20.016L99.1007 22.4495C99.0715 22.6542 99.2742 22.8142 99.4666 22.7382L101.812 21.8126C102.111 21.6945 102.328 22.1047 102.063 22.2861L100.095 23.6292C99.9157 23.752 99.9478 24.026 100.151 24.1037L102.427 24.9748C102.729 25.0906 102.608 25.5438 102.288 25.4929L99.881 25.1105C99.6661 25.0763 99.5012 25.2976 99.5954 25.4936L100.627 27.6396C100.766 27.9293 100.372 28.1759 100.173 27.9242L98.6049 25.9512C98.4763 25.7893 98.2207 25.8265 98.1435 26.0184L97.226 28.2991C97.1071 28.5948 96.6638 28.4761 96.7088 28.1607L97.0556 25.7272C97.0848 25.5224 96.8821 25.3625 96.6897 25.4385L94.3447 26.3641C94.0456 26.4821 93.8281 26.0719 94.0937 25.8906L96.0609 24.5474C96.2406 24.4247 96.2085 24.1507 96.0053 24.0729L93.7296 23.2019C93.427 23.0861 93.5486 22.6329 93.8686 22.6837L96.2753 23.0662C96.4902 23.1004 96.6551 22.8791 96.5609 22.683L95.5294 20.5371C95.3902 20.2474 95.7838 20.0008 95.9838 20.2525L97.5513 22.2255C97.68 22.3874 97.9356 22.3502 98.0128 22.1582L98.9303 19.8776Z" fill="black"/>
</svg>
