<svg width="117" height="44" viewBox="0 0 117 44" fill="none" xmlns="http://www.w3.org/2000/svg">
<rect x="11.0352" y="5.01562" width="105.356" height="38" rx="18.7601" fill="white"/>
<rect x="11.0352" y="5.01562" width="105.356" height="38" rx="18.7601" stroke="black"/>
<path d="M39.8477 24.7969V26.0312H34.1289V30.8438H32.6758V26.0312H27.0352V24.7969H39.8477ZM28.4258 20.4844C28.4336 18.5781 30.4492 17.375 33.4102 17.375C36.3711 17.375 38.4023 18.5781 38.3945 20.4844C38.4023 22.3672 36.3711 23.5625 33.4102 23.5625C30.4492 23.5625 28.4336 22.3672 28.4258 20.4844ZM29.957 20.4844C29.9492 21.6484 31.332 22.375 33.4102 22.375C35.4961 22.375 36.8711 21.6484 36.8789 20.4844C36.8711 19.3047 35.4961 18.5703 33.4102 18.5625C31.332 18.5703 29.9492 19.3047 29.957 20.4844ZM52.1039 16.8438V30.875H50.6195V16.8438H52.1039ZM41.2602 19.3125V18.1094H47.8227V23.2188H42.7914V26.2812C45.0648 26.2734 47.0414 26.1641 49.3852 25.7812L49.5258 27C47.0492 27.4141 44.9398 27.5078 42.4633 27.5156H41.2758V22.0312H46.307V19.3125H41.2602ZM66.6883 22.5781V23.7656H53.907V22.5781H66.6883ZM55.4383 26.0156V24.875H65.0633V28.2656H56.907V29.5156H65.4539V30.6875H55.4539V27.1719H63.5945V26.0156H55.4383ZM55.5789 21.5625V17.25H65.032V18.4531H57.0633V20.375H65.1727V21.5625H55.5789ZM71.8977 17.8438C74.1086 17.8359 75.7023 19.2031 75.7102 21.1719C75.7023 23.1406 74.1086 24.5078 71.8977 24.5156C69.6945 24.5078 68.0773 23.1406 68.0852 21.1719C68.0773 19.2031 69.6945 17.8359 71.8977 17.8438ZM67.4133 26.625C69.9602 26.625 73.4914 26.6016 76.5539 26.1562L76.6633 27.2344C73.4992 27.8438 70.1008 27.8594 67.6008 27.8594L67.4133 26.625ZM69.5539 21.1719C69.5383 22.4141 70.5383 23.2188 71.8977 23.2188C73.257 23.2188 74.257 22.4141 74.257 21.1719C74.257 19.9453 73.257 19.125 71.8977 19.125C70.5383 19.125 69.5383 19.9453 69.5539 21.1719ZM77.4289 30.875V16.8438H78.9133V30.875H77.4289Z" fill="#191919"/>
<path d="M100.892 19.3379L91.5352 28.6943" stroke="black" stroke-width="1.1"/>
<path d="M100.891 28.6943L91.5342 19.3379" stroke="black" stroke-width="1.1"/>
<rect x="0.5" y="1.44531" width="22.0703" height="22.0703" rx="11.0352" fill="white" stroke="#191919"/>
<path d="M8.86103 9.41335C10.1181 9.41335 11.4147 10.2646 11.4147 13.0261C11.4147 15.7777 10.1181 16.619 8.86103 16.619C7.5941 16.619 6.30736 15.7777 6.30736 13.0261C6.30736 10.2646 7.5941 9.41335 8.86103 9.41335ZM8.86103 16.0351C9.76174 16.0351 10.7119 15.4709 10.7119 13.0162C10.7119 10.5615 9.76174 9.99733 8.86103 9.99733C7.95042 9.99733 7.00022 10.5615 7.00022 13.0162C7.00022 15.4709 7.95042 16.0351 8.86103 16.0351ZM16.4422 15.8866V16.4805H11.9783V16.2132C11.9783 14.7978 12.9087 14.1545 13.8688 13.5408L14.4527 13.1647C15.1654 12.7094 15.789 12.264 15.789 11.4028C15.789 10.5318 15.1852 9.99733 14.2845 9.99733C13.3937 9.99733 12.7701 10.6308 12.6315 11.6899L11.9585 11.6206C12.1366 10.1854 13.0967 9.41335 14.2845 9.41335C15.4821 9.41335 16.4917 10.0765 16.4917 11.383C16.4917 12.6797 15.5316 13.1647 14.6606 13.7387L14.136 14.0852C13.364 14.59 12.7008 15.1245 12.6909 15.8866H16.4422Z" fill="black"/>
</svg>
