<svg width="30" height="23" viewBox="0 0 30 23" fill="none" xmlns="http://www.w3.org/2000/svg">
<path d="M22 16.0617C21.9552 16.3567 21.8411 16.615 21.7963 16.91C21.3567 17.0211 19.8683 17.5978 18.7564 19.201C17.924 20.4023 17.7902 21.8725 17.7902 22.4512C12.1942 22.4512 6.59816 22.4512 1 22.4512L1.21769 21.9446H1.71711C2.36166 21.9446 4.19072 21.827 4.63678 21.5918C5.08497 21.3567 5.38804 20.8715 5.55024 20.5637C5.71244 20.2558 5.94935 19.5803 6.26095 18.5372L10.3523 5.0381C10.6746 3.99494 10.8816 3.26174 10.9307 2.99453C11.0716 2.25492 11.4387 1.95779 10.0855 1.95779H9.87638L10.0941 1.45117H15.9718L15.7541 1.95779H15.1992C14.4906 1.95779 13.94 2.04757 13.543 2.22285C13.1482 2.40028 12.8537 2.64824 12.6616 2.96675C12.4695 3.28525 12.1686 4.11679 11.7631 5.46135L7.82749 18.4453C7.52443 19.4457 7.37503 20.0613 7.37503 20.29C7.37503 20.7796 7.57138 21.3674 7.95982 21.6218C8.35039 21.8783 9.2169 22.0044 10.5593 22.0044H11.6222C14.5269 22.1797 15.9221 21.4519 16.7886 20.6567C17.5356 19.9726 17.9386 19.2312 18.9948 18.1101C20.0522 17.1111 21.2146 16.3631 22 16.0617Z" fill="black" stroke="black" stroke-width="0.190028" stroke-miterlimit="10"/>
<path d="M27.1498 17.9237H27.8903C26.5823 20.9427 24.9051 22.4512 22.8565 22.4512C22.0127 22.4512 21.3249 22.1451 20.7954 21.5308C20.2658 20.9187 20 20.088 20 19.043C20 17.7204 20.3418 16.2273 21.0274 14.5636C21.711 12.9 22.6835 11.4659 23.9451 10.2591C25.2068 9.05454 26.3038 8.45117 27.2405 8.45117C27.8165 8.45117 28.2532 8.64137 28.5527 9.01957C28.8502 9.39777 29 9.86997 29 10.4362C29 11.5883 28.4451 12.6945 27.3333 13.7547C26.2215 14.8172 24.3434 15.8795 22.1198 16.8589C21.8308 17.7858 21.7013 18.6653 21.7013 19.4961C21.7013 20.1781 21.8624 20.6078 22.1198 20.9511C22.4052 21.3316 22.9219 21.5046 23.4283 21.5046C24.8397 21.5068 26.0802 20.3131 27.1498 17.9237ZM22.4204 15.935C23.7474 15.3164 25.0865 14.533 26.1477 13.4443C27.2068 12.3556 27.7384 11.3697 27.7384 10.4843C27.7384 10.0798 27.6582 9.77815 27.5 9.5814C27.3397 9.38465 27.1013 9.28627 26.7827 9.28627C26.1646 9.28627 25.4367 9.90714 24.5992 11.151C23.7553 12.3906 22.9352 13.9391 22.4204 15.935Z" fill="black" stroke="black" stroke-width="0.190028" stroke-miterlimit="10"/>
</svg>
