<svg width="69" height="69" viewBox="0 0 69 69" fill="none" xmlns="http://www.w3.org/2000/svg">
<g clip-path="url(#clip0_939_10421)">
<circle cx="34.2344" cy="34.5781" r="34" fill="#191919"/>
<path fill-rule="evenodd" clip-rule="evenodd" d="M49.6016 32.5897L32.3163 49.875C24.8695 48.8401 19.1367 42.4475 19.1367 34.7158C19.1367 26.2627 25.9893 19.4102 34.4424 19.4102C42.174 19.4102 48.5667 25.143 49.6016 32.5897Z" fill="#F5F5F5"/>
<path d="M30.0173 28.5029C29.7797 28.0023 30.4597 27.5807 30.8025 28.016L33.4135 31.3322C33.6397 31.6195 34.0939 31.5451 34.2166 31.2006L35.6331 27.2246C35.819 26.7027 36.598 26.8854 36.5326 27.4356L36.034 31.6267C35.9908 31.9899 36.3645 32.2584 36.6949 32.1016L40.5079 30.2918C41.0085 30.0542 41.4301 30.7342 40.9948 31.077L37.6786 33.688C37.3913 33.9142 37.4657 34.3684 37.8102 34.4911L41.7862 35.9076C42.3081 36.0935 42.1254 36.8725 41.5752 36.8071L37.384 36.3085C37.0209 36.2653 36.7524 36.639 36.9092 36.9694L38.719 40.7824C38.9566 41.283 38.2766 41.7046 37.9338 41.2693L35.3228 37.9531C35.0965 37.6658 34.6424 37.7402 34.5197 38.0847L33.1032 42.0607C32.9172 42.5826 32.1382 42.3999 32.2037 41.8497L32.7023 37.6585C32.7455 37.2954 32.3718 37.0269 32.0414 37.1837L28.2284 38.9935C27.7278 39.2311 27.3062 38.5511 27.7415 38.2083L31.0577 35.5973C31.345 35.371 31.2706 34.9169 30.9261 34.7942L26.9501 33.3777C26.4282 33.1917 26.6109 32.4127 27.161 32.4782L31.3522 32.9768C31.7154 33.02 31.9839 32.6463 31.8271 32.3159L30.0173 28.5029Z" fill="#FA6030"/>
<path fill-rule="evenodd" clip-rule="evenodd" d="M47.4755 32.4432C39.0224 32.4432 32.1698 39.2958 32.1698 47.7489C32.1698 48.4703 32.2197 49.1801 32.3163 49.875L49.6016 32.5897C48.9067 32.4931 48.1969 32.4432 47.4755 32.4432Z" fill="#BCBCBC"/>
</g>
<defs>
<clipPath id="clip0_939_10421">
<rect width="68" height="68" fill="white" transform="translate(0.367188 0.642578)"/>
</clipPath>
</defs>
</svg>
