<svg width="19" height="19" viewBox="0 0 19 19" fill="none" xmlns="http://www.w3.org/2000/svg">
<g opacity="0.3">
<path d="M13.6639 15.8906H6.25403C5.81337 15.8906 5.36675 15.5468 5.21788 15.0993L3.64801 7.58144C3.34431 6.63441 3.56464 6.19981 3.80283 6.00522C4.04103 5.81062 4.48765 5.69387 5.23796 6.27765L7.56037 8.08738C7.63183 8.13279 7.69733 8.15225 7.74497 8.13927C7.79857 8.11981 7.84025 8.06792 7.87003 7.97711L8.91809 4.93495C9.2337 4.02684 9.69818 3.89062 9.94828 3.89062C10.1984 3.89062 10.6629 4.02684 10.9785 4.93495L12.0265 7.97711C12.0563 8.06144 12.098 8.11981 12.1516 8.13927C12.2052 8.15873 12.2707 8.13927 12.3362 8.0809L14.5157 6.38792C15.3136 5.76522 15.7781 5.88846 16.0342 6.08954C16.2843 6.29711 16.5165 6.75765 16.189 7.76306L14.7 15.0993C14.5512 15.5468 14.1046 15.8906 13.6639 15.8906ZM4.39832 6.86144C4.41023 6.95225 4.43405 7.08198 4.4936 7.25063L6.06347 14.7685C6.08729 14.8333 6.19448 14.9177 7.14948 14.9177H12.7471C13.7294 14.9177 13.8366 14.8333 13.8545 14.7685L15.3434 7.43873C15.4268 7.19225 15.4506 7.0236 15.4566 6.9263C15.3672 6.95873 15.2303 7.03008 15.0338 7.18576L12.8543 8.87873C12.5565 9.10576 12.2052 9.17711 11.8896 9.07333C11.574 8.96954 11.3179 8.69711 11.1869 8.32738L10.1388 5.28522C10.0614 5.05819 9.98997 4.94792 9.94828 4.89603C9.9066 4.94792 9.83514 5.05819 9.75773 5.27873L8.70966 8.3209C8.58461 8.69063 8.32855 8.96306 8.00699 9.06684C7.69138 9.17063 7.33408 9.09927 7.0423 8.87225L4.71989 7.06252C4.58293 6.95873 4.47574 6.89387 4.39832 6.86144Z" fill="white"/>
<path d="M13.7585 12.8906H5.98617C5.34883 12.8906 4.82031 12.664 4.82031 12.3906C4.82031 12.1173 5.34883 11.8906 5.98617 11.8906H13.7585C14.3959 11.8906 14.9244 12.1173 14.9244 12.3906C14.9244 12.664 14.3959 12.8906 13.7585 12.8906Z" fill="white"/>
</g>
</svg>
