<svg width="159" height="50" viewBox="0 0 159 50" fill="none" xmlns="http://www.w3.org/2000/svg">
<path d="M44.7288 35.3529C44.6355 35.9662 44.398 36.5031 44.3047 37.1164C43.3892 37.3475 40.29 38.5464 37.9746 41.8796C36.2413 44.3773 35.9627 47.4338 35.9627 48.6369C24.3099 48.6369 12.6572 48.6369 1 48.6369L1.45331 47.5836H2.49326C3.83541 47.5836 7.64411 47.3392 8.57295 46.8503C9.50624 46.3615 10.1373 45.3526 10.4751 44.7127C10.8128 44.0727 11.3061 42.6683 11.955 40.4995L20.4746 12.434C21.1457 10.2652 21.5767 8.74085 21.679 8.18532C21.9723 6.6476 22.7367 6.02985 19.9191 6.02985H19.4835L19.9368 4.97656H32.1762L31.7229 6.02985H30.5674C29.0919 6.02985 27.9453 6.21651 27.1187 6.58094C26.2965 6.94981 25.6832 7.46535 25.2832 8.12754C24.8832 8.78973 24.2566 10.5185 23.4122 13.314L15.2171 40.3084C14.586 42.3883 14.2749 43.6683 14.2749 44.1438C14.2749 45.1615 14.6838 46.3837 15.4926 46.9126C16.3059 47.4459 18.1103 47.7081 20.9057 47.7081H23.1189C29.1675 48.0725 32.0726 46.5593 33.877 44.906C35.4324 43.4839 36.2717 41.9425 38.4711 39.6116C40.6729 37.5346 43.0934 35.9795 44.7288 35.3529Z" fill="black" stroke="black" stroke-width="0.373317" stroke-miterlimit="10"/>
<path d="M54.663 39.4327H56.223C53.4675 45.5703 49.9344 48.6368 45.619 48.6368C43.8414 48.6368 42.3925 48.0146 41.277 46.7658C40.1615 45.5214 39.6016 43.8326 39.6016 41.7082C39.6016 39.0194 40.3215 35.984 41.7659 32.6019C43.2058 29.2198 45.2546 26.3044 47.9123 23.8512C50.5699 21.4024 52.8809 20.1758 54.8541 20.1758C56.0674 20.1758 56.9874 20.5624 57.6184 21.3313C58.2451 22.1001 58.5606 23.0601 58.5606 24.2112C58.5606 26.5533 57.3918 28.8021 55.0497 30.9575C52.7076 33.1175 48.7513 35.277 44.0671 37.268C43.4582 39.1524 43.1855 40.9405 43.1855 42.6293C43.1855 44.0159 43.5249 44.8894 44.0671 45.5872C44.6682 46.3607 45.7568 46.7124 46.8234 46.7124C49.7966 46.7169 52.4098 44.2903 54.663 39.4327ZM44.7003 35.39C47.4957 34.1322 50.3166 32.5397 52.552 30.3265C54.783 28.1132 55.903 26.1089 55.903 24.3089C55.903 23.4868 55.7341 22.8734 55.4008 22.4735C55.063 22.0735 54.5608 21.8735 53.8897 21.8735C52.5876 21.8735 51.0543 23.1357 49.29 25.6644C47.5123 28.1843 45.7847 31.3323 44.7003 35.39Z" fill="black" stroke="black" stroke-width="0.373317" stroke-miterlimit="10"/>
<path d="M76.2194 46.0401C80.7747 46.0401 83.0635 42.338 84.2723 39.3959L87.2455 40.0626C85.7167 43.8402 82.4102 48.9644 76.0772 48.9644C70.8863 48.9644 67.3398 44.7957 67.3398 38.0182C67.3398 28.5386 72.424 20.2012 80.2059 20.2012C86.2944 20.2012 88.2055 25.5254 88.6454 27.6142L85.8145 28.6053C85.4234 27.0498 84.2857 23.1255 80.0281 23.1255C73.9351 23.1255 70.3219 30.4585 70.3219 37.9871C70.3219 43.0758 72.6907 46.0401 76.2194 46.0401Z" fill="black" stroke="black" stroke-width="0.261319"/>
<path d="M104.342 44.1368C102.863 46.7634 100.209 48.9589 96.2673 48.9589C91.912 48.9589 88.4544 45.5812 89.3876 39.2215L92.1164 20.8223H95.0096L92.4986 37.9015C91.6675 43.5235 92.9608 46.0212 97.0317 46.0212C100.552 46.0212 104.422 43.2746 105.462 36.2261L107.751 20.8223H110.644L106.582 48.3278H103.827L104.436 44.1324L104.342 44.1368Z" fill="black" stroke="black" stroke-width="0.261319"/>
<path d="M130.68 40.7392C128.929 44.7745 125.591 48.9566 119.382 48.9566C114.276 48.9566 110.77 44.7879 110.77 38.0193C110.77 28.6197 115.76 20.1934 123.427 20.1934C129.435 20.1934 133.306 25.842 131.635 35.406H113.872C113.054 41.628 115.254 46.0323 119.52 46.0323C123.902 46.0323 126.253 43.1968 127.746 40.1303L130.68 40.7392ZM114.383 32.5617H128.986C129.586 27.4775 127.524 23.1221 123.24 23.1221C118.889 23.1177 115.347 27.5486 114.383 32.5617Z" fill="black" stroke="black" stroke-width="0.261319"/>
<path d="M65.1343 25.1006C64.3207 26.7507 63.67 28.429 63.1871 30.1377C62.7042 31.8465 62.4005 33.5486 62.2809 35.2465C62.157 36.9451 62.2372 38.5752 62.5167 40.1346C62.7962 41.6939 63.2514 43.1772 63.8813 44.5781C64.5112 45.9791 65.3041 47.2074 66.2506 48.2616L64.1572 49.3124C63.169 48.202 62.3033 46.8943 61.5611 45.3956C60.819 43.8968 60.3007 42.3133 60.0018 40.6459C59.6997 38.9599 59.6094 37.2232 59.732 35.442C59.8542 33.6576 60.1675 31.8837 60.6716 30.1169C61.1757 28.3502 61.8694 26.61 62.7435 24.8949C63.6219 23.179 64.6667 21.5352 65.8738 19.9676L68.0018 20.3925C66.907 21.8826 65.9479 23.4505 65.1343 25.1006Z" fill="black" stroke="black" stroke-width="0.261319"/>
<path d="M139.176 28.2173C139.396 29.9775 139.401 31.7775 139.192 33.611C138.982 35.4476 138.583 37.2622 137.993 39.0579C137.403 40.8537 136.624 42.6108 135.667 44.3312C134.705 46.0522 133.581 47.6888 132.298 49.237L130.192 48.6715C131.364 47.2025 132.399 45.6361 133.293 43.9793C134.186 42.3224 134.923 40.6262 135.507 38.8869C136.09 37.1476 136.481 35.4061 136.688 33.6582C136.89 31.9108 136.894 30.2209 136.691 28.5929C136.488 26.9649 136.097 25.4062 135.518 23.9232C134.939 22.4403 134.202 21.1244 133.308 19.9788L135.447 18.985C136.381 20.1912 137.183 21.6004 137.853 23.203C138.518 24.8061 138.959 26.4797 139.176 28.2173Z" fill="black" stroke="black" stroke-width="0.261319"/>
<path d="M144.434 4.69394C144.505 4.06676 145.416 4.06676 145.487 4.69394L146.024 9.47177C146.07 9.88577 146.555 10.0864 146.88 9.82653L150.638 6.82777C151.132 6.43413 151.776 7.07861 151.382 7.57193L148.384 11.3301C148.124 11.6557 148.324 12.14 148.738 12.1865L153.516 12.7235C154.143 12.794 154.143 13.7054 153.516 13.7759L148.738 14.3129C148.324 14.3594 148.124 14.8437 148.384 15.1693L151.382 18.9275C151.776 19.4208 151.132 20.0653 150.638 19.6717L146.88 16.6729C146.555 16.413 146.07 16.6137 146.024 17.0277L145.487 21.8055C145.416 22.4327 144.505 22.4327 144.434 21.8055L143.897 17.0277C143.851 16.6137 143.367 16.413 143.041 16.6729L139.283 19.6717C138.79 20.0653 138.145 19.4208 138.539 18.9275L141.537 15.1693C141.797 14.8437 141.597 14.3594 141.183 14.3129L136.405 13.7759C135.778 13.7054 135.778 12.794 136.405 12.7235L141.183 12.1865C141.597 12.14 141.797 11.6557 141.537 11.3301L138.539 7.57194C138.145 7.07861 138.79 6.43413 139.283 6.82777L143.041 9.82653C143.367 10.0864 143.851 9.88577 143.897 9.47177L144.434 4.69394Z" fill="black"/>
</svg>
