<svg width="32" height="33" viewBox="0 0 32 33" fill="none" xmlns="http://www.w3.org/2000/svg">
<path d="M9.82068 21.5121L9.39844 18.3134L12.576 17.7012L13.6528 22.5783C13.8217 23.261 14.1595 24.6369 14.1595 24.6791C14.1595 24.7213 13.4346 25.8579 13.0721 26.4209L11.6153 26.611L10.4013 25.6398L9.82068 21.5121Z" fill="#191919"/>
<path d="M6.60938 16.7094V11.301V11.2136L19.2147 8.20404L20.9594 8.00781L20.8067 20.1115L7.6562 17.7344L6.60938 16.7094Z" fill="#191919"/>
<path d="M21.248 7.98438C18.3218 8.49954 16.6811 8.78837 13.7549 9.30353L7.91496 10.3316C6.95887 10.5 6.26172 11.3306 6.26172 12.3013V15.9795C6.26172 16.9503 6.95887 17.7809 7.91495 17.9492L21.248 20.2965" stroke="#191919" stroke-width="1.4"/>
<rect x="20.9812" y="7.18437" width="4.0602" height="13.9145" rx="1.3" fill="#FA6030" stroke="#FA6030" stroke-width="1.4"/>
<path d="M9.08203 17.9766L10.2235 25.2581C10.3627 26.1457 11.1273 26.7998 12.0257 26.7998V26.7998C13.1475 26.7998 14.0034 25.7969 13.8272 24.6891L12.8056 18.2659" stroke="#191919" stroke-width="1.4"/>
<path d="M12.375 10.2246L12.375 17.7013" stroke="white" stroke-width="1.4" stroke-linecap="round"/>
</svg>
