<svg width="32" height="32" viewBox="0 0 32 32" fill="none" xmlns="http://www.w3.org/2000/svg">
<g clip-path="url(#clip0_4494_958)">
<path d="M12.9794 25.3025C12.9794 26.4772 14.0839 28 16.0733 28C18.2091 28 19.1672 26.4772 19.1672 25.3025H12.9794ZM23.6444 20.8276V14.6119C23.6444 11.1409 21.1444 8.236 17.7667 7.46705V6.6981C17.7667 5.75827 16.9778 5 16 5C15.0222 5 14.2333 5.75827 14.2333 6.6981V7.46705C10.8556 8.236 8.35556 11.1409 8.35556 14.6119V20.8276L6 23.0917V24.2238H26V23.0917L23.6444 20.8276ZM20.4444 16.7586H17.1111V19.9625H14.8889V16.7586H11.5556V14.6119H14.8889V11.4079H17.1111V14.6119H20.4444V16.7586Z" fill="#191919"/>
<path d="M11.7721 12.0045L14.3544 10.5867L16.9874 10L20.5317 12.0045L22 15.6222L20.2785 18.7022L18.8608 20.56L14.3544 21L11.7721 18.7022L10 17.0889L10.3038 14.5467L11.7721 12.0045Z" fill="#191919"/>
</g>
<defs>
<clipPath id="clip0_4494_958">
<rect width="26" height="26" fill="white" transform="translate(3 3)"/>
</clipPath>
</defs>
</svg>
