<svg width="32" height="33" viewBox="0 0 32 33" fill="none" xmlns="http://www.w3.org/2000/svg">
<g clip-path="url(#clip0_4494_952)">
<path d="M12.9794 25.8025C12.9794 26.9772 14.0839 28.5 16.0733 28.5C18.2091 28.5 19.1672 26.9772 19.1672 25.8025H12.9794ZM23.6444 21.3276V15.1119C23.6444 11.6409 21.1444 8.736 17.7667 7.96705V7.1981C17.7667 6.25827 16.9778 5.5 16 5.5C15.0222 5.5 14.2333 6.25827 14.2333 7.1981V7.96705C10.8556 8.736 8.35556 11.6409 8.35556 15.1119V21.3276L6 23.5917V24.7238H26V23.5917L23.6444 21.3276ZM20.4444 17.2586H17.1111V20.4625H14.8889V17.2586H11.5556V15.1119H14.8889V11.9079H17.1111V15.1119H20.4444V17.2586Z" fill="#191919"/>
<path d="M11.7721 12.5045L14.3544 11.0867L16.9874 10.5L20.5317 12.5045L22 16.1222L20.2785 19.2022L18.8608 21.06L14.3544 21.5L11.7721 19.2022L10 17.5889L10.3038 15.0467L11.7721 12.5045Z" fill="#191919"/>
<circle cx="24.5" cy="7" r="2.5" fill="#FA6030"/>
</g>
<defs>
<clipPath id="clip0_4494_952">
<rect width="26" height="26" fill="white" transform="translate(3 3.5)"/>
</clipPath>
</defs>
</svg>
