<svg width="14" height="12" viewBox="0 0 14 12" fill="none" xmlns="http://www.w3.org/2000/svg">
<path d="M6.36072 1.31029C6.69876 0.726887 7.54113 0.726888 7.87917 1.31029L12.8392 9.87035C13.1781 10.4553 12.756 11.1877 12.0799 11.1877H2.15995C1.48386 11.1877 1.06176 10.4553 1.40072 9.87035L6.36072 1.31029Z" fill="#FA6030"/>
<path d="M6.46276 8.98318C6.46276 8.57656 6.73446 8.28844 7.12182 8.28844C7.51463 8.28844 7.77214 8.57656 7.77541 8.98318C7.77541 9.36588 7.51899 9.66813 7.11745 9.66813C6.72682 9.66922 6.45622 9.36697 6.46276 8.98318ZM6.75955 7.65677L6.61225 4.19336H7.6172L7.46989 7.65677H6.75955Z" fill="white"/>
</svg>
