<svg width="19" height="18" viewBox="0 0 19 18" fill="none" xmlns="http://www.w3.org/2000/svg">
<g opacity="0.6">
<path d="M13.7822 15H6.28608C5.84029 15 5.38848 14.6562 5.23787 14.2086L3.64973 6.69081C3.3425 5.74378 3.56539 5.30919 3.80636 5.11459C4.04733 4.92 4.49914 4.80324 5.25819 5.38703L7.60763 7.19676C7.67992 7.24216 7.74619 7.26162 7.79438 7.24865C7.8486 7.22919 7.89077 7.1773 7.92089 7.08649L8.98115 4.04432C9.30043 3.13622 9.77032 3 10.0233 3C10.2764 3 10.7462 3.13622 11.0655 4.04432L12.1258 7.08649C12.1559 7.17081 12.1981 7.22919 12.2523 7.24865C12.3065 7.26811 12.3728 7.24865 12.439 7.19027L14.6439 5.4973C15.4511 4.87459 15.921 4.99784 16.1801 5.19892C16.4331 5.40649 16.668 5.86703 16.3367 6.87243L14.8304 14.2086C14.6798 14.6562 14.228 15 13.7822 15ZM4.40878 5.97081C4.42083 6.06162 4.44492 6.19135 4.50517 6.36L6.09331 13.8778C6.11741 13.9427 6.22584 14.027 7.19196 14.027H12.8547C13.8485 14.027 13.9569 13.9427 13.975 13.8778L15.4813 6.54811C15.5656 6.30162 15.5897 6.13297 15.5957 6.03568C15.5054 6.06811 15.3668 6.13946 15.168 6.29514L12.9631 7.98811C12.6619 8.21514 12.3065 8.28649 11.9872 8.1827C11.6679 8.07892 11.4089 7.80649 11.2764 7.43676L10.2161 4.39459C10.1378 4.16757 10.0655 4.0573 10.0233 4.00541C9.98116 4.0573 9.90887 4.16757 9.83056 4.38811L8.7703 7.43027C8.64379 7.8 8.38475 8.07243 8.05944 8.17622C7.74016 8.28 7.37871 8.20865 7.08352 7.98162L4.73409 6.17189C4.59553 6.06811 4.48709 6.00324 4.40878 5.97081Z" fill="#9E9E9E"/>
<path d="M5.34766 11.3809H14.8633" stroke="#9E9E9E"/>
</g>
</svg>
