<svg width="32" height="33" viewBox="0 0 32 33" fill="none" xmlns="http://www.w3.org/2000/svg">
<path d="M5.7 24.8997V15.724C5.7 15.318 5.88962 14.9354 6.21262 14.6895L15.1835 7.86108C15.6476 7.50782 16.2902 7.5069 16.7553 7.85883L25.7844 14.6909C26.1092 14.9366 26.3 15.3203 26.3 15.7275V24.8997C26.3 25.6176 25.718 26.1997 25 26.1997H7C6.28203 26.1997 5.7 25.6176 5.7 24.8997Z" stroke="#191919" stroke-width="1.4"/>
<path d="M11.9688 26.8431V18.9023C11.9688 18.3501 12.4165 17.9023 12.9687 17.9023H16.5034" stroke="#191919" stroke-width="1.4"/>
<path d="M20.0352 26.8431V18.9023C20.0352 18.3501 19.5874 17.9023 19.0352 17.9023H15.5005" stroke="#191919" stroke-width="1.4"/>
</svg>
