<svg width="32" height="33" viewBox="0 0 32 33" fill="none" xmlns="http://www.w3.org/2000/svg">
<g clip-path="url(#clip0_4494_1023)">
<circle cx="16.5" cy="17" r="13.5" fill="#DDDDDD"/>
</g>
<mask id="mask0_4494_1023" style="mask-type:alpha" maskUnits="userSpaceOnUse" x="3" y="3" width="27" height="28">
<g clip-path="url(#clip1_4494_1023)">
<circle cx="16.5" cy="17" r="13.5" fill="#DDDDDD"/>
</g>
</mask>
<g mask="url(#mask0_4494_1023)">
<path d="M22.8082 29.2766C22.0026 29.7164 19.5738 30.6037 17.3313 30.7272C13.1442 30.9578 10.5073 29.7392 9.49341 29.2766H22.8082Z" fill="black"/>
</g>
<mask id="mask1_4494_1023" style="mask-type:alpha" maskUnits="userSpaceOnUse" x="6" y="9" width="20" height="21">
<path d="M16 19.5C14.625 19.5 13.4479 19.0104 12.4687 18.0312C11.4896 17.0521 11 15.875 11 14.5C11 13.125 11.4896 11.9479 12.4687 10.9688C13.4479 9.98958 14.625 9.5 16 9.5C17.375 9.5 18.5521 9.98958 19.5312 10.9688C20.5104 11.9479 21 13.125 21 14.5C21 15.875 20.5104 17.0521 19.5312 18.0312C18.5521 19.0104 17.375 19.5 16 19.5ZM8.5 29.5C7.8125 29.5 7.22417 29.2554 6.735 28.7663C6.245 28.2763 6 27.6875 6 27V26C6 25.2917 6.1825 24.6404 6.5475 24.0462C6.91167 23.4529 7.39583 23 8 22.6875C9.29167 22.0417 10.6042 21.5571 11.9375 21.2337C13.2708 20.9112 14.625 20.75 16 20.75C17.375 20.75 18.7292 20.9112 20.0625 21.2337C21.3958 21.5571 22.7083 22.0417 24 22.6875C24.6042 23 25.0883 23.4529 25.4525 24.0462C25.8175 24.6404 26 25.2917 26 26V27C26 27.6875 25.7554 28.2763 25.2663 28.7663C24.7763 29.2554 24.1875 29.5 23.5 29.5H8.5Z" fill="black"/>
</mask>
<g mask="url(#mask1_4494_1023)">
<circle cx="16.5" cy="17" r="13.5" fill="black"/>
<rect x="11" y="9.5" width="11" height="11" fill="#DDDDDD"/>
</g>
<circle cx="16.5" cy="14" r="4.5" fill="black"/>
<defs>
<clipPath id="clip0_4494_1023">
<rect width="27" height="27" fill="white" transform="translate(3 3.5)"/>
</clipPath>
<clipPath id="clip1_4494_1023">
<rect width="27" height="27" fill="white" transform="translate(3 3.5)"/>
</clipPath>
</defs>
</svg>
