<svg width="22" height="22" viewBox="0 0 22 22" fill="none" xmlns="http://www.w3.org/2000/svg">
<path d="M10.0027 2.02078C10.4106 1.19417 11.5894 1.19417 11.9973 2.02078L13.9741 6.02609C14.1361 6.35433 14.4492 6.58185 14.8114 6.63448L19.2316 7.27677C20.1438 7.40932 20.508 8.53034 19.8479 9.17377L16.6495 12.2915C16.3874 12.547 16.2678 12.9151 16.3297 13.2759L17.0847 17.6781C17.2405 18.5867 16.2869 19.2795 15.471 18.8506L11.5175 16.7721C11.1935 16.6017 10.8065 16.6017 10.4825 16.7721L6.52899 18.8505C5.71308 19.2795 4.75948 18.5867 4.9153 17.6781L5.67035 13.2759C5.73223 12.9151 5.61262 12.547 5.3505 12.2915L2.15206 9.17377C1.49198 8.53034 1.85622 7.40932 2.76844 7.27677L7.18856 6.63448C7.5508 6.58185 7.86395 6.35433 8.02595 6.02609L10.0027 2.02078Z" fill="#FFD600"/>
</svg>
