<svg width="5885" height="5885" viewBox="0 0 5885 5885" fill="none" xmlns="http://www.w3.org/2000/svg">
<g clip-path="url(#clip0_3715_7351)">
<rect width="5885" height="5885" fill="white"/>
<path d="M3030.23 1044.02L3149.59 2106.02C3162.51 2221.05 3297.08 2276.79 3387.55 2204.59L4222.9 1538.03C4305.14 1472.41 4412.58 1579.85 4346.96 1662.09L3680.4 2497.44C3608.2 2587.92 3663.94 2722.48 3778.97 2735.41L4840.98 2854.77C4945.53 2866.52 4945.53 3018.46 4840.98 3030.21L3778.97 3149.57C3663.94 3162.49 3608.2 3297.05 3680.4 3387.53L4346.96 4222.88C4412.58 4305.12 4305.14 4412.57 4222.9 4346.94L3387.55 3680.39C3297.07 3608.19 3162.51 3663.93 3149.59 3778.96L3030.23 4840.96C3018.48 4945.52 2866.54 4945.52 2854.79 4840.96L2735.44 3778.96C2722.51 3663.93 2587.95 3608.19 2497.47 3680.39L1662.12 4346.94C1579.89 4412.57 1472.44 4305.13 1538.07 4222.88L2204.62 3387.53C2276.82 3297.05 2221.08 3162.49 2106.05 3149.56L1044.04 3030.21C939.49 3018.46 939.489 2866.52 1044.04 2854.77L2106.05 2735.41C2221.08 2722.48 2276.82 2587.92 2204.62 2497.44L1538.07 1662.09C1472.44 1579.85 1579.88 1472.41 1662.13 1538.03L2497.47 2204.59C2587.95 2276.79 2722.51 2221.05 2735.44 2106.02L2854.79 1044.02C2866.54 939.46 3018.48 939.462 3030.23 1044.02Z" fill="#191919" stroke="#191919" stroke-width="58.85"/>
</g>
<defs>
<clipPath id="clip0_3715_7351">
<rect width="5885" height="5885" fill="white"/>
</clipPath>
</defs>
</svg>
