<svg width="69" height="69" viewBox="0 0 69 69" fill="none" xmlns="http://www.w3.org/2000/svg">
<g clip-path="url(#clip0_2609_8749)">
<circle cx="34.5" cy="34.5137" r="34" fill="#FA6030"/>
<path fill-rule="evenodd" clip-rule="evenodd" d="M49.8672 32.5253L32.5819 49.8106C25.1351 48.7757 19.4023 42.383 19.4023 34.6514C19.4023 26.1983 26.2549 19.3457 34.708 19.3457C42.4396 19.3457 48.8323 25.0785 49.8672 32.5253Z" fill="#F5F5F5"/>
<path d="M30.2829 28.4384C30.0453 27.9379 30.7253 27.5162 31.0681 27.9515L33.6791 31.2677C33.9054 31.5551 34.3595 31.4807 34.4822 31.1361L35.8987 27.1602C36.0847 26.6383 36.8637 26.8209 36.7982 27.3711L36.2996 31.5623C36.2564 31.9255 36.6301 32.194 36.9605 32.0372L40.7735 30.2273C41.2741 29.9897 41.6957 30.6698 41.2604 31.0125L37.9442 33.6235C37.6569 33.8498 37.7313 34.3039 38.0758 34.4267L42.0518 35.8431C42.5737 36.0291 42.391 36.8081 41.8409 36.7426L37.6497 36.244C37.2865 36.2008 37.018 36.5745 37.1748 36.9049L38.9846 40.718C39.2222 41.2185 38.5422 41.6402 38.1995 41.2049L35.5884 37.8887C35.3622 37.6013 34.908 37.6757 34.7853 38.0202L33.3688 41.9962C33.1829 42.5181 32.4039 42.3354 32.4693 41.7853L32.9679 37.5941C33.0111 37.2309 32.6374 36.9624 32.307 37.1192L28.494 38.9291C27.9935 39.1666 27.5718 38.4866 28.0071 38.1439L31.3233 35.5328C31.6106 35.3066 31.5362 34.8525 31.1917 34.7297L27.2158 33.3132C26.6938 33.1273 26.8765 32.3483 27.4267 32.4137L31.6179 32.9124C31.981 32.9556 32.2496 32.5818 32.0927 32.2514L30.2829 28.4384Z" fill="#191919"/>
<path fill-rule="evenodd" clip-rule="evenodd" d="M47.7411 32.3788C39.288 32.3788 32.4354 39.2314 32.4354 47.6844C32.4354 48.4059 32.4853 49.1157 32.5819 49.8105L49.8672 32.5253C49.1723 32.4287 48.4625 32.3788 47.7411 32.3788Z" fill="#BCBCBC"/>
</g>
<defs>
<clipPath id="clip0_2609_8749">
<rect width="68" height="68" fill="white" transform="translate(0.632812 0.578125)"/>
</clipPath>
</defs>
</svg>
