<svg width="69" height="69" viewBox="0 0 69 69" fill="none" xmlns="http://www.w3.org/2000/svg">
<g clip-path="url(#clip0_2609_8750)">
<circle cx="34.6328" cy="34.5781" r="34" fill="#FA6030"/>
<path d="M45.8694 29.8284L39.8711 23.8301L24.1428 39.5583L30.1412 45.5567L45.8694 29.8284Z" fill="#F5F5F5"/>
<path d="M48.4036 25.5169L44.1807 21.2939C43.6905 20.8038 42.7689 20.9303 42.1229 21.5763L39.8647 23.8345L45.8631 29.8328L48.1212 27.5747C48.7673 26.9286 48.8938 26.007 48.4036 25.5169Z" fill="#BCBCBC"/>
<path d="M21.4867 47.2436C21.2621 47.8921 21.7919 48.4219 22.4404 48.1973L26.084 46.9394L22.7461 43.6016L21.4867 47.2436Z" fill="#191919"/>
<path d="M24.1445 39.5566L22.7474 43.5999L26.0853 46.9378L30.1285 45.5406L24.1445 39.5566Z" fill="#BCBCBC"/>
</g>
<defs>
<clipPath id="clip0_2609_8750">
<rect width="68" height="68" fill="white" transform="translate(0.632812 0.578125)"/>
</clipPath>
</defs>
</svg>
