<svg width="69" height="69" viewBox="0 0 69 69" fill="none" xmlns="http://www.w3.org/2000/svg">
<g clip-path="url(#clip0_939_10422)">
<circle cx="34.3672" cy="34.6426" r="34" fill="#191919"/>
<path d="M45.6038 29.8929L39.6055 23.8945L23.8772 39.6228L29.8756 45.6211L45.6038 29.8929Z" fill="#F5F5F5"/>
<path d="M48.138 25.5814L43.915 21.3584C43.4249 20.8683 42.5033 20.9947 41.8573 21.6408L39.5991 23.8989L45.5975 29.8973L47.8556 27.6391C48.5017 26.9931 48.6281 26.0715 48.138 25.5814Z" fill="#BCBCBC"/>
<path d="M21.2211 47.308C20.9965 47.9566 21.5263 48.4864 22.1748 48.2617L25.8183 47.0039L22.4805 43.666L21.2211 47.308Z" fill="#FA6030"/>
<path d="M23.8789 39.6211L22.4818 43.6643L25.8196 47.0022L29.8629 45.6051L23.8789 39.6211Z" fill="#BCBCBC"/>
</g>
<defs>
<clipPath id="clip0_939_10422">
<rect width="68" height="68" fill="white" transform="translate(0.367188 0.642578)"/>
</clipPath>
</defs>
</svg>
